<?xml version="1.0" encoding="utf-8" standalone="no"?>
<!DOCTYPE svg PUBLIC "-//W3C//DTD SVG 1.1//EN"
  "http://www.w3.org/Graphics/SVG/1.1/DTD/svg11.dtd">
<svg xmlns:xlink="http://www.w3.org/1999/xlink" width="339.023125pt" height="324.338125pt" viewBox="0 0 339.023125 324.338125" xmlns="http://www.w3.org/2000/svg" version="1.1">
 <metadata>
  <rdf:RDF xmlns:dc="http://purl.org/dc/elements/1.1/" xmlns:cc="http://creativecommons.org/ns#" xmlns:rdf="http://www.w3.org/1999/02/22-rdf-syntax-ns#">
   <cc:Work>
    <dc:type rdf:resource="http://purl.org/dc/dcmitype/StillImage"/>
    <dc:date>2026-08-01T21:25:49.571526</dc:date>
    <dc:format>image/svg+xml</dc:format>
    <dc:creator>
     <cc:Agent>
      <dc:title>Matplotlib v3.8.0, https://matplotlib.org/</dc:title>
     </cc:Agent>
    </dc:creator>
   </cc:Work>
  </rdf:RDF>
 </metadata>
 <defs>
  <style type="text/css">*{stroke-linejoin: round; stroke-linecap: butt}</style>
 </defs>
 <g id="figure_1">
  <g id="patch_1">
   <path d="M 0 324.338125 
L 339.023125 324.338125 
L 339.023125 0 
L 0 0 
z
" style="fill: #ffffff"/>
  </g>
  <g id="axes_1">
   <g id="patch_2">
    <path d="M 52.823125 279 
L 331.823125 279 
L 331.823125 7.2 
L 52.823125 7.2 
z
" style="fill: #ffffff"/>
   </g>
   <g id="matplotlib.axis_1">
    <g id="xtick_1">
     <g id="line2d_1">
      <defs>
       <path id="mbffa2203bc" d="M 0 0 
L 0 3.5 
" style="stroke: #000000; stroke-width: 0.8"/>
      </defs>
      <g>
       <use xlink:href="#mbffa2203bc" x="76.201818" y="279" style="stroke: #000000; stroke-width: 0.8"/>
      </g>
     </g>
     <g id="text_1">
      <!-- 5 -->
      <g transform="translate(73.020568 293.598437) scale(0.1 -0.1)">
       <defs>
        <path id="DejaVuSans-35" d="M 691 4666 
L 3169 4666 
L 3169 4134 
L 1269 4134 
L 1269 2991 
Q 1406 3038 1543 3061 
Q 1681 3084 1819 3084 
Q 2600 3084 3056 2656 
Q 3513 2228 3513 1497 
Q 3513 744 3044 326 
Q 2575 -91 1722 -91 
Q 1428 -91 1123 -41 
Q 819 9 494 109 
L 494 744 
Q 775 591 1075 516 
Q 1375 441 1709 441 
Q 2250 441 2565 725 
Q 2881 1009 2881 1497 
Q 2881 1984 2565 2268 
Q 2250 2553 1709 2553 
Q 1456 2553 1204 2497 
Q 953 2441 691 2322 
L 691 4666 
z
" transform="scale(0.015625)"/>
       </defs>
       <use xlink:href="#DejaVuSans-35"/>
      </g>
     </g>
    </g>
    <g id="xtick_2">
     <g id="line2d_2">
      <g>
       <use xlink:href="#mbffa2203bc" x="111.205511" y="279" style="stroke: #000000; stroke-width: 0.8"/>
      </g>
     </g>
     <g id="text_2">
      <!-- 10 -->
      <g transform="translate(104.843011 293.598437) scale(0.1 -0.1)">
       <defs>
        <path id="DejaVuSans-31" d="M 794 531 
L 1825 531 
L 1825 4091 
L 703 3866 
L 703 4441 
L 1819 4666 
L 2450 4666 
L 2450 531 
L 3481 531 
L 3481 0 
L 794 0 
L 794 531 
z
" transform="scale(0.015625)"/>
        <path id="DejaVuSans-30" d="M 2034 4250 
Q 1547 4250 1301 3770 
Q 1056 3291 1056 2328 
Q 1056 1369 1301 889 
Q 1547 409 2034 409 
Q 2525 409 2770 889 
Q 3016 1369 3016 2328 
Q 3016 3291 2770 3770 
Q 2525 4250 2034 4250 
z
M 2034 4750 
Q 2819 4750 3233 4129 
Q 3647 3509 3647 2328 
Q 3647 1150 3233 529 
Q 2819 -91 2034 -91 
Q 1250 -91 836 529 
Q 422 1150 422 2328 
Q 422 3509 836 4129 
Q 1250 4750 2034 4750 
z
" transform="scale(0.015625)"/>
       </defs>
       <use xlink:href="#DejaVuSans-31"/>
       <use xlink:href="#DejaVuSans-30" x="63.623047"/>
      </g>
     </g>
    </g>
    <g id="xtick_3">
     <g id="line2d_3">
      <g>
       <use xlink:href="#mbffa2203bc" x="146.209205" y="279" style="stroke: #000000; stroke-width: 0.8"/>
      </g>
     </g>
     <g id="text_3">
      <!-- 15 -->
      <g transform="translate(139.846705 293.598437) scale(0.1 -0.1)">
       <use xlink:href="#DejaVuSans-31"/>
       <use xlink:href="#DejaVuSans-35" x="63.623047"/>
      </g>
     </g>
    </g>
    <g id="xtick_4">
     <g id="line2d_4">
      <g>
       <use xlink:href="#mbffa2203bc" x="181.212898" y="279" style="stroke: #000000; stroke-width: 0.8"/>
      </g>
     </g>
     <g id="text_4">
      <!-- 20 -->
      <g transform="translate(174.850398 293.598437) scale(0.1 -0.1)">
       <defs>
        <path id="DejaVuSans-32" d="M 1228 531 
L 3431 531 
L 3431 0 
L 469 0 
L 469 531 
Q 828 903 1448 1529 
Q 2069 2156 2228 2338 
Q 2531 2678 2651 2914 
Q 2772 3150 2772 3378 
Q 2772 3750 2511 3984 
Q 2250 4219 1831 4219 
Q 1534 4219 1204 4116 
Q 875 4013 500 3803 
L 500 4441 
Q 881 4594 1212 4672 
Q 1544 4750 1819 4750 
Q 2544 4750 2975 4387 
Q 3406 4025 3406 3419 
Q 3406 3131 3298 2873 
Q 3191 2616 2906 2266 
Q 2828 2175 2409 1742 
Q 1991 1309 1228 531 
z
" transform="scale(0.015625)"/>
       </defs>
       <use xlink:href="#DejaVuSans-32"/>
       <use xlink:href="#DejaVuSans-30" x="63.623047"/>
      </g>
     </g>
    </g>
    <g id="xtick_5">
     <g id="line2d_5">
      <g>
       <use xlink:href="#mbffa2203bc" x="216.216591" y="279" style="stroke: #000000; stroke-width: 0.8"/>
      </g>
     </g>
     <g id="text_5">
      <!-- 25 -->
      <g transform="translate(209.854091 293.598437) scale(0.1 -0.1)">
       <use xlink:href="#DejaVuSans-32"/>
       <use xlink:href="#DejaVuSans-35" x="63.623047"/>
      </g>
     </g>
    </g>
    <g id="xtick_6">
     <g id="line2d_6">
      <g>
       <use xlink:href="#mbffa2203bc" x="251.220284" y="279" style="stroke: #000000; stroke-width: 0.8"/>
      </g>
     </g>
     <g id="text_6">
      <!-- 30 -->
      <g transform="translate(244.857784 293.598437) scale(0.1 -0.1)">
       <defs>
        <path id="DejaVuSans-33" d="M 2597 2516 
Q 3050 2419 3304 2112 
Q 3559 1806 3559 1356 
Q 3559 666 3084 287 
Q 2609 -91 1734 -91 
Q 1441 -91 1130 -33 
Q 819 25 488 141 
L 488 750 
Q 750 597 1062 519 
Q 1375 441 1716 441 
Q 2309 441 2620 675 
Q 2931 909 2931 1356 
Q 2931 1769 2642 2001 
Q 2353 2234 1838 2234 
L 1294 2234 
L 1294 2753 
L 1863 2753 
Q 2328 2753 2575 2939 
Q 2822 3125 2822 3475 
Q 2822 3834 2567 4026 
Q 2313 4219 1838 4219 
Q 1578 4219 1281 4162 
Q 984 4106 628 3988 
L 628 4550 
Q 988 4650 1302 4700 
Q 1616 4750 1894 4750 
Q 2613 4750 3031 4423 
Q 3450 4097 3450 3541 
Q 3450 3153 3228 2886 
Q 3006 2619 2597 2516 
z
" transform="scale(0.015625)"/>
       </defs>
       <use xlink:href="#DejaVuSans-33"/>
       <use xlink:href="#DejaVuSans-30" x="63.623047"/>
      </g>
     </g>
    </g>
    <g id="xtick_7">
     <g id="line2d_7">
      <g>
       <use xlink:href="#mbffa2203bc" x="286.223977" y="279" style="stroke: #000000; stroke-width: 0.8"/>
      </g>
     </g>
     <g id="text_7">
      <!-- 35 -->
      <g transform="translate(279.861477 293.598437) scale(0.1 -0.1)">
       <use xlink:href="#DejaVuSans-33"/>
       <use xlink:href="#DejaVuSans-35" x="63.623047"/>
      </g>
     </g>
    </g>
    <g id="xtick_8">
     <g id="line2d_8">
      <g>
       <use xlink:href="#mbffa2203bc" x="321.22767" y="279" style="stroke: #000000; stroke-width: 0.8"/>
      </g>
     </g>
     <g id="text_8">
      <!-- 40 -->
      <g transform="translate(314.86517 293.598437) scale(0.1 -0.1)">
       <defs>
        <path id="DejaVuSans-34" d="M 2419 4116 
L 825 1625 
L 2419 1625 
L 2419 4116 
z
M 2253 4666 
L 3047 4666 
L 3047 1625 
L 3713 1625 
L 3713 1100 
L 3047 1100 
L 3047 0 
L 2419 0 
L 2419 1100 
L 313 1100 
L 313 1709 
L 2253 4666 
z
" transform="scale(0.015625)"/>
       </defs>
       <use xlink:href="#DejaVuSans-34"/>
       <use xlink:href="#DejaVuSans-30" x="63.623047"/>
      </g>
     </g>
    </g>
    <g id="text_9">
     <!-- Ext. glucose conc. $[G_0]$ [$\mu$M] -->
     <g transform="translate(66.143125 313.358125) scale(0.18 -0.18)">
      <defs>
       <path id="DejaVuSans-45" d="M 628 4666 
L 3578 4666 
L 3578 4134 
L 1259 4134 
L 1259 2753 
L 3481 2753 
L 3481 2222 
L 1259 2222 
L 1259 531 
L 3634 531 
L 3634 0 
L 628 0 
L 628 4666 
z
" transform="scale(0.015625)"/>
       <path id="DejaVuSans-78" d="M 3513 3500 
L 2247 1797 
L 3578 0 
L 2900 0 
L 1881 1375 
L 863 0 
L 184 0 
L 1544 1831 
L 300 3500 
L 978 3500 
L 1906 2253 
L 2834 3500 
L 3513 3500 
z
" transform="scale(0.015625)"/>
       <path id="DejaVuSans-74" d="M 1172 4494 
L 1172 3500 
L 2356 3500 
L 2356 3053 
L 1172 3053 
L 1172 1153 
Q 1172 725 1289 603 
Q 1406 481 1766 481 
L 2356 481 
L 2356 0 
L 1766 0 
Q 1100 0 847 248 
Q 594 497 594 1153 
L 594 3053 
L 172 3053 
L 172 3500 
L 594 3500 
L 594 4494 
L 1172 4494 
z
" transform="scale(0.015625)"/>
       <path id="DejaVuSans-2e" d="M 684 794 
L 1344 794 
L 1344 0 
L 684 0 
L 684 794 
z
" transform="scale(0.015625)"/>
       <path id="DejaVuSans-20" transform="scale(0.015625)"/>
       <path id="DejaVuSans-67" d="M 2906 1791 
Q 2906 2416 2648 2759 
Q 2391 3103 1925 3103 
Q 1463 3103 1205 2759 
Q 947 2416 947 1791 
Q 947 1169 1205 825 
Q 1463 481 1925 481 
Q 2391 481 2648 825 
Q 2906 1169 2906 1791 
z
M 3481 434 
Q 3481 -459 3084 -895 
Q 2688 -1331 1869 -1331 
Q 1566 -1331 1297 -1286 
Q 1028 -1241 775 -1147 
L 775 -588 
Q 1028 -725 1275 -790 
Q 1522 -856 1778 -856 
Q 2344 -856 2625 -561 
Q 2906 -266 2906 331 
L 2906 616 
Q 2728 306 2450 153 
Q 2172 0 1784 0 
Q 1141 0 747 490 
Q 353 981 353 1791 
Q 353 2603 747 3093 
Q 1141 3584 1784 3584 
Q 2172 3584 2450 3431 
Q 2728 3278 2906 2969 
L 2906 3500 
L 3481 3500 
L 3481 434 
z
" transform="scale(0.015625)"/>
       <path id="DejaVuSans-6c" d="M 603 4863 
L 1178 4863 
L 1178 0 
L 603 0 
L 603 4863 
z
" transform="scale(0.015625)"/>
       <path id="DejaVuSans-75" d="M 544 1381 
L 544 3500 
L 1119 3500 
L 1119 1403 
Q 1119 906 1312 657 
Q 1506 409 1894 409 
Q 2359 409 2629 706 
Q 2900 1003 2900 1516 
L 2900 3500 
L 3475 3500 
L 3475 0 
L 2900 0 
L 2900 538 
Q 2691 219 2414 64 
Q 2138 -91 1772 -91 
Q 1169 -91 856 284 
Q 544 659 544 1381 
z
M 1991 3584 
L 1991 3584 
z
" transform="scale(0.015625)"/>
       <path id="DejaVuSans-63" d="M 3122 3366 
L 3122 2828 
Q 2878 2963 2633 3030 
Q 2388 3097 2138 3097 
Q 1578 3097 1268 2742 
Q 959 2388 959 1747 
Q 959 1106 1268 751 
Q 1578 397 2138 397 
Q 2388 397 2633 464 
Q 2878 531 3122 666 
L 3122 134 
Q 2881 22 2623 -34 
Q 2366 -91 2075 -91 
Q 1284 -91 818 406 
Q 353 903 353 1747 
Q 353 2603 823 3093 
Q 1294 3584 2113 3584 
Q 2378 3584 2631 3529 
Q 2884 3475 3122 3366 
z
" transform="scale(0.015625)"/>
       <path id="DejaVuSans-6f" d="M 1959 3097 
Q 1497 3097 1228 2736 
Q 959 2375 959 1747 
Q 959 1119 1226 758 
Q 1494 397 1959 397 
Q 2419 397 2687 759 
Q 2956 1122 2956 1747 
Q 2956 2369 2687 2733 
Q 2419 3097 1959 3097 
z
M 1959 3584 
Q 2709 3584 3137 3096 
Q 3566 2609 3566 1747 
Q 3566 888 3137 398 
Q 2709 -91 1959 -91 
Q 1206 -91 779 398 
Q 353 888 353 1747 
Q 353 2609 779 3096 
Q 1206 3584 1959 3584 
z
" transform="scale(0.015625)"/>
       <path id="DejaVuSans-73" d="M 2834 3397 
L 2834 2853 
Q 2591 2978 2328 3040 
Q 2066 3103 1784 3103 
Q 1356 3103 1142 2972 
Q 928 2841 928 2578 
Q 928 2378 1081 2264 
Q 1234 2150 1697 2047 
L 1894 2003 
Q 2506 1872 2764 1633 
Q 3022 1394 3022 966 
Q 3022 478 2636 193 
Q 2250 -91 1575 -91 
Q 1294 -91 989 -36 
Q 684 19 347 128 
L 347 722 
Q 666 556 975 473 
Q 1284 391 1588 391 
Q 1994 391 2212 530 
Q 2431 669 2431 922 
Q 2431 1156 2273 1281 
Q 2116 1406 1581 1522 
L 1381 1569 
Q 847 1681 609 1914 
Q 372 2147 372 2553 
Q 372 3047 722 3315 
Q 1072 3584 1716 3584 
Q 2034 3584 2315 3537 
Q 2597 3491 2834 3397 
z
" transform="scale(0.015625)"/>
       <path id="DejaVuSans-65" d="M 3597 1894 
L 3597 1613 
L 953 1613 
Q 991 1019 1311 708 
Q 1631 397 2203 397 
Q 2534 397 2845 478 
Q 3156 559 3463 722 
L 3463 178 
Q 3153 47 2828 -22 
Q 2503 -91 2169 -91 
Q 1331 -91 842 396 
Q 353 884 353 1716 
Q 353 2575 817 3079 
Q 1281 3584 2069 3584 
Q 2775 3584 3186 3129 
Q 3597 2675 3597 1894 
z
M 3022 2063 
Q 3016 2534 2758 2815 
Q 2500 3097 2075 3097 
Q 1594 3097 1305 2825 
Q 1016 2553 972 2059 
L 3022 2063 
z
" transform="scale(0.015625)"/>
       <path id="DejaVuSans-6e" d="M 3513 2113 
L 3513 0 
L 2938 0 
L 2938 2094 
Q 2938 2591 2744 2837 
Q 2550 3084 2163 3084 
Q 1697 3084 1428 2787 
Q 1159 2491 1159 1978 
L 1159 0 
L 581 0 
L 581 3500 
L 1159 3500 
L 1159 2956 
Q 1366 3272 1645 3428 
Q 1925 3584 2291 3584 
Q 2894 3584 3203 3211 
Q 3513 2838 3513 2113 
z
" transform="scale(0.015625)"/>
       <path id="DejaVuSans-5b" d="M 550 4863 
L 1875 4863 
L 1875 4416 
L 1125 4416 
L 1125 -397 
L 1875 -397 
L 1875 -844 
L 550 -844 
L 550 4863 
z
" transform="scale(0.015625)"/>
       <path id="DejaVuSans-Oblique-47" d="M 3494 697 
L 3738 1919 
L 2700 1919 
L 2797 2438 
L 4453 2438 
L 4050 384 
Q 3634 156 3143 32 
Q 2653 -91 2156 -91 
Q 1278 -91 783 396 
Q 288 884 288 1753 
Q 288 2475 589 3126 
Q 891 3778 1422 4213 
Q 1756 4484 2153 4617 
Q 2550 4750 3034 4750 
Q 3472 4750 3873 4639 
Q 4275 4528 4641 4306 
L 4513 3634 
Q 4231 3928 3853 4083 
Q 3475 4238 3047 4238 
Q 2550 4238 2172 4048 
Q 1794 3859 1497 3463 
Q 1244 3125 1098 2667 
Q 953 2209 953 1734 
Q 953 1081 1287 751 
Q 1622 422 2284 422 
Q 2616 422 2925 492 
Q 3234 563 3494 697 
z
" transform="scale(0.015625)"/>
       <path id="DejaVuSans-5d" d="M 1947 4863 
L 1947 -844 
L 622 -844 
L 622 -397 
L 1369 -397 
L 1369 4416 
L 622 4416 
L 622 4863 
L 1947 4863 
z
" transform="scale(0.015625)"/>
       <path id="DejaVuSans-Oblique-3bc" d="M -84 -1331 
L 856 3500 
L 1434 3500 
L 1009 1322 
Q 997 1256 987 1175 
Q 978 1094 978 1013 
Q 978 722 1161 565 
Q 1344 409 1684 409 
Q 2147 409 2431 671 
Q 2716 934 2816 1459 
L 3213 3500 
L 3788 3500 
L 3266 809 
Q 3253 750 3248 706 
Q 3244 663 3244 628 
Q 3244 531 3283 486 
Q 3322 441 3406 441 
Q 3438 441 3492 456 
Q 3547 472 3647 513 
L 3559 50 
Q 3422 -19 3297 -55 
Q 3172 -91 3053 -91 
Q 2847 -91 2730 40 
Q 2613 172 2613 403 
Q 2438 153 2195 31 
Q 1953 -91 1625 -91 
Q 1334 -91 1117 43 
Q 900 178 831 397 
L 494 -1331 
L -84 -1331 
z
" transform="scale(0.015625)"/>
       <path id="DejaVuSans-4d" d="M 628 4666 
L 1569 4666 
L 2759 1491 
L 3956 4666 
L 4897 4666 
L 4897 0 
L 4281 0 
L 4281 4097 
L 3078 897 
L 2444 897 
L 1241 4097 
L 1241 0 
L 628 0 
L 628 4666 
z
" transform="scale(0.015625)"/>
      </defs>
      <use xlink:href="#DejaVuSans-45" transform="translate(0 0.015625)"/>
      <use xlink:href="#DejaVuSans-78" transform="translate(63.183594 0.015625)"/>
      <use xlink:href="#DejaVuSans-74" transform="translate(122.363281 0.015625)"/>
      <use xlink:href="#DejaVuSans-2e" transform="translate(161.572266 0.015625)"/>
      <use xlink:href="#DejaVuSans-20" transform="translate(193.359375 0.015625)"/>
      <use xlink:href="#DejaVuSans-67" transform="translate(225.146484 0.015625)"/>
      <use xlink:href="#DejaVuSans-6c" transform="translate(288.623047 0.015625)"/>
      <use xlink:href="#DejaVuSans-75" transform="translate(316.40625 0.015625)"/>
      <use xlink:href="#DejaVuSans-63" transform="translate(379.785156 0.015625)"/>
      <use xlink:href="#DejaVuSans-6f" transform="translate(434.765625 0.015625)"/>
      <use xlink:href="#DejaVuSans-73" transform="translate(495.947266 0.015625)"/>
      <use xlink:href="#DejaVuSans-65" transform="translate(548.046875 0.015625)"/>
      <use xlink:href="#DejaVuSans-20" transform="translate(609.570312 0.015625)"/>
      <use xlink:href="#DejaVuSans-63" transform="translate(641.357422 0.015625)"/>
      <use xlink:href="#DejaVuSans-6f" transform="translate(696.337891 0.015625)"/>
      <use xlink:href="#DejaVuSans-6e" transform="translate(757.519531 0.015625)"/>
      <use xlink:href="#DejaVuSans-63" transform="translate(820.898438 0.015625)"/>
      <use xlink:href="#DejaVuSans-2e" transform="translate(875.878906 0.015625)"/>
      <use xlink:href="#DejaVuSans-20" transform="translate(907.666016 0.015625)"/>
      <use xlink:href="#DejaVuSans-5b" transform="translate(939.453125 0.015625)"/>
      <use xlink:href="#DejaVuSans-Oblique-47" transform="translate(978.466797 0.015625)"/>
      <use xlink:href="#DejaVuSans-30" transform="translate(1055.957031 -16.390625) scale(0.7)"/>
      <use xlink:href="#DejaVuSans-5d" transform="translate(1103.227539 0.015625)"/>
      <use xlink:href="#DejaVuSans-20" transform="translate(1142.241211 0.015625)"/>
      <use xlink:href="#DejaVuSans-5b" transform="translate(1174.02832 0.015625)"/>
      <use xlink:href="#DejaVuSans-Oblique-3bc" transform="translate(1213.041992 0.015625)"/>
      <use xlink:href="#DejaVuSans-4d" transform="translate(1276.665039 0.015625)"/>
      <use xlink:href="#DejaVuSans-5d" transform="translate(1362.944336 0.015625)"/>
     </g>
    </g>
   </g>
   <g id="matplotlib.axis_2">
    <g id="ytick_1">
     <g id="line2d_9">
      <defs>
       <path id="mb206a711ba" d="M 0 0 
L -3.5 0 
" style="stroke: #000000; stroke-width: 0.8"/>
      </defs>
      <g>
       <use xlink:href="#mb206a711ba" x="52.823125" y="276.707478" style="stroke: #000000; stroke-width: 0.8"/>
      </g>
     </g>
     <g id="text_10">
      <!-- 0.1 -->
      <g transform="translate(29.92 280.506696) scale(0.1 -0.1)">
       <use xlink:href="#DejaVuSans-30"/>
       <use xlink:href="#DejaVuSans-2e" x="63.623047"/>
       <use xlink:href="#DejaVuSans-31" x="95.410156"/>
      </g>
     </g>
    </g>
    <g id="ytick_2">
     <g id="line2d_10">
      <g>
       <use xlink:href="#mb206a711ba" x="52.823125" y="231.728946" style="stroke: #000000; stroke-width: 0.8"/>
      </g>
     </g>
     <g id="text_11">
      <!-- 0.2 -->
      <g transform="translate(29.92 235.528164) scale(0.1 -0.1)">
       <use xlink:href="#DejaVuSans-30"/>
       <use xlink:href="#DejaVuSans-2e" x="63.623047"/>
       <use xlink:href="#DejaVuSans-32" x="95.410156"/>
      </g>
     </g>
    </g>
    <g id="ytick_3">
     <g id="line2d_11">
      <g>
       <use xlink:href="#mb206a711ba" x="52.823125" y="186.750414" style="stroke: #000000; stroke-width: 0.8"/>
      </g>
     </g>
     <g id="text_12">
      <!-- 0.3 -->
      <g transform="translate(29.92 190.549632) scale(0.1 -0.1)">
       <use xlink:href="#DejaVuSans-30"/>
       <use xlink:href="#DejaVuSans-2e" x="63.623047"/>
       <use xlink:href="#DejaVuSans-33" x="95.410156"/>
      </g>
     </g>
    </g>
    <g id="ytick_4">
     <g id="line2d_12">
      <g>
       <use xlink:href="#mb206a711ba" x="52.823125" y="141.771882" style="stroke: #000000; stroke-width: 0.8"/>
      </g>
     </g>
     <g id="text_13">
      <!-- 0.4 -->
      <g transform="translate(29.92 145.5711) scale(0.1 -0.1)">
       <use xlink:href="#DejaVuSans-30"/>
       <use xlink:href="#DejaVuSans-2e" x="63.623047"/>
       <use xlink:href="#DejaVuSans-34" x="95.410156"/>
      </g>
     </g>
    </g>
    <g id="ytick_5">
     <g id="line2d_13">
      <g>
       <use xlink:href="#mb206a711ba" x="52.823125" y="96.79335" style="stroke: #000000; stroke-width: 0.8"/>
      </g>
     </g>
     <g id="text_14">
      <!-- 0.5 -->
      <g transform="translate(29.92 100.592568) scale(0.1 -0.1)">
       <use xlink:href="#DejaVuSans-30"/>
       <use xlink:href="#DejaVuSans-2e" x="63.623047"/>
       <use xlink:href="#DejaVuSans-35" x="95.410156"/>
      </g>
     </g>
    </g>
    <g id="ytick_6">
     <g id="line2d_14">
      <g>
       <use xlink:href="#mb206a711ba" x="52.823125" y="51.814818" style="stroke: #000000; stroke-width: 0.8"/>
      </g>
     </g>
     <g id="text_15">
      <!-- 0.6 -->
      <g transform="translate(29.92 55.614036) scale(0.1 -0.1)">
       <defs>
        <path id="DejaVuSans-36" d="M 2113 2584 
Q 1688 2584 1439 2293 
Q 1191 2003 1191 1497 
Q 1191 994 1439 701 
Q 1688 409 2113 409 
Q 2538 409 2786 701 
Q 3034 994 3034 1497 
Q 3034 2003 2786 2293 
Q 2538 2584 2113 2584 
z
M 3366 4563 
L 3366 3988 
Q 3128 4100 2886 4159 
Q 2644 4219 2406 4219 
Q 1781 4219 1451 3797 
Q 1122 3375 1075 2522 
Q 1259 2794 1537 2939 
Q 1816 3084 2150 3084 
Q 2853 3084 3261 2657 
Q 3669 2231 3669 1497 
Q 3669 778 3244 343 
Q 2819 -91 2113 -91 
Q 1303 -91 875 529 
Q 447 1150 447 2328 
Q 447 3434 972 4092 
Q 1497 4750 2381 4750 
Q 2619 4750 2861 4703 
Q 3103 4656 3366 4563 
z
" transform="scale(0.015625)"/>
       </defs>
       <use xlink:href="#DejaVuSans-30"/>
       <use xlink:href="#DejaVuSans-2e" x="63.623047"/>
       <use xlink:href="#DejaVuSans-36" x="95.410156"/>
      </g>
     </g>
    </g>
    <g id="text_16">
     <!-- Growth rate $\kappa$ $[h^{-1}] $ -->
     <g transform="translate(22.176563 231.03) rotate(-90) scale(0.18 -0.18)">
      <defs>
       <path id="DejaVuSans-47" d="M 3809 666 
L 3809 1919 
L 2778 1919 
L 2778 2438 
L 4434 2438 
L 4434 434 
Q 4069 175 3628 42 
Q 3188 -91 2688 -91 
Q 1594 -91 976 548 
Q 359 1188 359 2328 
Q 359 3472 976 4111 
Q 1594 4750 2688 4750 
Q 3144 4750 3555 4637 
Q 3966 4525 4313 4306 
L 4313 3634 
Q 3963 3931 3569 4081 
Q 3175 4231 2741 4231 
Q 1884 4231 1454 3753 
Q 1025 3275 1025 2328 
Q 1025 1384 1454 906 
Q 1884 428 2741 428 
Q 3075 428 3337 486 
Q 3600 544 3809 666 
z
" transform="scale(0.015625)"/>
       <path id="DejaVuSans-72" d="M 2631 2963 
Q 2534 3019 2420 3045 
Q 2306 3072 2169 3072 
Q 1681 3072 1420 2755 
Q 1159 2438 1159 1844 
L 1159 0 
L 581 0 
L 581 3500 
L 1159 3500 
L 1159 2956 
Q 1341 3275 1631 3429 
Q 1922 3584 2338 3584 
Q 2397 3584 2469 3576 
Q 2541 3569 2628 3553 
L 2631 2963 
z
" transform="scale(0.015625)"/>
       <path id="DejaVuSans-77" d="M 269 3500 
L 844 3500 
L 1563 769 
L 2278 3500 
L 2956 3500 
L 3675 769 
L 4391 3500 
L 4966 3500 
L 4050 0 
L 3372 0 
L 2619 2869 
L 1863 0 
L 1184 0 
L 269 3500 
z
" transform="scale(0.015625)"/>
       <path id="DejaVuSans-68" d="M 3513 2113 
L 3513 0 
L 2938 0 
L 2938 2094 
Q 2938 2591 2744 2837 
Q 2550 3084 2163 3084 
Q 1697 3084 1428 2787 
Q 1159 2491 1159 1978 
L 1159 0 
L 581 0 
L 581 4863 
L 1159 4863 
L 1159 2956 
Q 1366 3272 1645 3428 
Q 1925 3584 2291 3584 
Q 2894 3584 3203 3211 
Q 3513 2838 3513 2113 
z
" transform="scale(0.015625)"/>
       <path id="DejaVuSans-61" d="M 2194 1759 
Q 1497 1759 1228 1600 
Q 959 1441 959 1056 
Q 959 750 1161 570 
Q 1363 391 1709 391 
Q 2188 391 2477 730 
Q 2766 1069 2766 1631 
L 2766 1759 
L 2194 1759 
z
M 3341 1997 
L 3341 0 
L 2766 0 
L 2766 531 
Q 2569 213 2275 61 
Q 1981 -91 1556 -91 
Q 1019 -91 701 211 
Q 384 513 384 1019 
Q 384 1609 779 1909 
Q 1175 2209 1959 2209 
L 2766 2209 
L 2766 2266 
Q 2766 2663 2505 2880 
Q 2244 3097 1772 3097 
Q 1472 3097 1187 3025 
Q 903 2953 641 2809 
L 641 3341 
Q 956 3463 1253 3523 
Q 1550 3584 1831 3584 
Q 2591 3584 2966 3190 
Q 3341 2797 3341 1997 
z
" transform="scale(0.015625)"/>
       <path id="DejaVuSans-Oblique-3ba" d="M 938 3500 
L 1531 3500 
L 1247 2047 
L 3041 3500 
L 3741 3500 
L 2106 2181 
L 3275 0 
L 2572 0 
L 1628 1806 
L 1122 1403 
L 850 0 
L 256 0 
L 938 3500 
z
" transform="scale(0.015625)"/>
       <path id="DejaVuSans-Oblique-68" d="M 3566 2113 
L 3156 0 
L 2578 0 
L 2988 2091 
Q 3016 2238 3031 2350 
Q 3047 2463 3047 2528 
Q 3047 2791 2881 2937 
Q 2716 3084 2419 3084 
Q 1956 3084 1617 2771 
Q 1278 2459 1178 1941 
L 800 0 
L 225 0 
L 1172 4863 
L 1747 4863 
L 1375 2950 
Q 1594 3244 1934 3414 
Q 2275 3584 2650 3584 
Q 3113 3584 3367 3334 
Q 3622 3084 3622 2631 
Q 3622 2519 3608 2391 
Q 3594 2263 3566 2113 
z
" transform="scale(0.015625)"/>
       <path id="DejaVuSans-2212" d="M 678 2272 
L 4684 2272 
L 4684 1741 
L 678 1741 
L 678 2272 
z
" transform="scale(0.015625)"/>
      </defs>
      <use xlink:href="#DejaVuSans-47" transform="translate(0 0.684375)"/>
      <use xlink:href="#DejaVuSans-72" transform="translate(77.490234 0.684375)"/>
      <use xlink:href="#DejaVuSans-6f" transform="translate(118.603516 0.684375)"/>
      <use xlink:href="#DejaVuSans-77" transform="translate(179.785156 0.684375)"/>
      <use xlink:href="#DejaVuSans-74" transform="translate(261.572266 0.684375)"/>
      <use xlink:href="#DejaVuSans-68" transform="translate(300.78125 0.684375)"/>
      <use xlink:href="#DejaVuSans-20" transform="translate(364.160156 0.684375)"/>
      <use xlink:href="#DejaVuSans-72" transform="translate(395.947266 0.684375)"/>
      <use xlink:href="#DejaVuSans-61" transform="translate(437.060547 0.684375)"/>
      <use xlink:href="#DejaVuSans-74" transform="translate(498.339844 0.684375)"/>
      <use xlink:href="#DejaVuSans-65" transform="translate(537.548828 0.684375)"/>
      <use xlink:href="#DejaVuSans-20" transform="translate(599.072266 0.684375)"/>
      <use xlink:href="#DejaVuSans-Oblique-3ba" transform="translate(630.859375 0.684375)"/>
      <use xlink:href="#DejaVuSans-20" transform="translate(689.794922 0.684375)"/>
      <use xlink:href="#DejaVuSans-5b" transform="translate(721.582031 0.684375)"/>
      <use xlink:href="#DejaVuSans-Oblique-68" transform="translate(760.595703 0.684375)"/>
      <use xlink:href="#DejaVuSans-2212" transform="translate(831.422318 38.965625) scale(0.7)"/>
      <use xlink:href="#DejaVuSans-31" transform="translate(890.074661 38.965625) scale(0.7)"/>
      <use xlink:href="#DejaVuSans-5d" transform="translate(937.345169 0.684375)"/>
     </g>
    </g>
   </g>
   <g id="line2d_15">
    <path d="M 52.823125 266.645455 
L 55.614241 254.449196 
L 58.740292 241.88436 
L 62.201276 229.163875 
L 66.220484 215.789839 
L 71.132849 201.136778 
L 77.719884 183.947178 
L 79.171264 180.502389 
L 80.399355 177.632164 
L 81.627447 174.892608 
L 82.855538 172.17877 
L 83.971985 169.746737 
L 84.976786 167.683527 
L 86.204878 165.111006 
L 87.098035 163.342121 
L 88.326126 160.882986 
L 89.219283 159.195844 
L 90.447375 156.844001 
L 91.117243 155.633698 
L 92.122045 153.763721 
L 92.791913 152.597097 
L 93.908359 150.571249 
L 94.578227 149.449099 
L 95.694674 147.493656 
L 96.252897 146.562327 
L 97.257699 144.875696 
L 97.815922 143.973701 
L 98.932369 142.137762 
L 99.378947 141.464632 
L 100.495394 139.683258 
L 100.941973 139.03222 
L 102.170064 137.113248 
L 102.504998 136.60917 
L 103.621444 134.930527 
L 104.068023 134.321128 
L 105.18447 132.691419 
L 106.189271 131.273333 
L 107.194073 129.815286 
L 107.529007 129.357267 
L 108.422165 128.105049 
L 108.868743 127.55398 
L 109.873545 126.163056 
L 110.208479 125.727499 
L 111.101636 124.533559 
L 111.43657 124.107836 
L 112.329728 122.939408 
L 112.664662 122.523262 
L 113.557819 121.379681 
L 113.892753 120.972864 
L 114.78591 119.853488 
L 115.120844 119.455761 
L 116.125646 118.20647 
L 116.348935 117.971101 
L 117.353737 116.747513 
L 117.577027 116.518062 
L 118.693473 115.17162 
L 118.916762 114.948434 
L 120.033209 113.631294 
L 120.256498 113.414206 
L 121.48459 111.983393 
L 121.707879 111.772709 
L 122.824325 110.514001 
L 123.047615 110.309085 
L 124.275706 108.940555 
L 124.498995 108.741698 
L 125.838731 107.270264 
L 126.062021 107.077728 
L 127.290112 105.772482 
L 127.513401 105.585662 
L 128.853137 104.181064 
L 129.076426 104.00021 
L 130.416162 102.628711 
L 130.639452 102.453648 
L 131.979187 101.114275 
L 132.202477 100.944837 
L 133.430568 99.757542 
L 134.547015 98.711241 
L 135.551816 97.800375 
L 136.444974 96.941925 
L 136.668263 96.787657 
L 137.673065 95.828026 
L 137.896354 95.677706 
L 138.789512 94.847269 
L 139.012801 94.700476 
L 140.017603 93.771604 
L 140.240892 93.628599 
L 141.245694 92.715298 
L 141.468983 92.575999 
L 142.473785 91.677931 
L 142.697075 91.54226 
L 143.701877 90.659097 
L 143.925166 90.526977 
L 144.929968 89.6584 
L 145.153257 89.529757 
L 146.269704 88.572225 
L 146.492993 88.447284 
L 147.60944 87.50656 
L 147.832729 87.385237 
L 148.949175 86.460937 
L 149.172465 86.343152 
L 150.288911 85.434905 
L 150.512201 85.320579 
L 151.628647 84.428024 
L 151.851937 84.317082 
L 153.080028 83.34454 
L 153.303317 83.237173 
L 154.419764 82.376148 
L 154.643053 82.272014 
L 155.871144 81.333289 
L 156.094434 81.232571 
L 157.434169 80.220059 
L 157.657459 80.122925 
L 158.88555 79.218922 
L 159.108839 79.125044 
L 160.448575 78.149427 
L 160.671864 78.058967 
L 162.0116 77.101764 
L 162.23489 77.014638 
L 163.574626 76.075397 
L 163.797915 75.991527 
L 165.137651 75.069809 
L 165.36094 74.989117 
L 166.812321 74.002576 
L 167.03561 73.9252 
L 168.486991 72.957921 
L 168.71028 72.883779 
L 170.16166 71.935271 
L 170.38495 71.864283 
L 171.947975 70.856443 
L 172.171264 70.788729 
L 173.734289 69.801275 
L 173.957579 69.73675 
L 175.520604 68.769142 
L 175.743893 68.707725 
L 177.306919 67.759444 
L 177.530208 67.701055 
L 179.204878 66.699483 
L 179.428167 66.644224 
L 181.102837 65.66343 
L 181.326126 65.611217 
L 183.000796 64.650637 
L 183.224085 64.601391 
L 185.0104 63.592367 
L 185.233689 63.546175 
L 187.020004 62.558679 
L 187.243293 62.515458 
L 189.141252 61.48342 
L 189.364542 61.443244 
L 191.262501 60.433933 
L 191.48579 60.396717 
L 193.383749 59.409479 
L 193.607039 59.375139 
L 195.504998 58.409342 
L 195.728287 58.3778 
L 197.849536 57.312027 
L 198.072825 57.283482 
L 200.082429 56.301638 
L 200.305718 56.275867 
L 202.426967 55.257884 
L 202.650256 55.234939 
L 204.771504 54.240323 
L 204.994794 54.220122 
L 207.227687 53.192647 
L 207.450976 53.175233 
L 209.795514 52.117625 
L 210.018803 52.103032 
L 212.363341 51.071049 
L 212.58663 51.059191 
L 214.931168 50.052018 
L 215.154458 50.042811 
L 217.61064 49.008858 
L 217.833929 49.00233 
L 220.401756 47.944102 
L 220.625046 47.940274 
L 223.192873 46.908702 
L 223.416162 46.907487 
L 225.983989 45.90169 
L 226.207279 45.903004 
L 228.998395 44.82951 
L 229.221684 44.833465 
L 232.012801 43.788129 
L 232.23609 43.794635 
L 235.027207 42.776487 
L 235.250496 42.78546 
L 238.264902 41.707435 
L 238.488191 41.718966 
L 241.502597 40.67022 
L 241.725886 40.684221 
L 244.851937 39.62276 
L 245.075226 39.639225 
L 248.201276 38.60691 
L 248.424566 38.625754 
L 251.773905 37.543703 
L 251.997195 37.564992 
L 255.346534 36.513759 
L 255.569824 36.537405 
L 259.030808 35.478922 
L 259.254097 35.504908 
L 262.826726 34.440861 
L 263.050016 34.46917 
L 266.734289 33.401172 
L 266.957579 33.431781 
L 270.865142 32.327382 
L 271.088431 32.360328 
L 274.995994 31.289842 
L 275.219283 31.325034 
L 279.126846 30.28709 
L 281.35974 29.750804 
L 281.583029 29.789286 
L 285.490592 28.798928 
L 288.170064 28.167949 
L 288.393353 28.209743 
L 292.189271 27.296608 
L 295.203677 26.610061 
L 295.426967 26.655065 
L 299.222885 25.786785 
L 302.572225 25.051812 
L 302.795514 25.09997 
L 306.591432 24.275614 
L 310.275706 23.49899 
L 310.498995 23.550236 
L 314.294914 22.768741 
L 318.090832 22.007186 
L 321.216883 21.413017 
L 321.440172 21.468316 
L 325.23609 20.742843 
L 328.920364 20.059153 
L 331.823125 19.554545 
L 331.823125 19.554545 
" clip-path="url(#p7ff3325530)" style="fill: none; stroke: #000000; stroke-width: 1.5; stroke-linecap: square"/>
   </g>
   <g id="patch_3">
    <path d="M 52.823125 279 
L 52.823125 7.2 
" style="fill: none; stroke: #000000; stroke-width: 0.8; stroke-linejoin: miter; stroke-linecap: square"/>
   </g>
   <g id="patch_4">
    <path d="M 331.823125 279 
L 331.823125 7.2 
" style="fill: none; stroke: #000000; stroke-width: 0.8; stroke-linejoin: miter; stroke-linecap: square"/>
   </g>
   <g id="patch_5">
    <path d="M 52.823125 279 
L 331.823125 279 
" style="fill: none; stroke: #000000; stroke-width: 0.8; stroke-linejoin: miter; stroke-linecap: square"/>
   </g>
   <g id="patch_6">
    <path d="M 52.823125 7.2 
L 331.823125 7.2 
" style="fill: none; stroke: #000000; stroke-width: 0.8; stroke-linejoin: miter; stroke-linecap: square"/>
   </g>
  </g>
 </g>
 <defs>
  <clipPath id="p7ff3325530">
   <rect x="52.823125" y="7.2" width="279" height="271.8"/>
  </clipPath>
 </defs>
</svg>
