<?xml version="1.0" encoding="utf-8" standalone="no"?>
<!DOCTYPE svg PUBLIC "-//W3C//DTD SVG 1.1//EN"
  "http://www.w3.org/Graphics/SVG/1.1/DTD/svg11.dtd">
<svg xmlns:xlink="http://www.w3.org/1999/xlink" width="340.904375pt" height="326.27375pt" viewBox="0 0 340.904375 326.27375" xmlns="http://www.w3.org/2000/svg" version="1.1">
 <metadata>
  <rdf:RDF xmlns:dc="http://purl.org/dc/elements/1.1/" xmlns:cc="http://creativecommons.org/ns#" xmlns:rdf="http://www.w3.org/1999/02/22-rdf-syntax-ns#">
   <cc:Work>
    <dc:type rdf:resource="http://purl.org/dc/dcmitype/StillImage"/>
    <dc:date>2026-08-01T21:47:31.118234</dc:date>
    <dc:format>image/svg+xml</dc:format>
    <dc:creator>
     <cc:Agent>
      <dc:title>Matplotlib v3.8.0, https://matplotlib.org/</dc:title>
     </cc:Agent>
    </dc:creator>
   </cc:Work>
  </rdf:RDF>
 </metadata>
 <defs>
  <style type="text/css">*{stroke-linejoin: round; stroke-linecap: butt}</style>
 </defs>
 <g id="figure_1">
  <g id="patch_1">
   <path d="M 0 326.27375 
L 340.904375 326.27375 
L 340.904375 0 
L 0 0 
z
" style="fill: #ffffff"/>
  </g>
  <g id="axes_1">
   <g id="patch_2">
    <path d="M 54.704375 279 
L 333.704375 279 
L 333.704375 7.2 
L 54.704375 7.2 
z
" style="fill: #ffffff"/>
   </g>
   <g id="matplotlib.axis_1">
    <g id="xtick_1">
     <g id="line2d_1">
      <defs>
       <path id="medd24e8d50" d="M 0 0 
L 0 3.5 
" style="stroke: #000000; stroke-width: 0.8"/>
      </defs>
      <g>
       <use xlink:href="#medd24e8d50" x="78.083068" y="279" style="stroke: #000000; stroke-width: 0.8"/>
      </g>
     </g>
     <g id="text_1">
      <!-- 5 -->
      <g transform="translate(74.265568 295.118125) scale(0.12 -0.12)">
       <defs>
        <path id="DejaVuSans-35" d="M 691 4666 
L 3169 4666 
L 3169 4134 
L 1269 4134 
L 1269 2991 
Q 1406 3038 1543 3061 
Q 1681 3084 1819 3084 
Q 2600 3084 3056 2656 
Q 3513 2228 3513 1497 
Q 3513 744 3044 326 
Q 2575 -91 1722 -91 
Q 1428 -91 1123 -41 
Q 819 9 494 109 
L 494 744 
Q 775 591 1075 516 
Q 1375 441 1709 441 
Q 2250 441 2565 725 
Q 2881 1009 2881 1497 
Q 2881 1984 2565 2268 
Q 2250 2553 1709 2553 
Q 1456 2553 1204 2497 
Q 953 2441 691 2322 
L 691 4666 
z
" transform="scale(0.015625)"/>
       </defs>
       <use xlink:href="#DejaVuSans-35"/>
      </g>
     </g>
    </g>
    <g id="xtick_2">
     <g id="line2d_2">
      <g>
       <use xlink:href="#medd24e8d50" x="113.086761" y="279" style="stroke: #000000; stroke-width: 0.8"/>
      </g>
     </g>
     <g id="text_2">
      <!-- 10 -->
      <g transform="translate(105.451761 295.118125) scale(0.12 -0.12)">
       <defs>
        <path id="DejaVuSans-31" d="M 794 531 
L 1825 531 
L 1825 4091 
L 703 3866 
L 703 4441 
L 1819 4666 
L 2450 4666 
L 2450 531 
L 3481 531 
L 3481 0 
L 794 0 
L 794 531 
z
" transform="scale(0.015625)"/>
        <path id="DejaVuSans-30" d="M 2034 4250 
Q 1547 4250 1301 3770 
Q 1056 3291 1056 2328 
Q 1056 1369 1301 889 
Q 1547 409 2034 409 
Q 2525 409 2770 889 
Q 3016 1369 3016 2328 
Q 3016 3291 2770 3770 
Q 2525 4250 2034 4250 
z
M 2034 4750 
Q 2819 4750 3233 4129 
Q 3647 3509 3647 2328 
Q 3647 1150 3233 529 
Q 2819 -91 2034 -91 
Q 1250 -91 836 529 
Q 422 1150 422 2328 
Q 422 3509 836 4129 
Q 1250 4750 2034 4750 
z
" transform="scale(0.015625)"/>
       </defs>
       <use xlink:href="#DejaVuSans-31"/>
       <use xlink:href="#DejaVuSans-30" x="63.623047"/>
      </g>
     </g>
    </g>
    <g id="xtick_3">
     <g id="line2d_3">
      <g>
       <use xlink:href="#medd24e8d50" x="148.090455" y="279" style="stroke: #000000; stroke-width: 0.8"/>
      </g>
     </g>
     <g id="text_3">
      <!-- 15 -->
      <g transform="translate(140.455455 295.118125) scale(0.12 -0.12)">
       <use xlink:href="#DejaVuSans-31"/>
       <use xlink:href="#DejaVuSans-35" x="63.623047"/>
      </g>
     </g>
    </g>
    <g id="xtick_4">
     <g id="line2d_4">
      <g>
       <use xlink:href="#medd24e8d50" x="183.094148" y="279" style="stroke: #000000; stroke-width: 0.8"/>
      </g>
     </g>
     <g id="text_4">
      <!-- 20 -->
      <g transform="translate(175.459148 295.118125) scale(0.12 -0.12)">
       <defs>
        <path id="DejaVuSans-32" d="M 1228 531 
L 3431 531 
L 3431 0 
L 469 0 
L 469 531 
Q 828 903 1448 1529 
Q 2069 2156 2228 2338 
Q 2531 2678 2651 2914 
Q 2772 3150 2772 3378 
Q 2772 3750 2511 3984 
Q 2250 4219 1831 4219 
Q 1534 4219 1204 4116 
Q 875 4013 500 3803 
L 500 4441 
Q 881 4594 1212 4672 
Q 1544 4750 1819 4750 
Q 2544 4750 2975 4387 
Q 3406 4025 3406 3419 
Q 3406 3131 3298 2873 
Q 3191 2616 2906 2266 
Q 2828 2175 2409 1742 
Q 1991 1309 1228 531 
z
" transform="scale(0.015625)"/>
       </defs>
       <use xlink:href="#DejaVuSans-32"/>
       <use xlink:href="#DejaVuSans-30" x="63.623047"/>
      </g>
     </g>
    </g>
    <g id="xtick_5">
     <g id="line2d_5">
      <g>
       <use xlink:href="#medd24e8d50" x="218.097841" y="279" style="stroke: #000000; stroke-width: 0.8"/>
      </g>
     </g>
     <g id="text_5">
      <!-- 25 -->
      <g transform="translate(210.462841 295.118125) scale(0.12 -0.12)">
       <use xlink:href="#DejaVuSans-32"/>
       <use xlink:href="#DejaVuSans-35" x="63.623047"/>
      </g>
     </g>
    </g>
    <g id="xtick_6">
     <g id="line2d_6">
      <g>
       <use xlink:href="#medd24e8d50" x="253.101534" y="279" style="stroke: #000000; stroke-width: 0.8"/>
      </g>
     </g>
     <g id="text_6">
      <!-- 30 -->
      <g transform="translate(245.466534 295.118125) scale(0.12 -0.12)">
       <defs>
        <path id="DejaVuSans-33" d="M 2597 2516 
Q 3050 2419 3304 2112 
Q 3559 1806 3559 1356 
Q 3559 666 3084 287 
Q 2609 -91 1734 -91 
Q 1441 -91 1130 -33 
Q 819 25 488 141 
L 488 750 
Q 750 597 1062 519 
Q 1375 441 1716 441 
Q 2309 441 2620 675 
Q 2931 909 2931 1356 
Q 2931 1769 2642 2001 
Q 2353 2234 1838 2234 
L 1294 2234 
L 1294 2753 
L 1863 2753 
Q 2328 2753 2575 2939 
Q 2822 3125 2822 3475 
Q 2822 3834 2567 4026 
Q 2313 4219 1838 4219 
Q 1578 4219 1281 4162 
Q 984 4106 628 3988 
L 628 4550 
Q 988 4650 1302 4700 
Q 1616 4750 1894 4750 
Q 2613 4750 3031 4423 
Q 3450 4097 3450 3541 
Q 3450 3153 3228 2886 
Q 3006 2619 2597 2516 
z
" transform="scale(0.015625)"/>
       </defs>
       <use xlink:href="#DejaVuSans-33"/>
       <use xlink:href="#DejaVuSans-30" x="63.623047"/>
      </g>
     </g>
    </g>
    <g id="xtick_7">
     <g id="line2d_7">
      <g>
       <use xlink:href="#medd24e8d50" x="288.105227" y="279" style="stroke: #000000; stroke-width: 0.8"/>
      </g>
     </g>
     <g id="text_7">
      <!-- 35 -->
      <g transform="translate(280.470227 295.118125) scale(0.12 -0.12)">
       <use xlink:href="#DejaVuSans-33"/>
       <use xlink:href="#DejaVuSans-35" x="63.623047"/>
      </g>
     </g>
    </g>
    <g id="xtick_8">
     <g id="line2d_8">
      <g>
       <use xlink:href="#medd24e8d50" x="323.10892" y="279" style="stroke: #000000; stroke-width: 0.8"/>
      </g>
     </g>
     <g id="text_8">
      <!-- 40 -->
      <g transform="translate(315.47392 295.118125) scale(0.12 -0.12)">
       <defs>
        <path id="DejaVuSans-34" d="M 2419 4116 
L 825 1625 
L 2419 1625 
L 2419 4116 
z
M 2253 4666 
L 3047 4666 
L 3047 1625 
L 3713 1625 
L 3713 1100 
L 3047 1100 
L 3047 0 
L 2419 0 
L 2419 1100 
L 313 1100 
L 313 1709 
L 2253 4666 
z
" transform="scale(0.015625)"/>
       </defs>
       <use xlink:href="#DejaVuSans-34"/>
       <use xlink:href="#DejaVuSans-30" x="63.623047"/>
      </g>
     </g>
    </g>
    <g id="text_9">
     <!-- Ext. glucose conc. $[G_0]$ [$\mu$M] -->
     <g transform="translate(68.024375 315.29375) scale(0.18 -0.18)">
      <defs>
       <path id="DejaVuSans-45" d="M 628 4666 
L 3578 4666 
L 3578 4134 
L 1259 4134 
L 1259 2753 
L 3481 2753 
L 3481 2222 
L 1259 2222 
L 1259 531 
L 3634 531 
L 3634 0 
L 628 0 
L 628 4666 
z
" transform="scale(0.015625)"/>
       <path id="DejaVuSans-78" d="M 3513 3500 
L 2247 1797 
L 3578 0 
L 2900 0 
L 1881 1375 
L 863 0 
L 184 0 
L 1544 1831 
L 300 3500 
L 978 3500 
L 1906 2253 
L 2834 3500 
L 3513 3500 
z
" transform="scale(0.015625)"/>
       <path id="DejaVuSans-74" d="M 1172 4494 
L 1172 3500 
L 2356 3500 
L 2356 3053 
L 1172 3053 
L 1172 1153 
Q 1172 725 1289 603 
Q 1406 481 1766 481 
L 2356 481 
L 2356 0 
L 1766 0 
Q 1100 0 847 248 
Q 594 497 594 1153 
L 594 3053 
L 172 3053 
L 172 3500 
L 594 3500 
L 594 4494 
L 1172 4494 
z
" transform="scale(0.015625)"/>
       <path id="DejaVuSans-2e" d="M 684 794 
L 1344 794 
L 1344 0 
L 684 0 
L 684 794 
z
" transform="scale(0.015625)"/>
       <path id="DejaVuSans-20" transform="scale(0.015625)"/>
       <path id="DejaVuSans-67" d="M 2906 1791 
Q 2906 2416 2648 2759 
Q 2391 3103 1925 3103 
Q 1463 3103 1205 2759 
Q 947 2416 947 1791 
Q 947 1169 1205 825 
Q 1463 481 1925 481 
Q 2391 481 2648 825 
Q 2906 1169 2906 1791 
z
M 3481 434 
Q 3481 -459 3084 -895 
Q 2688 -1331 1869 -1331 
Q 1566 -1331 1297 -1286 
Q 1028 -1241 775 -1147 
L 775 -588 
Q 1028 -725 1275 -790 
Q 1522 -856 1778 -856 
Q 2344 -856 2625 -561 
Q 2906 -266 2906 331 
L 2906 616 
Q 2728 306 2450 153 
Q 2172 0 1784 0 
Q 1141 0 747 490 
Q 353 981 353 1791 
Q 353 2603 747 3093 
Q 1141 3584 1784 3584 
Q 2172 3584 2450 3431 
Q 2728 3278 2906 2969 
L 2906 3500 
L 3481 3500 
L 3481 434 
z
" transform="scale(0.015625)"/>
       <path id="DejaVuSans-6c" d="M 603 4863 
L 1178 4863 
L 1178 0 
L 603 0 
L 603 4863 
z
" transform="scale(0.015625)"/>
       <path id="DejaVuSans-75" d="M 544 1381 
L 544 3500 
L 1119 3500 
L 1119 1403 
Q 1119 906 1312 657 
Q 1506 409 1894 409 
Q 2359 409 2629 706 
Q 2900 1003 2900 1516 
L 2900 3500 
L 3475 3500 
L 3475 0 
L 2900 0 
L 2900 538 
Q 2691 219 2414 64 
Q 2138 -91 1772 -91 
Q 1169 -91 856 284 
Q 544 659 544 1381 
z
M 1991 3584 
L 1991 3584 
z
" transform="scale(0.015625)"/>
       <path id="DejaVuSans-63" d="M 3122 3366 
L 3122 2828 
Q 2878 2963 2633 3030 
Q 2388 3097 2138 3097 
Q 1578 3097 1268 2742 
Q 959 2388 959 1747 
Q 959 1106 1268 751 
Q 1578 397 2138 397 
Q 2388 397 2633 464 
Q 2878 531 3122 666 
L 3122 134 
Q 2881 22 2623 -34 
Q 2366 -91 2075 -91 
Q 1284 -91 818 406 
Q 353 903 353 1747 
Q 353 2603 823 3093 
Q 1294 3584 2113 3584 
Q 2378 3584 2631 3529 
Q 2884 3475 3122 3366 
z
" transform="scale(0.015625)"/>
       <path id="DejaVuSans-6f" d="M 1959 3097 
Q 1497 3097 1228 2736 
Q 959 2375 959 1747 
Q 959 1119 1226 758 
Q 1494 397 1959 397 
Q 2419 397 2687 759 
Q 2956 1122 2956 1747 
Q 2956 2369 2687 2733 
Q 2419 3097 1959 3097 
z
M 1959 3584 
Q 2709 3584 3137 3096 
Q 3566 2609 3566 1747 
Q 3566 888 3137 398 
Q 2709 -91 1959 -91 
Q 1206 -91 779 398 
Q 353 888 353 1747 
Q 353 2609 779 3096 
Q 1206 3584 1959 3584 
z
" transform="scale(0.015625)"/>
       <path id="DejaVuSans-73" d="M 2834 3397 
L 2834 2853 
Q 2591 2978 2328 3040 
Q 2066 3103 1784 3103 
Q 1356 3103 1142 2972 
Q 928 2841 928 2578 
Q 928 2378 1081 2264 
Q 1234 2150 1697 2047 
L 1894 2003 
Q 2506 1872 2764 1633 
Q 3022 1394 3022 966 
Q 3022 478 2636 193 
Q 2250 -91 1575 -91 
Q 1294 -91 989 -36 
Q 684 19 347 128 
L 347 722 
Q 666 556 975 473 
Q 1284 391 1588 391 
Q 1994 391 2212 530 
Q 2431 669 2431 922 
Q 2431 1156 2273 1281 
Q 2116 1406 1581 1522 
L 1381 1569 
Q 847 1681 609 1914 
Q 372 2147 372 2553 
Q 372 3047 722 3315 
Q 1072 3584 1716 3584 
Q 2034 3584 2315 3537 
Q 2597 3491 2834 3397 
z
" transform="scale(0.015625)"/>
       <path id="DejaVuSans-65" d="M 3597 1894 
L 3597 1613 
L 953 1613 
Q 991 1019 1311 708 
Q 1631 397 2203 397 
Q 2534 397 2845 478 
Q 3156 559 3463 722 
L 3463 178 
Q 3153 47 2828 -22 
Q 2503 -91 2169 -91 
Q 1331 -91 842 396 
Q 353 884 353 1716 
Q 353 2575 817 3079 
Q 1281 3584 2069 3584 
Q 2775 3584 3186 3129 
Q 3597 2675 3597 1894 
z
M 3022 2063 
Q 3016 2534 2758 2815 
Q 2500 3097 2075 3097 
Q 1594 3097 1305 2825 
Q 1016 2553 972 2059 
L 3022 2063 
z
" transform="scale(0.015625)"/>
       <path id="DejaVuSans-6e" d="M 3513 2113 
L 3513 0 
L 2938 0 
L 2938 2094 
Q 2938 2591 2744 2837 
Q 2550 3084 2163 3084 
Q 1697 3084 1428 2787 
Q 1159 2491 1159 1978 
L 1159 0 
L 581 0 
L 581 3500 
L 1159 3500 
L 1159 2956 
Q 1366 3272 1645 3428 
Q 1925 3584 2291 3584 
Q 2894 3584 3203 3211 
Q 3513 2838 3513 2113 
z
" transform="scale(0.015625)"/>
       <path id="DejaVuSans-5b" d="M 550 4863 
L 1875 4863 
L 1875 4416 
L 1125 4416 
L 1125 -397 
L 1875 -397 
L 1875 -844 
L 550 -844 
L 550 4863 
z
" transform="scale(0.015625)"/>
       <path id="DejaVuSans-Oblique-47" d="M 3494 697 
L 3738 1919 
L 2700 1919 
L 2797 2438 
L 4453 2438 
L 4050 384 
Q 3634 156 3143 32 
Q 2653 -91 2156 -91 
Q 1278 -91 783 396 
Q 288 884 288 1753 
Q 288 2475 589 3126 
Q 891 3778 1422 4213 
Q 1756 4484 2153 4617 
Q 2550 4750 3034 4750 
Q 3472 4750 3873 4639 
Q 4275 4528 4641 4306 
L 4513 3634 
Q 4231 3928 3853 4083 
Q 3475 4238 3047 4238 
Q 2550 4238 2172 4048 
Q 1794 3859 1497 3463 
Q 1244 3125 1098 2667 
Q 953 2209 953 1734 
Q 953 1081 1287 751 
Q 1622 422 2284 422 
Q 2616 422 2925 492 
Q 3234 563 3494 697 
z
" transform="scale(0.015625)"/>
       <path id="DejaVuSans-5d" d="M 1947 4863 
L 1947 -844 
L 622 -844 
L 622 -397 
L 1369 -397 
L 1369 4416 
L 622 4416 
L 622 4863 
L 1947 4863 
z
" transform="scale(0.015625)"/>
       <path id="DejaVuSans-Oblique-3bc" d="M -84 -1331 
L 856 3500 
L 1434 3500 
L 1009 1322 
Q 997 1256 987 1175 
Q 978 1094 978 1013 
Q 978 722 1161 565 
Q 1344 409 1684 409 
Q 2147 409 2431 671 
Q 2716 934 2816 1459 
L 3213 3500 
L 3788 3500 
L 3266 809 
Q 3253 750 3248 706 
Q 3244 663 3244 628 
Q 3244 531 3283 486 
Q 3322 441 3406 441 
Q 3438 441 3492 456 
Q 3547 472 3647 513 
L 3559 50 
Q 3422 -19 3297 -55 
Q 3172 -91 3053 -91 
Q 2847 -91 2730 40 
Q 2613 172 2613 403 
Q 2438 153 2195 31 
Q 1953 -91 1625 -91 
Q 1334 -91 1117 43 
Q 900 178 831 397 
L 494 -1331 
L -84 -1331 
z
" transform="scale(0.015625)"/>
       <path id="DejaVuSans-4d" d="M 628 4666 
L 1569 4666 
L 2759 1491 
L 3956 4666 
L 4897 4666 
L 4897 0 
L 4281 0 
L 4281 4097 
L 3078 897 
L 2444 897 
L 1241 4097 
L 1241 0 
L 628 0 
L 628 4666 
z
" transform="scale(0.015625)"/>
      </defs>
      <use xlink:href="#DejaVuSans-45" transform="translate(0 0.015625)"/>
      <use xlink:href="#DejaVuSans-78" transform="translate(63.183594 0.015625)"/>
      <use xlink:href="#DejaVuSans-74" transform="translate(122.363281 0.015625)"/>
      <use xlink:href="#DejaVuSans-2e" transform="translate(161.572266 0.015625)"/>
      <use xlink:href="#DejaVuSans-20" transform="translate(193.359375 0.015625)"/>
      <use xlink:href="#DejaVuSans-67" transform="translate(225.146484 0.015625)"/>
      <use xlink:href="#DejaVuSans-6c" transform="translate(288.623047 0.015625)"/>
      <use xlink:href="#DejaVuSans-75" transform="translate(316.40625 0.015625)"/>
      <use xlink:href="#DejaVuSans-63" transform="translate(379.785156 0.015625)"/>
      <use xlink:href="#DejaVuSans-6f" transform="translate(434.765625 0.015625)"/>
      <use xlink:href="#DejaVuSans-73" transform="translate(495.947266 0.015625)"/>
      <use xlink:href="#DejaVuSans-65" transform="translate(548.046875 0.015625)"/>
      <use xlink:href="#DejaVuSans-20" transform="translate(609.570312 0.015625)"/>
      <use xlink:href="#DejaVuSans-63" transform="translate(641.357422 0.015625)"/>
      <use xlink:href="#DejaVuSans-6f" transform="translate(696.337891 0.015625)"/>
      <use xlink:href="#DejaVuSans-6e" transform="translate(757.519531 0.015625)"/>
      <use xlink:href="#DejaVuSans-63" transform="translate(820.898438 0.015625)"/>
      <use xlink:href="#DejaVuSans-2e" transform="translate(875.878906 0.015625)"/>
      <use xlink:href="#DejaVuSans-20" transform="translate(907.666016 0.015625)"/>
      <use xlink:href="#DejaVuSans-5b" transform="translate(939.453125 0.015625)"/>
      <use xlink:href="#DejaVuSans-Oblique-47" transform="translate(978.466797 0.015625)"/>
      <use xlink:href="#DejaVuSans-30" transform="translate(1055.957031 -16.390625) scale(0.7)"/>
      <use xlink:href="#DejaVuSans-5d" transform="translate(1103.227539 0.015625)"/>
      <use xlink:href="#DejaVuSans-20" transform="translate(1142.241211 0.015625)"/>
      <use xlink:href="#DejaVuSans-5b" transform="translate(1174.02832 0.015625)"/>
      <use xlink:href="#DejaVuSans-Oblique-3bc" transform="translate(1213.041992 0.015625)"/>
      <use xlink:href="#DejaVuSans-4d" transform="translate(1276.665039 0.015625)"/>
      <use xlink:href="#DejaVuSans-5d" transform="translate(1362.944336 0.015625)"/>
     </g>
    </g>
   </g>
   <g id="matplotlib.axis_2">
    <g id="ytick_1">
     <g id="line2d_9">
      <defs>
       <path id="ma6c9b339cb" d="M 0 0 
L -3.5 0 
" style="stroke: #000000; stroke-width: 0.8"/>
      </defs>
      <g>
       <use xlink:href="#ma6c9b339cb" x="54.704375" y="271.060768" style="stroke: #000000; stroke-width: 0.8"/>
      </g>
     </g>
     <g id="text_10">
      <!-- 0.0 -->
      <g transform="translate(28.620625 275.619831) scale(0.12 -0.12)">
       <use xlink:href="#DejaVuSans-30"/>
       <use xlink:href="#DejaVuSans-2e" x="63.623047"/>
       <use xlink:href="#DejaVuSans-30" x="95.410156"/>
      </g>
     </g>
    </g>
    <g id="ytick_2">
     <g id="line2d_10">
      <g>
       <use xlink:href="#ma6c9b339cb" x="54.704375" y="231.326432" style="stroke: #000000; stroke-width: 0.8"/>
      </g>
     </g>
     <g id="text_11">
      <!-- 0.1 -->
      <g transform="translate(28.620625 235.885495) scale(0.12 -0.12)">
       <use xlink:href="#DejaVuSans-30"/>
       <use xlink:href="#DejaVuSans-2e" x="63.623047"/>
       <use xlink:href="#DejaVuSans-31" x="95.410156"/>
      </g>
     </g>
    </g>
    <g id="ytick_3">
     <g id="line2d_11">
      <g>
       <use xlink:href="#ma6c9b339cb" x="54.704375" y="191.592097" style="stroke: #000000; stroke-width: 0.8"/>
      </g>
     </g>
     <g id="text_12">
      <!-- 0.2 -->
      <g transform="translate(28.620625 196.151159) scale(0.12 -0.12)">
       <use xlink:href="#DejaVuSans-30"/>
       <use xlink:href="#DejaVuSans-2e" x="63.623047"/>
       <use xlink:href="#DejaVuSans-32" x="95.410156"/>
      </g>
     </g>
    </g>
    <g id="ytick_4">
     <g id="line2d_12">
      <g>
       <use xlink:href="#ma6c9b339cb" x="54.704375" y="151.857761" style="stroke: #000000; stroke-width: 0.8"/>
      </g>
     </g>
     <g id="text_13">
      <!-- 0.3 -->
      <g transform="translate(28.620625 156.416823) scale(0.12 -0.12)">
       <use xlink:href="#DejaVuSans-30"/>
       <use xlink:href="#DejaVuSans-2e" x="63.623047"/>
       <use xlink:href="#DejaVuSans-33" x="95.410156"/>
      </g>
     </g>
    </g>
    <g id="ytick_5">
     <g id="line2d_13">
      <g>
       <use xlink:href="#ma6c9b339cb" x="54.704375" y="112.123425" style="stroke: #000000; stroke-width: 0.8"/>
      </g>
     </g>
     <g id="text_14">
      <!-- 0.4 -->
      <g transform="translate(28.620625 116.682488) scale(0.12 -0.12)">
       <use xlink:href="#DejaVuSans-30"/>
       <use xlink:href="#DejaVuSans-2e" x="63.623047"/>
       <use xlink:href="#DejaVuSans-34" x="95.410156"/>
      </g>
     </g>
    </g>
    <g id="ytick_6">
     <g id="line2d_14">
      <g>
       <use xlink:href="#ma6c9b339cb" x="54.704375" y="72.38909" style="stroke: #000000; stroke-width: 0.8"/>
      </g>
     </g>
     <g id="text_15">
      <!-- 0.5 -->
      <g transform="translate(28.620625 76.948152) scale(0.12 -0.12)">
       <use xlink:href="#DejaVuSans-30"/>
       <use xlink:href="#DejaVuSans-2e" x="63.623047"/>
       <use xlink:href="#DejaVuSans-35" x="95.410156"/>
      </g>
     </g>
    </g>
    <g id="ytick_7">
     <g id="line2d_15">
      <g>
       <use xlink:href="#ma6c9b339cb" x="54.704375" y="32.654754" style="stroke: #000000; stroke-width: 0.8"/>
      </g>
     </g>
     <g id="text_16">
      <!-- 0.6 -->
      <g transform="translate(28.620625 37.213816) scale(0.12 -0.12)">
       <defs>
        <path id="DejaVuSans-36" d="M 2113 2584 
Q 1688 2584 1439 2293 
Q 1191 2003 1191 1497 
Q 1191 994 1439 701 
Q 1688 409 2113 409 
Q 2538 409 2786 701 
Q 3034 994 3034 1497 
Q 3034 2003 2786 2293 
Q 2538 2584 2113 2584 
z
M 3366 4563 
L 3366 3988 
Q 3128 4100 2886 4159 
Q 2644 4219 2406 4219 
Q 1781 4219 1451 3797 
Q 1122 3375 1075 2522 
Q 1259 2794 1537 2939 
Q 1816 3084 2150 3084 
Q 2853 3084 3261 2657 
Q 3669 2231 3669 1497 
Q 3669 778 3244 343 
Q 2819 -91 2113 -91 
Q 1303 -91 875 529 
Q 447 1150 447 2328 
Q 447 3434 972 4092 
Q 1497 4750 2381 4750 
Q 2619 4750 2861 4703 
Q 3103 4656 3366 4563 
z
" transform="scale(0.015625)"/>
       </defs>
       <use xlink:href="#DejaVuSans-30"/>
       <use xlink:href="#DejaVuSans-2e" x="63.623047"/>
       <use xlink:href="#DejaVuSans-36" x="95.410156"/>
      </g>
     </g>
    </g>
    <g id="text_17">
     <!-- Proteome mass fraction -->
     <g transform="translate(20.877188 250.201406) rotate(-90) scale(0.18 -0.18)">
      <defs>
       <path id="DejaVuSans-50" d="M 1259 4147 
L 1259 2394 
L 2053 2394 
Q 2494 2394 2734 2622 
Q 2975 2850 2975 3272 
Q 2975 3691 2734 3919 
Q 2494 4147 2053 4147 
L 1259 4147 
z
M 628 4666 
L 2053 4666 
Q 2838 4666 3239 4311 
Q 3641 3956 3641 3272 
Q 3641 2581 3239 2228 
Q 2838 1875 2053 1875 
L 1259 1875 
L 1259 0 
L 628 0 
L 628 4666 
z
" transform="scale(0.015625)"/>
       <path id="DejaVuSans-72" d="M 2631 2963 
Q 2534 3019 2420 3045 
Q 2306 3072 2169 3072 
Q 1681 3072 1420 2755 
Q 1159 2438 1159 1844 
L 1159 0 
L 581 0 
L 581 3500 
L 1159 3500 
L 1159 2956 
Q 1341 3275 1631 3429 
Q 1922 3584 2338 3584 
Q 2397 3584 2469 3576 
Q 2541 3569 2628 3553 
L 2631 2963 
z
" transform="scale(0.015625)"/>
       <path id="DejaVuSans-6d" d="M 3328 2828 
Q 3544 3216 3844 3400 
Q 4144 3584 4550 3584 
Q 5097 3584 5394 3201 
Q 5691 2819 5691 2113 
L 5691 0 
L 5113 0 
L 5113 2094 
Q 5113 2597 4934 2840 
Q 4756 3084 4391 3084 
Q 3944 3084 3684 2787 
Q 3425 2491 3425 1978 
L 3425 0 
L 2847 0 
L 2847 2094 
Q 2847 2600 2669 2842 
Q 2491 3084 2119 3084 
Q 1678 3084 1418 2786 
Q 1159 2488 1159 1978 
L 1159 0 
L 581 0 
L 581 3500 
L 1159 3500 
L 1159 2956 
Q 1356 3278 1631 3431 
Q 1906 3584 2284 3584 
Q 2666 3584 2933 3390 
Q 3200 3197 3328 2828 
z
" transform="scale(0.015625)"/>
       <path id="DejaVuSans-61" d="M 2194 1759 
Q 1497 1759 1228 1600 
Q 959 1441 959 1056 
Q 959 750 1161 570 
Q 1363 391 1709 391 
Q 2188 391 2477 730 
Q 2766 1069 2766 1631 
L 2766 1759 
L 2194 1759 
z
M 3341 1997 
L 3341 0 
L 2766 0 
L 2766 531 
Q 2569 213 2275 61 
Q 1981 -91 1556 -91 
Q 1019 -91 701 211 
Q 384 513 384 1019 
Q 384 1609 779 1909 
Q 1175 2209 1959 2209 
L 2766 2209 
L 2766 2266 
Q 2766 2663 2505 2880 
Q 2244 3097 1772 3097 
Q 1472 3097 1187 3025 
Q 903 2953 641 2809 
L 641 3341 
Q 956 3463 1253 3523 
Q 1550 3584 1831 3584 
Q 2591 3584 2966 3190 
Q 3341 2797 3341 1997 
z
" transform="scale(0.015625)"/>
       <path id="DejaVuSans-66" d="M 2375 4863 
L 2375 4384 
L 1825 4384 
Q 1516 4384 1395 4259 
Q 1275 4134 1275 3809 
L 1275 3500 
L 2222 3500 
L 2222 3053 
L 1275 3053 
L 1275 0 
L 697 0 
L 697 3053 
L 147 3053 
L 147 3500 
L 697 3500 
L 697 3744 
Q 697 4328 969 4595 
Q 1241 4863 1831 4863 
L 2375 4863 
z
" transform="scale(0.015625)"/>
       <path id="DejaVuSans-69" d="M 603 3500 
L 1178 3500 
L 1178 0 
L 603 0 
L 603 3500 
z
M 603 4863 
L 1178 4863 
L 1178 4134 
L 603 4134 
L 603 4863 
z
" transform="scale(0.015625)"/>
      </defs>
      <use xlink:href="#DejaVuSans-50"/>
      <use xlink:href="#DejaVuSans-72" x="58.552734"/>
      <use xlink:href="#DejaVuSans-6f" x="97.416016"/>
      <use xlink:href="#DejaVuSans-74" x="158.597656"/>
      <use xlink:href="#DejaVuSans-65" x="197.806641"/>
      <use xlink:href="#DejaVuSans-6f" x="259.330078"/>
      <use xlink:href="#DejaVuSans-6d" x="320.511719"/>
      <use xlink:href="#DejaVuSans-65" x="417.923828"/>
      <use xlink:href="#DejaVuSans-20" x="479.447266"/>
      <use xlink:href="#DejaVuSans-6d" x="511.234375"/>
      <use xlink:href="#DejaVuSans-61" x="608.646484"/>
      <use xlink:href="#DejaVuSans-73" x="669.925781"/>
      <use xlink:href="#DejaVuSans-73" x="722.025391"/>
      <use xlink:href="#DejaVuSans-20" x="774.125"/>
      <use xlink:href="#DejaVuSans-66" x="805.912109"/>
      <use xlink:href="#DejaVuSans-72" x="841.117188"/>
      <use xlink:href="#DejaVuSans-61" x="882.230469"/>
      <use xlink:href="#DejaVuSans-63" x="943.509766"/>
      <use xlink:href="#DejaVuSans-74" x="998.490234"/>
      <use xlink:href="#DejaVuSans-69" x="1037.699219"/>
      <use xlink:href="#DejaVuSans-6f" x="1065.482422"/>
      <use xlink:href="#DejaVuSans-6e" x="1126.664062"/>
     </g>
    </g>
   </g>
   <g id="line2d_16">
    <path d="M 54.704375 230.467504 
L 57.383847 227.930529 
L 60.286608 225.410133 
L 66.538709 220.658022 
L 70.334627 218.151889 
L 75.135347 215.299262 
L 81.275804 212.103809 
L 90.095732 208.214737 
L 93.445071 206.918345 
L 95.231386 206.253397 
L 97.575924 205.426344 
L 99.473883 204.775862 
L 101.483487 204.122764 
L 103.381446 203.51107 
L 105.056116 203.00233 
L 106.954075 202.433982 
L 108.5171 201.985519 
L 110.526704 201.419269 
L 112.089729 201.00237 
L 114.322622 200.405944 
L 115.662358 200.072114 
L 117.783607 199.532392 
L 119.123343 199.220751 
L 121.356236 198.683316 
L 122.584327 198.407702 
L 124.81722 197.9026 
L 126.045311 197.644347 
L 128.389849 197.141306 
L 129.506296 196.911172 
L 131.850834 196.437418 
L 132.855636 196.2472 
L 135.535107 195.72338 
L 136.539909 195.545312 
L 139.331026 195.028016 
L 140.335828 194.86161 
L 143.238589 194.351925 
L 146.14135 193.865023 
L 147.034507 193.722276 
L 149.713979 193.306108 
L 152.61674 192.848498 
L 153.509897 192.719731 
L 156.412658 192.286914 
L 158.087328 192.153951 
L 162.553114 191.823333 
L 163.222982 191.784134 
L 168.246992 191.428945 
L 168.91686 191.393508 
L 174.275804 191.037818 
L 174.945672 191.006016 
L 180.639549 190.652227 
L 181.309417 190.623918 
L 187.561518 190.258389 
L 188.231386 190.233526 
L 194.930065 189.868418 
L 195.599933 189.846871 
L 202.856836 189.47819 
L 203.415059 189.466639 
L 211.34183 189.091438 
L 211.900053 189.082488 
L 220.608337 188.699629 
L 221.16656 188.693218 
L 230.544711 188.313522 
L 231.102934 188.309534 
L 241.374243 187.926465 
L 250.975684 187.607399 
L 251.533907 187.607599 
L 262.698373 187.259094 
L 274.309417 186.928903 
L 286.478685 186.613247 
L 299.206176 186.312673 
L 312.49189 186.027496 
L 326.335828 185.757837 
L 333.704375 185.598976 
L 333.704375 185.598976 
" clip-path="url(#pedeb44cd0b)" style="fill: none; stroke: #ff0000; stroke-width: 1.5; stroke-linecap: square"/>
   </g>
   <g id="line2d_17">
    <path d="M 54.704375 170.232212 
L 55.485888 170.63732 
L 56.155756 171.0408 
L 57.160557 171.531741 
L 57.718781 171.842904 
L 58.723583 172.329908 
L 59.281806 172.638575 
L 60.956476 173.384182 
L 61.403054 173.602402 
L 63.747592 174.599949 
L 64.194171 174.815452 
L 71.004495 177.322322 
L 73.014099 177.990825 
L 73.349033 178.074052 
L 74.912058 178.571853 
L 75.246992 178.65456 
L 76.475083 179.025829 
L 76.810017 179.10813 
L 77.926464 179.4366 
L 78.261398 179.518534 
L 79.154555 179.763897 
L 79.489489 179.845538 
L 80.382646 180.090025 
L 80.829225 180.171374 
L 81.834027 180.455526 
L 82.280605 180.536549 
L 83.173763 180.779183 
L 83.620341 180.859916 
L 84.513499 181.101684 
L 84.960077 181.182129 
L 85.74159 181.382927 
L 86.188169 181.463121 
L 86.858036 181.623293 
L 87.304615 181.703271 
L 88.086128 181.902905 
L 88.532706 181.982633 
L 89.09093 182.102093 
L 89.537508 182.181643 
L 90.207376 182.340531 
L 90.653955 182.419868 
L 91.212178 182.538741 
L 91.658757 182.617901 
L 92.21698 182.736508 
L 92.663559 182.815491 
L 93.221782 182.933833 
L 93.780005 183.01264 
L 94.449873 183.170042 
L 95.008096 183.248637 
L 95.56632 183.366399 
L 96.124543 183.444819 
L 96.906056 183.601448 
L 97.464279 183.679658 
L 98.245792 183.835867 
L 98.804015 183.913867 
L 99.585527 184.069658 
L 100.143751 184.147449 
L 100.813619 184.264005 
L 101.371842 184.341622 
L 102.04171 184.457918 
L 102.599933 184.535362 
L 103.269801 184.651398 
L 103.828024 184.728668 
L 104.497892 184.844445 
L 105.16776 184.921543 
L 105.837628 185.037061 
L 106.395852 185.113987 
L 107.06572 185.229247 
L 107.735587 185.306001 
L 108.405455 185.421003 
L 109.075323 185.497586 
L 109.745191 185.612331 
L 110.526704 185.688743 
L 111.196572 185.803232 
L 111.978084 185.879472 
L 112.647952 185.993706 
L 113.429465 186.069776 
L 114.099333 186.183754 
L 114.880846 186.259655 
L 115.439069 186.335487 
L 116.108937 186.411252 
L 116.66716 186.486949 
L 117.448673 186.562578 
L 118.118541 186.675896 
L 119.011698 186.751356 
L 119.569921 186.826749 
L 120.351434 186.902074 
L 120.909657 186.977332 
L 121.69117 187.052523 
L 122.249393 187.127647 
L 123.030906 187.202703 
L 123.589129 187.277692 
L 124.482286 187.352615 
L 125.040509 187.42747 
L 125.822022 187.502258 
L 126.380245 187.57698 
L 127.273403 187.651634 
L 127.831626 187.726222 
L 128.836428 187.800743 
L 129.394651 187.875198 
L 130.287808 187.949585 
L 130.846032 188.023907 
L 131.850834 188.098162 
L 132.409057 188.17235 
L 133.525503 188.246472 
L 134.083727 188.320528 
L 135.535107 188.431488 
L 136.093331 188.505379 
L 137.656356 188.61609 
L 138.214579 188.689816 
L 139.777604 188.80028 
L 140.335828 188.873841 
L 142.010497 188.984058 
L 142.568721 189.057455 
L 144.355035 189.167426 
L 144.913259 189.240659 
L 146.699573 189.350384 
L 147.257796 189.423453 
L 149.155756 189.532934 
L 149.713979 189.605839 
L 151.611938 189.715075 
L 152.058517 189.751455 
L 153.733187 189.860495 
L 154.29141 189.933108 
L 156.412658 190.041905 
L 156.859237 190.078138 
L 160.431866 190.186741 
L 160.878445 190.222909 
L 164.786008 190.331318 
L 165.232586 190.367422 
L 169.363439 190.475636 
L 169.810017 190.511676 
L 174.275804 190.619697 
L 174.722382 190.655672 
L 179.299813 190.7635 
L 179.746392 190.79941 
L 184.770401 190.907046 
L 185.21698 190.942892 
L 190.464279 191.050335 
L 190.910858 191.086117 
L 196.381446 191.193368 
L 196.828024 191.229087 
L 202.856836 191.336146 
L 203.303415 191.3718 
L 209.555515 191.478668 
L 210.002094 191.514259 
L 216.812418 191.620935 
L 217.258997 191.656462 
L 224.5159 191.762948 
L 224.962478 191.798412 
L 232.66596 191.904708 
L 233.112538 191.940108 
L 241.485888 192.046213 
L 241.932466 192.08155 
L 250.975684 192.187466 
L 251.422262 192.22274 
L 261.135347 192.328467 
L 261.581926 192.363677 
L 272.076524 192.469215 
L 272.523102 192.504363 
L 283.910858 192.609712 
L 284.357436 192.644796 
L 296.749993 192.749957 
L 297.196572 192.784979 
L 310.81722 192.889952 
L 311.263799 192.924911 
L 326.112538 193.029696 
L 326.559117 193.064593 
L 333.704375 193.099475 
L 333.704375 193.099475 
" clip-path="url(#pedeb44cd0b)" style="fill: none; stroke: #008000; stroke-width: 1.5; stroke-linecap: square"/>
   </g>
   <g id="line2d_18">
    <path d="M 54.704375 266.645455 
L 58.835227 265.488236 
L 63.635948 264.324987 
L 69.329825 263.150603 
L 76.698373 261.883356 
L 87.639549 260.383135 
L 108.293811 258.354618 
L 112.424663 258.03796 
L 117.337028 257.686353 
L 122.361038 257.354304 
L 125.598733 257.159712 
L 131.29261 256.831106 
L 137.209777 256.515374 
L 139.889249 256.387632 
L 146.699573 256.065639 
L 149.044111 255.964464 
L 155.96608 255.683595 
L 167.130545 255.20604 
L 169.028505 255.133633 
L 181.979285 254.658349 
L 183.877244 254.598652 
L 198.16776 254.154791 
L 214.914459 253.69639 
L 216.589129 253.655527 
L 234.787208 253.239107 
L 236.350233 253.208458 
L 257.227784 252.806982 
L 280.896452 252.414995 
L 282.459477 252.395616 
L 310.81722 252.005606 
L 312.380245 251.991187 
L 333.704375 251.741319 
L 333.704375 251.741319 
" clip-path="url(#pedeb44cd0b)" style="fill: none; stroke: #0000ff; stroke-width: 1.5; stroke-linecap: square"/>
   </g>
   <g id="line2d_19">
    <path d="M 54.704375 263.211838 
L 58.277004 261.444059 
L 64.305816 258.854417 
L 68.994891 257.115519 
L 74.688769 255.261919 
L 81.945672 253.23296 
L 92.105335 250.879904 
L 109.410257 247.792581 
L 112.759597 247.297332 
L 116.778805 246.733583 
L 119.569921 246.365874 
L 123.700774 245.845178 
L 126.156956 245.552091 
L 130.734387 245.030107 
L 132.96728 244.790899 
L 137.656356 244.304107 
L 139.889249 244.09107 
L 145.248193 243.582885 
L 147.257796 243.410053 
L 152.840029 242.93371 
L 156.970882 242.635865 
L 165.902454 242.737403 
L 166.907256 242.75007 
L 176.731986 242.851201 
L 177.736788 242.863817 
L 189.012898 242.964541 
L 190.0177 242.977106 
L 202.856836 243.077426 
L 203.861638 243.08994 
L 218.710377 243.189857 
L 219.715179 243.202321 
L 237.020101 243.301836 
L 238.136548 243.314251 
L 258.455876 243.413366 
L 259.572322 243.42573 
L 287.036908 243.536762 
L 288.153355 243.549071 
L 322.204975 243.659607 
L 323.321422 243.671862 
L 333.704375 243.696354 
L 333.704375 243.696354 
" clip-path="url(#pedeb44cd0b)" style="fill: none; stroke-dasharray: 5.55,2.4; stroke-dashoffset: 0; stroke: #008000; stroke-width: 1.5"/>
   </g>
   <g id="line2d_20">
    <path d="M 54.704375 19.554545 
L 55.485888 20.148188 
L 55.932466 20.431683 
L 56.713979 20.986723 
L 57.048913 21.209894 
L 57.830425 21.731541 
L 58.165359 21.940683 
L 59.170161 22.596367 
L 59.505095 22.789494 
L 60.844831 23.629436 
L 62.184567 24.411094 
L 63.747592 25.324366 
L 64.082526 25.468727 
L 67.208577 27.166334 
L 72.120942 29.506158 
L 73.683967 30.195789 
L 74.018901 30.368479 
L 75.470281 30.963254 
L 75.805215 31.12447 
L 76.921662 31.573343 
L 77.256596 31.725726 
L 78.373042 32.14557 
L 78.819621 32.374105 
L 79.936068 32.764197 
L 80.271002 32.899483 
L 81.164159 33.214296 
L 81.610738 33.422845 
L 82.503895 33.719018 
L 82.950473 33.918587 
L 83.843631 34.196841 
L 84.290209 34.387773 
L 85.071722 34.630849 
L 85.518301 34.81417 
L 86.299813 35.043959 
L 86.746392 35.21993 
L 87.527904 35.436888 
L 87.974483 35.605759 
L 88.309417 35.702469 
L 88.755996 35.86697 
L 89.09093 35.960397 
L 89.537508 36.120622 
L 89.984087 36.221679 
L 90.54231 36.444014 
L 90.988889 36.539674 
L 91.547112 36.755532 
L 91.993691 36.845941 
L 92.551914 37.055492 
L 92.998493 37.14079 
L 93.556716 37.344201 
L 93.89165 37.418937 
L 94.338229 37.554809 
L 94.673163 37.626721 
L 95.231386 37.820274 
L 95.56632 37.889042 
L 96.124543 38.077528 
L 96.459477 38.143223 
L 97.0177 38.326756 
L 97.352634 38.389449 
L 97.910858 38.568141 
L 98.245792 38.627901 
L 98.804015 38.80186 
L 99.138949 38.858751 
L 99.697172 39.028083 
L 100.032106 39.082171 
L 100.701974 39.302711 
L 101.036908 39.353728 
L 101.595131 39.513589 
L 101.930065 39.561933 
L 102.599933 39.771433 
L 102.934867 39.816847 
L 103.604735 40.020723 
L 103.939669 40.063277 
L 104.609537 40.261664 
L 104.944471 40.301429 
L 105.614339 40.494457 
L 105.837628 40.538639 
L 106.395852 40.676476 
L 106.619141 40.719295 
L 107.177364 40.853785 
L 107.400654 40.895265 
L 108.070521 41.075767 
L 108.405455 41.10643 
L 109.075323 41.281993 
L 109.298613 41.320328 
L 109.968481 41.491628 
L 110.303415 41.517608 
L 111.084927 41.731162 
L 111.308217 41.766319 
L 111.978084 41.928327 
L 112.313018 41.949571 
L 113.094531 42.152591 
L 113.31782 42.184712 
L 113.987688 42.337842 
L 114.210978 42.368659 
L 114.880846 42.517975 
L 115.104135 42.547514 
L 115.885648 42.736714 
L 116.220581 42.74935 
L 116.890449 42.890344 
L 117.560317 43.02866 
L 118.118541 43.122233 
L 118.676764 43.273029 
L 118.900053 43.297413 
L 119.346632 43.404406 
L 119.569921 43.427925 
L 120.0165 43.533244 
L 120.239789 43.55591 
L 120.686368 43.659577 
L 120.909657 43.681403 
L 121.356236 43.783442 
L 121.579525 43.804439 
L 122.026104 43.904874 
L 122.249393 43.925054 
L 122.695972 44.023905 
L 122.919261 44.04328 
L 123.36584 44.140571 
L 123.589129 44.159152 
L 124.035708 44.254904 
L 124.258997 44.272702 
L 124.81722 44.4052 
L 125.040509 44.4221 
L 125.487088 44.514601 
L 125.710377 44.53074 
L 126.268601 44.659256 
L 126.49189 44.674524 
L 126.938469 44.763869 
L 127.161758 44.7784 
L 127.719981 44.903049 
L 127.943271 44.916733 
L 128.389849 45.003014 
L 128.613139 45.015983 
L 129.171362 45.136877 
L 129.394651 45.149024 
L 129.952874 45.267947 
L 130.176164 45.279286 
L 130.734387 45.396268 
L 130.957676 45.40681 
L 131.5159 45.521882 
L 131.739189 45.531641 
L 132.297412 45.64483 
L 132.520702 45.653817 
L 133.078925 45.765153 
L 133.302214 45.77338 
L 133.860437 45.882891 
L 134.083727 45.89037 
L 134.753595 46.031473 
L 134.976884 46.038111 
L 135.535107 46.143812 
L 135.758397 46.149726 
L 136.31662 46.253687 
L 136.539909 46.258888 
L 137.209777 46.393461 
L 137.433066 46.39786 
L 138.102934 46.530141 
L 138.326224 46.533752 
L 138.884447 46.632191 
L 139.107736 46.635123 
L 139.777604 46.763199 
L 140.000894 46.765367 
L 140.670762 46.891259 
L 140.894051 46.892677 
L 141.563919 47.016421 
L 141.787208 47.0171 
L 142.457076 47.138732 
L 142.680365 47.138685 
L 143.350233 47.258238 
L 143.573523 47.257477 
L 144.355035 47.404499 
L 144.578325 47.402949 
L 145.248193 47.518205 
L 145.471482 47.515965 
L 146.14135 47.629245 
L 146.364639 47.626327 
L 147.146152 47.766176 
L 147.369441 47.762508 
L 148.150954 47.899869 
L 148.374243 47.895463 
L 149.155756 48.03038 
L 149.379045 48.02525 
L 150.160557 48.157765 
L 150.383847 48.151924 
L 151.165359 48.28208 
L 151.388649 48.275541 
L 152.170161 48.403378 
L 152.393451 48.396152 
L 153.174963 48.521711 
L 153.398253 48.513811 
L 154.179765 48.63713 
L 154.403054 48.628568 
L 155.296212 48.775554 
L 155.519501 48.766269 
L 156.412658 48.910529 
L 156.747592 48.910074 
L 158.310617 49.075964 
L 158.533907 49.04405 
L 160.431866 49.253177 
L 160.655155 49.220429 
L 162.553114 49.423136 
L 162.776404 49.389583 
L 164.786008 49.601286 
L 165.009297 49.566914 
L 167.130545 49.78678 
L 167.353835 49.751577 
L 169.363439 49.949886 
L 169.586728 49.913922 
L 171.819621 50.134263 
L 172.04291 50.097489 
L 174.275804 50.310562 
L 174.499093 50.273009 
L 176.731986 50.479079 
L 176.955275 50.440775 
L 179.299813 50.653167 
L 179.523102 50.614106 
L 181.979285 50.832103 
L 182.202574 50.792281 
L 184.770401 51.015187 
L 184.993691 50.974603 
L 187.561518 51.189703 
L 187.784807 51.148388 
L 190.464279 51.367708 
L 190.687568 51.325661 
L 193.36704 51.537177 
L 193.590329 51.494427 
L 196.381446 51.709537 
L 196.604735 51.666086 
L 199.619141 51.894966 
L 199.84243 51.850792 
L 202.856836 52.071061 
L 203.080125 52.026195 
L 206.206176 52.248366 
L 206.429465 52.202813 
L 209.555515 52.416525 
L 209.778805 52.370315 
L 213.128145 52.595047 
L 213.351434 52.548165 
L 216.812418 52.773329 
L 217.035708 52.725785 
L 220.608337 52.950945 
L 220.831626 52.902749 
L 224.5159 53.127495 
L 224.739189 53.078658 
L 228.535107 53.302606 
L 228.758397 53.253141 
L 232.66596 53.475935 
L 232.889249 53.425853 
L 237.020101 53.655024 
L 237.243391 53.604323 
L 241.485888 53.831192 
L 241.709177 53.779886 
L 246.174963 54.011523 
L 246.398253 53.959613 
L 250.975684 54.18795 
L 251.198973 54.135452 
L 255.888048 54.360294 
L 256.111338 54.307226 
L 261.135347 54.541551 
L 261.358637 54.487904 
L 266.494291 54.717477 
L 266.71758 54.66327 
L 272.076524 54.894093 
L 272.299813 54.839335 
L 277.882046 55.070656 
L 278.105335 55.015355 
L 283.910858 55.246478 
L 284.134147 55.190644 
L 290.162958 55.420924 
L 290.386248 55.364569 
L 296.749993 55.598597 
L 296.973283 55.541725 
L 303.671962 55.778325 
L 303.895251 55.720939 
L 310.81722 55.954268 
L 311.040509 55.896386 
L 318.297412 56.130586 
L 318.520702 56.072216 
L 326.112538 56.306344 
L 326.335828 56.247495 
L 333.704375 56.459946 
L 333.704375 56.459946 
" clip-path="url(#pedeb44cd0b)" style="fill: none; stroke: #000000; stroke-width: 1.5; stroke-linecap: square"/>
   </g>
   <g id="line2d_21">
    <path d="M 157.529105 279 
L 157.529105 7.2 
" clip-path="url(#pedeb44cd0b)" style="fill: none; stroke-dasharray: 3.7,1.6; stroke-dashoffset: 0; stroke: #808080"/>
   </g>
   <g id="patch_3">
    <path d="M 54.704375 279 
L 54.704375 7.2 
" style="fill: none; stroke: #000000; stroke-width: 0.8; stroke-linejoin: miter; stroke-linecap: square"/>
   </g>
   <g id="patch_4">
    <path d="M 333.704375 279 
L 333.704375 7.2 
" style="fill: none; stroke: #000000; stroke-width: 0.8; stroke-linejoin: miter; stroke-linecap: square"/>
   </g>
   <g id="patch_5">
    <path d="M 54.704375 279 
L 333.704375 279 
" style="fill: none; stroke: #000000; stroke-width: 0.8; stroke-linejoin: miter; stroke-linecap: square"/>
   </g>
   <g id="patch_6">
    <path d="M 54.704375 7.2 
L 333.704375 7.2 
" style="fill: none; stroke: #000000; stroke-width: 0.8; stroke-linejoin: miter; stroke-linecap: square"/>
   </g>
   <g id="legend_1">
    <g id="patch_7">
     <path d="M 190.664375 105 
L 325.304375 105 
Q 327.704375 105 327.704375 102.6 
L 327.704375 15.6 
Q 327.704375 13.2 325.304375 13.2 
L 190.664375 13.2 
Q 188.264375 13.2 188.264375 15.6 
L 188.264375 102.6 
Q 188.264375 105 190.664375 105 
z
" style="fill: #ffffff; opacity: 0.8; stroke: #cccccc; stroke-linejoin: miter"/>
    </g>
    <g id="line2d_22">
     <path d="M 193.064375 22.92 
L 205.064375 22.92 
L 217.064375 22.92 
" style="fill: none; stroke: #ff0000; stroke-width: 1.5; stroke-linecap: square"/>
    </g>
    <g id="text_18">
     <!-- Ribosomes ($\phi_R$) -->
     <g transform="translate(226.664375 27.12) scale(0.12 -0.12)">
      <defs>
       <path id="DejaVuSans-52" d="M 2841 2188 
Q 3044 2119 3236 1894 
Q 3428 1669 3622 1275 
L 4263 0 
L 3584 0 
L 2988 1197 
Q 2756 1666 2539 1819 
Q 2322 1972 1947 1972 
L 1259 1972 
L 1259 0 
L 628 0 
L 628 4666 
L 2053 4666 
Q 2853 4666 3247 4331 
Q 3641 3997 3641 3322 
Q 3641 2881 3436 2590 
Q 3231 2300 2841 2188 
z
M 1259 4147 
L 1259 2491 
L 2053 2491 
Q 2509 2491 2742 2702 
Q 2975 2913 2975 3322 
Q 2975 3731 2742 3939 
Q 2509 4147 2053 4147 
L 1259 4147 
z
" transform="scale(0.015625)"/>
       <path id="DejaVuSans-62" d="M 3116 1747 
Q 3116 2381 2855 2742 
Q 2594 3103 2138 3103 
Q 1681 3103 1420 2742 
Q 1159 2381 1159 1747 
Q 1159 1113 1420 752 
Q 1681 391 2138 391 
Q 2594 391 2855 752 
Q 3116 1113 3116 1747 
z
M 1159 2969 
Q 1341 3281 1617 3432 
Q 1894 3584 2278 3584 
Q 2916 3584 3314 3078 
Q 3713 2572 3713 1747 
Q 3713 922 3314 415 
Q 2916 -91 2278 -91 
Q 1894 -91 1617 61 
Q 1341 213 1159 525 
L 1159 0 
L 581 0 
L 581 4863 
L 1159 4863 
L 1159 2969 
z
" transform="scale(0.015625)"/>
       <path id="DejaVuSans-28" d="M 1984 4856 
Q 1566 4138 1362 3434 
Q 1159 2731 1159 2009 
Q 1159 1288 1364 580 
Q 1569 -128 1984 -844 
L 1484 -844 
Q 1016 -109 783 600 
Q 550 1309 550 2009 
Q 550 2706 781 3412 
Q 1013 4119 1484 4856 
L 1984 4856 
z
" transform="scale(0.015625)"/>
       <path id="DejaVuSans-Oblique-3d5" d="M 2991 4863 
L 2738 3572 
Q 3363 3572 3684 3094 
Q 4016 2606 3850 1747 
Q 3681 888 3159 400 
Q 2653 -78 2028 -78 
L 1784 -1331 
L 1213 -1331 
L 1456 -78 
Q 834 -78 509 400 
Q 178 888 347 1747 
Q 513 2606 1034 3094 
Q 1544 3572 2166 3572 
L 2419 4863 
L 2991 4863 
z
M 2128 434 
Q 2481 434 2784 756 
Q 3116 1116 3244 1747 
Q 3369 2372 3169 2738 
Q 2991 3059 2638 3059 
L 2128 434 
z
M 1556 434 
L 2066 3059 
Q 1716 3059 1413 2738 
Q 1072 2372 953 1747 
Q 834 1116 1028 756 
Q 1203 434 1556 434 
z
" transform="scale(0.015625)"/>
       <path id="DejaVuSans-Oblique-52" d="M 1613 4147 
L 1294 2491 
L 2106 2491 
Q 2584 2491 2879 2755 
Q 3175 3019 3175 3444 
Q 3175 3784 2976 3965 
Q 2778 4147 2406 4147 
L 1613 4147 
z
M 2772 2241 
Q 2972 2194 3105 2009 
Q 3238 1825 3413 1275 
L 3809 0 
L 3144 0 
L 2778 1197 
Q 2638 1659 2453 1815 
Q 2269 1972 1888 1972 
L 1191 1972 
L 806 0 
L 172 0 
L 1081 4666 
L 2503 4666 
Q 3150 4666 3495 4373 
Q 3841 4081 3841 3531 
Q 3841 3044 3547 2687 
Q 3253 2331 2772 2241 
z
" transform="scale(0.015625)"/>
       <path id="DejaVuSans-29" d="M 513 4856 
L 1013 4856 
Q 1481 4119 1714 3412 
Q 1947 2706 1947 2009 
Q 1947 1309 1714 600 
Q 1481 -109 1013 -844 
L 513 -844 
Q 928 -128 1133 580 
Q 1338 1288 1338 2009 
Q 1338 2731 1133 3434 
Q 928 4138 513 4856 
z
" transform="scale(0.015625)"/>
      </defs>
      <use xlink:href="#DejaVuSans-52" transform="translate(0 0.015625)"/>
      <use xlink:href="#DejaVuSans-69" transform="translate(69.482422 0.015625)"/>
      <use xlink:href="#DejaVuSans-62" transform="translate(97.265625 0.015625)"/>
      <use xlink:href="#DejaVuSans-6f" transform="translate(160.742188 0.015625)"/>
      <use xlink:href="#DejaVuSans-73" transform="translate(221.923828 0.015625)"/>
      <use xlink:href="#DejaVuSans-6f" transform="translate(274.023438 0.015625)"/>
      <use xlink:href="#DejaVuSans-6d" transform="translate(335.205078 0.015625)"/>
      <use xlink:href="#DejaVuSans-65" transform="translate(432.617188 0.015625)"/>
      <use xlink:href="#DejaVuSans-73" transform="translate(494.140625 0.015625)"/>
      <use xlink:href="#DejaVuSans-20" transform="translate(546.240234 0.015625)"/>
      <use xlink:href="#DejaVuSans-28" transform="translate(578.027344 0.015625)"/>
      <use xlink:href="#DejaVuSans-Oblique-3d5" transform="translate(617.041016 0.015625)"/>
      <use xlink:href="#DejaVuSans-Oblique-52" transform="translate(683.007812 -16.390625) scale(0.7)"/>
      <use xlink:href="#DejaVuSans-29" transform="translate(734.379883 0.015625)"/>
     </g>
    </g>
    <g id="line2d_23">
     <path d="M 193.064375 40.56 
L 205.064375 40.56 
L 217.064375 40.56 
" style="fill: none; stroke: #008000; stroke-width: 1.5; stroke-linecap: square"/>
    </g>
    <g id="text_19">
     <!-- Envelope ($\phi_E$) -->
     <g transform="translate(226.664375 44.76) scale(0.12 -0.12)">
      <defs>
       <path id="DejaVuSans-76" d="M 191 3500 
L 800 3500 
L 1894 563 
L 2988 3500 
L 3597 3500 
L 2284 0 
L 1503 0 
L 191 3500 
z
" transform="scale(0.015625)"/>
       <path id="DejaVuSans-70" d="M 1159 525 
L 1159 -1331 
L 581 -1331 
L 581 3500 
L 1159 3500 
L 1159 2969 
Q 1341 3281 1617 3432 
Q 1894 3584 2278 3584 
Q 2916 3584 3314 3078 
Q 3713 2572 3713 1747 
Q 3713 922 3314 415 
Q 2916 -91 2278 -91 
Q 1894 -91 1617 61 
Q 1341 213 1159 525 
z
M 3116 1747 
Q 3116 2381 2855 2742 
Q 2594 3103 2138 3103 
Q 1681 3103 1420 2742 
Q 1159 2381 1159 1747 
Q 1159 1113 1420 752 
Q 1681 391 2138 391 
Q 2594 391 2855 752 
Q 3116 1113 3116 1747 
z
" transform="scale(0.015625)"/>
       <path id="DejaVuSans-Oblique-45" d="M 1081 4666 
L 4031 4666 
L 3928 4134 
L 1606 4134 
L 1338 2753 
L 3566 2753 
L 3463 2222 
L 1234 2222 
L 909 531 
L 3284 531 
L 3181 0 
L 172 0 
L 1081 4666 
z
" transform="scale(0.015625)"/>
      </defs>
      <use xlink:href="#DejaVuSans-45" transform="translate(0 0.015625)"/>
      <use xlink:href="#DejaVuSans-6e" transform="translate(63.183594 0.015625)"/>
      <use xlink:href="#DejaVuSans-76" transform="translate(126.5625 0.015625)"/>
      <use xlink:href="#DejaVuSans-65" transform="translate(185.742188 0.015625)"/>
      <use xlink:href="#DejaVuSans-6c" transform="translate(247.265625 0.015625)"/>
      <use xlink:href="#DejaVuSans-6f" transform="translate(275.048828 0.015625)"/>
      <use xlink:href="#DejaVuSans-70" transform="translate(336.230469 0.015625)"/>
      <use xlink:href="#DejaVuSans-65" transform="translate(399.707031 0.015625)"/>
      <use xlink:href="#DejaVuSans-20" transform="translate(461.230469 0.015625)"/>
      <use xlink:href="#DejaVuSans-28" transform="translate(493.017578 0.015625)"/>
      <use xlink:href="#DejaVuSans-Oblique-3d5" transform="translate(532.03125 0.015625)"/>
      <use xlink:href="#DejaVuSans-Oblique-45" transform="translate(597.998047 -16.390625) scale(0.7)"/>
      <use xlink:href="#DejaVuSans-29" transform="translate(644.960938 0.015625)"/>
     </g>
    </g>
    <g id="line2d_24">
     <path d="M 193.064375 58.2 
L 205.064375 58.2 
L 217.064375 58.2 
" style="fill: none; stroke: #0000ff; stroke-width: 1.5; stroke-linecap: square"/>
    </g>
    <g id="text_20">
     <!-- Glycolytic ($\phi_G$) -->
     <g transform="translate(226.664375 62.4) scale(0.12 -0.12)">
      <defs>
       <path id="DejaVuSans-47" d="M 3809 666 
L 3809 1919 
L 2778 1919 
L 2778 2438 
L 4434 2438 
L 4434 434 
Q 4069 175 3628 42 
Q 3188 -91 2688 -91 
Q 1594 -91 976 548 
Q 359 1188 359 2328 
Q 359 3472 976 4111 
Q 1594 4750 2688 4750 
Q 3144 4750 3555 4637 
Q 3966 4525 4313 4306 
L 4313 3634 
Q 3963 3931 3569 4081 
Q 3175 4231 2741 4231 
Q 1884 4231 1454 3753 
Q 1025 3275 1025 2328 
Q 1025 1384 1454 906 
Q 1884 428 2741 428 
Q 3075 428 3337 486 
Q 3600 544 3809 666 
z
" transform="scale(0.015625)"/>
       <path id="DejaVuSans-79" d="M 2059 -325 
Q 1816 -950 1584 -1140 
Q 1353 -1331 966 -1331 
L 506 -1331 
L 506 -850 
L 844 -850 
Q 1081 -850 1212 -737 
Q 1344 -625 1503 -206 
L 1606 56 
L 191 3500 
L 800 3500 
L 1894 763 
L 2988 3500 
L 3597 3500 
L 2059 -325 
z
" transform="scale(0.015625)"/>
      </defs>
      <use xlink:href="#DejaVuSans-47" transform="translate(0 0.015625)"/>
      <use xlink:href="#DejaVuSans-6c" transform="translate(77.490234 0.015625)"/>
      <use xlink:href="#DejaVuSans-79" transform="translate(105.273438 0.015625)"/>
      <use xlink:href="#DejaVuSans-63" transform="translate(164.453125 0.015625)"/>
      <use xlink:href="#DejaVuSans-6f" transform="translate(219.433594 0.015625)"/>
      <use xlink:href="#DejaVuSans-6c" transform="translate(280.615234 0.015625)"/>
      <use xlink:href="#DejaVuSans-79" transform="translate(308.398438 0.015625)"/>
      <use xlink:href="#DejaVuSans-74" transform="translate(367.578125 0.015625)"/>
      <use xlink:href="#DejaVuSans-69" transform="translate(406.787109 0.015625)"/>
      <use xlink:href="#DejaVuSans-63" transform="translate(434.570312 0.015625)"/>
      <use xlink:href="#DejaVuSans-20" transform="translate(489.550781 0.015625)"/>
      <use xlink:href="#DejaVuSans-28" transform="translate(521.337891 0.015625)"/>
      <use xlink:href="#DejaVuSans-Oblique-3d5" transform="translate(560.351562 0.015625)"/>
      <use xlink:href="#DejaVuSans-Oblique-47" transform="translate(626.318359 -16.390625) scale(0.7)"/>
      <use xlink:href="#DejaVuSans-29" transform="translate(683.295898 0.015625)"/>
     </g>
    </g>
    <g id="line2d_25">
     <path d="M 193.064375 75.84 
L 205.064375 75.84 
L 217.064375 75.84 
" style="fill: none; stroke-dasharray: 5.55,2.4; stroke-dashoffset: 0; stroke: #008000; stroke-width: 1.5"/>
    </g>
    <g id="text_21">
     <!-- Respiration ($\phi_O$) -->
     <g transform="translate(226.664375 80.04) scale(0.12 -0.12)">
      <defs>
       <path id="DejaVuSans-Oblique-4f" d="M 2919 4238 
Q 2400 4238 2003 3986 
Q 1606 3734 1313 3219 
Q 1125 2891 1026 2522 
Q 928 2153 928 1778 
Q 928 1128 1239 775 
Q 1550 422 2119 422 
Q 2631 422 3032 676 
Q 3434 931 3719 1434 
Q 3909 1772 4009 2142 
Q 4109 2513 4109 2881 
Q 4109 3528 3796 3883 
Q 3484 4238 2919 4238 
z
M 2100 -91 
Q 1241 -91 748 418 
Q 256 928 256 1813 
Q 256 2319 448 2847 
Q 641 3375 978 3788 
Q 1375 4272 1862 4511 
Q 2350 4750 2938 4750 
Q 3794 4750 4287 4245 
Q 4781 3741 4781 2869 
Q 4781 2331 4593 1812 
Q 4406 1294 4056 872 
Q 3656 384 3173 146 
Q 2691 -91 2100 -91 
z
" transform="scale(0.015625)"/>
      </defs>
      <use xlink:href="#DejaVuSans-52" transform="translate(0 0.015625)"/>
      <use xlink:href="#DejaVuSans-65" transform="translate(69.482422 0.015625)"/>
      <use xlink:href="#DejaVuSans-73" transform="translate(131.005859 0.015625)"/>
      <use xlink:href="#DejaVuSans-70" transform="translate(183.105469 0.015625)"/>
      <use xlink:href="#DejaVuSans-69" transform="translate(246.582031 0.015625)"/>
      <use xlink:href="#DejaVuSans-72" transform="translate(274.365234 0.015625)"/>
      <use xlink:href="#DejaVuSans-61" transform="translate(315.478516 0.015625)"/>
      <use xlink:href="#DejaVuSans-74" transform="translate(376.757812 0.015625)"/>
      <use xlink:href="#DejaVuSans-69" transform="translate(415.966797 0.015625)"/>
      <use xlink:href="#DejaVuSans-6f" transform="translate(443.75 0.015625)"/>
      <use xlink:href="#DejaVuSans-6e" transform="translate(504.931641 0.015625)"/>
      <use xlink:href="#DejaVuSans-20" transform="translate(568.310547 0.015625)"/>
      <use xlink:href="#DejaVuSans-28" transform="translate(600.097656 0.015625)"/>
      <use xlink:href="#DejaVuSans-Oblique-3d5" transform="translate(639.111328 0.015625)"/>
      <use xlink:href="#DejaVuSans-Oblique-4f" transform="translate(705.078125 -16.390625) scale(0.7)"/>
      <use xlink:href="#DejaVuSans-29" transform="translate(762.910156 0.015625)"/>
     </g>
    </g>
    <g id="line2d_26">
     <path d="M 193.064375 93.48 
L 205.064375 93.48 
L 217.064375 93.48 
" style="fill: none; stroke: #000000; stroke-width: 1.5; stroke-linecap: square"/>
    </g>
    <g id="text_22">
     <!-- Other ($\phi_0$) -->
     <g transform="translate(226.664375 97.68) scale(0.12 -0.12)">
      <defs>
       <path id="DejaVuSans-4f" d="M 2522 4238 
Q 1834 4238 1429 3725 
Q 1025 3213 1025 2328 
Q 1025 1447 1429 934 
Q 1834 422 2522 422 
Q 3209 422 3611 934 
Q 4013 1447 4013 2328 
Q 4013 3213 3611 3725 
Q 3209 4238 2522 4238 
z
M 2522 4750 
Q 3503 4750 4090 4092 
Q 4678 3434 4678 2328 
Q 4678 1225 4090 567 
Q 3503 -91 2522 -91 
Q 1538 -91 948 565 
Q 359 1222 359 2328 
Q 359 3434 948 4092 
Q 1538 4750 2522 4750 
z
" transform="scale(0.015625)"/>
       <path id="DejaVuSans-68" d="M 3513 2113 
L 3513 0 
L 2938 0 
L 2938 2094 
Q 2938 2591 2744 2837 
Q 2550 3084 2163 3084 
Q 1697 3084 1428 2787 
Q 1159 2491 1159 1978 
L 1159 0 
L 581 0 
L 581 4863 
L 1159 4863 
L 1159 2956 
Q 1366 3272 1645 3428 
Q 1925 3584 2291 3584 
Q 2894 3584 3203 3211 
Q 3513 2838 3513 2113 
z
" transform="scale(0.015625)"/>
      </defs>
      <use xlink:href="#DejaVuSans-4f" transform="translate(0 0.015625)"/>
      <use xlink:href="#DejaVuSans-74" transform="translate(78.710938 0.015625)"/>
      <use xlink:href="#DejaVuSans-68" transform="translate(117.919922 0.015625)"/>
      <use xlink:href="#DejaVuSans-65" transform="translate(181.298828 0.015625)"/>
      <use xlink:href="#DejaVuSans-72" transform="translate(242.822266 0.015625)"/>
      <use xlink:href="#DejaVuSans-20" transform="translate(283.935547 0.015625)"/>
      <use xlink:href="#DejaVuSans-28" transform="translate(315.722656 0.015625)"/>
      <use xlink:href="#DejaVuSans-Oblique-3d5" transform="translate(354.736328 0.015625)"/>
      <use xlink:href="#DejaVuSans-30" transform="translate(420.703125 -16.390625) scale(0.7)"/>
      <use xlink:href="#DejaVuSans-29" transform="translate(467.973633 0.015625)"/>
     </g>
    </g>
   </g>
  </g>
 </g>
 <defs>
  <clipPath id="pedeb44cd0b">
   <rect x="54.704375" y="7.2" width="279" height="271.8"/>
  </clipPath>
 </defs>
</svg>
