<?xml version="1.0" encoding="utf-8" standalone="no"?>
<!DOCTYPE svg PUBLIC "-//W3C//DTD SVG 1.1//EN"
  "http://www.w3.org/Graphics/SVG/1.1/DTD/svg11.dtd">
<svg xmlns:xlink="http://www.w3.org/1999/xlink" width="360pt" height="360pt" viewBox="0 0 360 360" xmlns="http://www.w3.org/2000/svg" version="1.1">
 <metadata>
  <rdf:RDF xmlns:dc="http://purl.org/dc/elements/1.1/" xmlns:cc="http://creativecommons.org/ns#" xmlns:rdf="http://www.w3.org/1999/02/22-rdf-syntax-ns#">
   <cc:Work>
    <dc:type rdf:resource="http://purl.org/dc/dcmitype/StillImage"/>
    <dc:date>2026-08-01T21:25:49.898765</dc:date>
    <dc:format>image/svg+xml</dc:format>
    <dc:creator>
     <cc:Agent>
      <dc:title>Matplotlib v3.8.0, https://matplotlib.org/</dc:title>
     </cc:Agent>
    </dc:creator>
   </cc:Work>
  </rdf:RDF>
 </metadata>
 <defs>
  <style type="text/css">*{stroke-linejoin: round; stroke-linecap: butt}</style>
 </defs>
 <g id="figure_1">
  <g id="patch_1">
   <path d="M 0 360 
L 360 360 
L 360 0 
L 0 0 
z
" style="fill: #ffffff"/>
  </g>
  <g id="axes_1">
   <g id="patch_2">
    <path d="M 58.745313 303.2 
L 349.2 303.2 
L 349.2 25.6 
L 58.745313 25.6 
z
" style="fill: #ffffff"/>
   </g>
   <g id="line2d_1">
    <path d="M 58.745313 132.42848 
L 349.2 132.42848 
L 349.2 132.42848 
" clip-path="url(#p9ffd2c9bcd)" style="fill: none; stroke-dasharray: 5.55,2.4; stroke-dashoffset: 0; stroke: #000000; stroke-width: 1.5"/>
   </g>
   <g id="matplotlib.axis_1">
    <g id="xtick_1">
     <g id="line2d_2">
      <defs>
       <path id="mc7817794d8" d="M 0 0 
L 0 3.5 
" style="stroke: #000000; stroke-width: 0.8"/>
      </defs>
      <g>
       <use xlink:href="#mc7817794d8" x="83.083847" y="303.2" style="stroke: #000000; stroke-width: 0.8"/>
      </g>
     </g>
     <g id="text_1">
      <!-- 5 -->
      <g transform="translate(79.266347 319.318125) scale(0.12 -0.12)">
       <defs>
        <path id="DejaVuSans-35" d="M 691 4666 
L 3169 4666 
L 3169 4134 
L 1269 4134 
L 1269 2991 
Q 1406 3038 1543 3061 
Q 1681 3084 1819 3084 
Q 2600 3084 3056 2656 
Q 3513 2228 3513 1497 
Q 3513 744 3044 326 
Q 2575 -91 1722 -91 
Q 1428 -91 1123 -41 
Q 819 9 494 109 
L 494 744 
Q 775 591 1075 516 
Q 1375 441 1709 441 
Q 2250 441 2565 725 
Q 2881 1009 2881 1497 
Q 2881 1984 2565 2268 
Q 2250 2553 1709 2553 
Q 1456 2553 1204 2497 
Q 953 2441 691 2322 
L 691 4666 
z
" transform="scale(0.015625)"/>
       </defs>
       <use xlink:href="#DejaVuSans-35"/>
      </g>
     </g>
    </g>
    <g id="xtick_2">
     <g id="line2d_3">
      <g>
       <use xlink:href="#mc7817794d8" x="119.524659" y="303.2" style="stroke: #000000; stroke-width: 0.8"/>
      </g>
     </g>
     <g id="text_2">
      <!-- 10 -->
      <g transform="translate(111.889659 319.318125) scale(0.12 -0.12)">
       <defs>
        <path id="DejaVuSans-31" d="M 794 531 
L 1825 531 
L 1825 4091 
L 703 3866 
L 703 4441 
L 1819 4666 
L 2450 4666 
L 2450 531 
L 3481 531 
L 3481 0 
L 794 0 
L 794 531 
z
" transform="scale(0.015625)"/>
        <path id="DejaVuSans-30" d="M 2034 4250 
Q 1547 4250 1301 3770 
Q 1056 3291 1056 2328 
Q 1056 1369 1301 889 
Q 1547 409 2034 409 
Q 2525 409 2770 889 
Q 3016 1369 3016 2328 
Q 3016 3291 2770 3770 
Q 2525 4250 2034 4250 
z
M 2034 4750 
Q 2819 4750 3233 4129 
Q 3647 3509 3647 2328 
Q 3647 1150 3233 529 
Q 2819 -91 2034 -91 
Q 1250 -91 836 529 
Q 422 1150 422 2328 
Q 422 3509 836 4129 
Q 1250 4750 2034 4750 
z
" transform="scale(0.015625)"/>
       </defs>
       <use xlink:href="#DejaVuSans-31"/>
       <use xlink:href="#DejaVuSans-30" x="63.623047"/>
      </g>
     </g>
    </g>
    <g id="xtick_3">
     <g id="line2d_4">
      <g>
       <use xlink:href="#mc7817794d8" x="155.965472" y="303.2" style="stroke: #000000; stroke-width: 0.8"/>
      </g>
     </g>
     <g id="text_3">
      <!-- 15 -->
      <g transform="translate(148.330472 319.318125) scale(0.12 -0.12)">
       <use xlink:href="#DejaVuSans-31"/>
       <use xlink:href="#DejaVuSans-35" x="63.623047"/>
      </g>
     </g>
    </g>
    <g id="xtick_4">
     <g id="line2d_5">
      <g>
       <use xlink:href="#mc7817794d8" x="192.406285" y="303.2" style="stroke: #000000; stroke-width: 0.8"/>
      </g>
     </g>
     <g id="text_4">
      <!-- 20 -->
      <g transform="translate(184.771285 319.318125) scale(0.12 -0.12)">
       <defs>
        <path id="DejaVuSans-32" d="M 1228 531 
L 3431 531 
L 3431 0 
L 469 0 
L 469 531 
Q 828 903 1448 1529 
Q 2069 2156 2228 2338 
Q 2531 2678 2651 2914 
Q 2772 3150 2772 3378 
Q 2772 3750 2511 3984 
Q 2250 4219 1831 4219 
Q 1534 4219 1204 4116 
Q 875 4013 500 3803 
L 500 4441 
Q 881 4594 1212 4672 
Q 1544 4750 1819 4750 
Q 2544 4750 2975 4387 
Q 3406 4025 3406 3419 
Q 3406 3131 3298 2873 
Q 3191 2616 2906 2266 
Q 2828 2175 2409 1742 
Q 1991 1309 1228 531 
z
" transform="scale(0.015625)"/>
       </defs>
       <use xlink:href="#DejaVuSans-32"/>
       <use xlink:href="#DejaVuSans-30" x="63.623047"/>
      </g>
     </g>
    </g>
    <g id="xtick_5">
     <g id="line2d_6">
      <g>
       <use xlink:href="#mc7817794d8" x="228.847098" y="303.2" style="stroke: #000000; stroke-width: 0.8"/>
      </g>
     </g>
     <g id="text_5">
      <!-- 25 -->
      <g transform="translate(221.212098 319.318125) scale(0.12 -0.12)">
       <use xlink:href="#DejaVuSans-32"/>
       <use xlink:href="#DejaVuSans-35" x="63.623047"/>
      </g>
     </g>
    </g>
    <g id="xtick_6">
     <g id="line2d_7">
      <g>
       <use xlink:href="#mc7817794d8" x="265.28791" y="303.2" style="stroke: #000000; stroke-width: 0.8"/>
      </g>
     </g>
     <g id="text_6">
      <!-- 30 -->
      <g transform="translate(257.65291 319.318125) scale(0.12 -0.12)">
       <defs>
        <path id="DejaVuSans-33" d="M 2597 2516 
Q 3050 2419 3304 2112 
Q 3559 1806 3559 1356 
Q 3559 666 3084 287 
Q 2609 -91 1734 -91 
Q 1441 -91 1130 -33 
Q 819 25 488 141 
L 488 750 
Q 750 597 1062 519 
Q 1375 441 1716 441 
Q 2309 441 2620 675 
Q 2931 909 2931 1356 
Q 2931 1769 2642 2001 
Q 2353 2234 1838 2234 
L 1294 2234 
L 1294 2753 
L 1863 2753 
Q 2328 2753 2575 2939 
Q 2822 3125 2822 3475 
Q 2822 3834 2567 4026 
Q 2313 4219 1838 4219 
Q 1578 4219 1281 4162 
Q 984 4106 628 3988 
L 628 4550 
Q 988 4650 1302 4700 
Q 1616 4750 1894 4750 
Q 2613 4750 3031 4423 
Q 3450 4097 3450 3541 
Q 3450 3153 3228 2886 
Q 3006 2619 2597 2516 
z
" transform="scale(0.015625)"/>
       </defs>
       <use xlink:href="#DejaVuSans-33"/>
       <use xlink:href="#DejaVuSans-30" x="63.623047"/>
      </g>
     </g>
    </g>
    <g id="xtick_7">
     <g id="line2d_8">
      <g>
       <use xlink:href="#mc7817794d8" x="301.728723" y="303.2" style="stroke: #000000; stroke-width: 0.8"/>
      </g>
     </g>
     <g id="text_7">
      <!-- 35 -->
      <g transform="translate(294.093723 319.318125) scale(0.12 -0.12)">
       <use xlink:href="#DejaVuSans-33"/>
       <use xlink:href="#DejaVuSans-35" x="63.623047"/>
      </g>
     </g>
    </g>
    <g id="xtick_8">
     <g id="line2d_9">
      <g>
       <use xlink:href="#mc7817794d8" x="338.169536" y="303.2" style="stroke: #000000; stroke-width: 0.8"/>
      </g>
     </g>
     <g id="text_8">
      <!-- 40 -->
      <g transform="translate(330.534536 319.318125) scale(0.12 -0.12)">
       <defs>
        <path id="DejaVuSans-34" d="M 2419 4116 
L 825 1625 
L 2419 1625 
L 2419 4116 
z
M 2253 4666 
L 3047 4666 
L 3047 1625 
L 3713 1625 
L 3713 1100 
L 3047 1100 
L 3047 0 
L 2419 0 
L 2419 1100 
L 313 1100 
L 313 1709 
L 2253 4666 
z
" transform="scale(0.015625)"/>
       </defs>
       <use xlink:href="#DejaVuSans-34"/>
       <use xlink:href="#DejaVuSans-30" x="63.623047"/>
      </g>
     </g>
    </g>
    <g id="text_9">
     <!-- Ext. glucose conc. $[G_0]$ [$\mu$M] -->
     <g transform="translate(77.792656 339.49375) scale(0.18 -0.18)">
      <defs>
       <path id="DejaVuSans-45" d="M 628 4666 
L 3578 4666 
L 3578 4134 
L 1259 4134 
L 1259 2753 
L 3481 2753 
L 3481 2222 
L 1259 2222 
L 1259 531 
L 3634 531 
L 3634 0 
L 628 0 
L 628 4666 
z
" transform="scale(0.015625)"/>
       <path id="DejaVuSans-78" d="M 3513 3500 
L 2247 1797 
L 3578 0 
L 2900 0 
L 1881 1375 
L 863 0 
L 184 0 
L 1544 1831 
L 300 3500 
L 978 3500 
L 1906 2253 
L 2834 3500 
L 3513 3500 
z
" transform="scale(0.015625)"/>
       <path id="DejaVuSans-74" d="M 1172 4494 
L 1172 3500 
L 2356 3500 
L 2356 3053 
L 1172 3053 
L 1172 1153 
Q 1172 725 1289 603 
Q 1406 481 1766 481 
L 2356 481 
L 2356 0 
L 1766 0 
Q 1100 0 847 248 
Q 594 497 594 1153 
L 594 3053 
L 172 3053 
L 172 3500 
L 594 3500 
L 594 4494 
L 1172 4494 
z
" transform="scale(0.015625)"/>
       <path id="DejaVuSans-2e" d="M 684 794 
L 1344 794 
L 1344 0 
L 684 0 
L 684 794 
z
" transform="scale(0.015625)"/>
       <path id="DejaVuSans-20" transform="scale(0.015625)"/>
       <path id="DejaVuSans-67" d="M 2906 1791 
Q 2906 2416 2648 2759 
Q 2391 3103 1925 3103 
Q 1463 3103 1205 2759 
Q 947 2416 947 1791 
Q 947 1169 1205 825 
Q 1463 481 1925 481 
Q 2391 481 2648 825 
Q 2906 1169 2906 1791 
z
M 3481 434 
Q 3481 -459 3084 -895 
Q 2688 -1331 1869 -1331 
Q 1566 -1331 1297 -1286 
Q 1028 -1241 775 -1147 
L 775 -588 
Q 1028 -725 1275 -790 
Q 1522 -856 1778 -856 
Q 2344 -856 2625 -561 
Q 2906 -266 2906 331 
L 2906 616 
Q 2728 306 2450 153 
Q 2172 0 1784 0 
Q 1141 0 747 490 
Q 353 981 353 1791 
Q 353 2603 747 3093 
Q 1141 3584 1784 3584 
Q 2172 3584 2450 3431 
Q 2728 3278 2906 2969 
L 2906 3500 
L 3481 3500 
L 3481 434 
z
" transform="scale(0.015625)"/>
       <path id="DejaVuSans-6c" d="M 603 4863 
L 1178 4863 
L 1178 0 
L 603 0 
L 603 4863 
z
" transform="scale(0.015625)"/>
       <path id="DejaVuSans-75" d="M 544 1381 
L 544 3500 
L 1119 3500 
L 1119 1403 
Q 1119 906 1312 657 
Q 1506 409 1894 409 
Q 2359 409 2629 706 
Q 2900 1003 2900 1516 
L 2900 3500 
L 3475 3500 
L 3475 0 
L 2900 0 
L 2900 538 
Q 2691 219 2414 64 
Q 2138 -91 1772 -91 
Q 1169 -91 856 284 
Q 544 659 544 1381 
z
M 1991 3584 
L 1991 3584 
z
" transform="scale(0.015625)"/>
       <path id="DejaVuSans-63" d="M 3122 3366 
L 3122 2828 
Q 2878 2963 2633 3030 
Q 2388 3097 2138 3097 
Q 1578 3097 1268 2742 
Q 959 2388 959 1747 
Q 959 1106 1268 751 
Q 1578 397 2138 397 
Q 2388 397 2633 464 
Q 2878 531 3122 666 
L 3122 134 
Q 2881 22 2623 -34 
Q 2366 -91 2075 -91 
Q 1284 -91 818 406 
Q 353 903 353 1747 
Q 353 2603 823 3093 
Q 1294 3584 2113 3584 
Q 2378 3584 2631 3529 
Q 2884 3475 3122 3366 
z
" transform="scale(0.015625)"/>
       <path id="DejaVuSans-6f" d="M 1959 3097 
Q 1497 3097 1228 2736 
Q 959 2375 959 1747 
Q 959 1119 1226 758 
Q 1494 397 1959 397 
Q 2419 397 2687 759 
Q 2956 1122 2956 1747 
Q 2956 2369 2687 2733 
Q 2419 3097 1959 3097 
z
M 1959 3584 
Q 2709 3584 3137 3096 
Q 3566 2609 3566 1747 
Q 3566 888 3137 398 
Q 2709 -91 1959 -91 
Q 1206 -91 779 398 
Q 353 888 353 1747 
Q 353 2609 779 3096 
Q 1206 3584 1959 3584 
z
" transform="scale(0.015625)"/>
       <path id="DejaVuSans-73" d="M 2834 3397 
L 2834 2853 
Q 2591 2978 2328 3040 
Q 2066 3103 1784 3103 
Q 1356 3103 1142 2972 
Q 928 2841 928 2578 
Q 928 2378 1081 2264 
Q 1234 2150 1697 2047 
L 1894 2003 
Q 2506 1872 2764 1633 
Q 3022 1394 3022 966 
Q 3022 478 2636 193 
Q 2250 -91 1575 -91 
Q 1294 -91 989 -36 
Q 684 19 347 128 
L 347 722 
Q 666 556 975 473 
Q 1284 391 1588 391 
Q 1994 391 2212 530 
Q 2431 669 2431 922 
Q 2431 1156 2273 1281 
Q 2116 1406 1581 1522 
L 1381 1569 
Q 847 1681 609 1914 
Q 372 2147 372 2553 
Q 372 3047 722 3315 
Q 1072 3584 1716 3584 
Q 2034 3584 2315 3537 
Q 2597 3491 2834 3397 
z
" transform="scale(0.015625)"/>
       <path id="DejaVuSans-65" d="M 3597 1894 
L 3597 1613 
L 953 1613 
Q 991 1019 1311 708 
Q 1631 397 2203 397 
Q 2534 397 2845 478 
Q 3156 559 3463 722 
L 3463 178 
Q 3153 47 2828 -22 
Q 2503 -91 2169 -91 
Q 1331 -91 842 396 
Q 353 884 353 1716 
Q 353 2575 817 3079 
Q 1281 3584 2069 3584 
Q 2775 3584 3186 3129 
Q 3597 2675 3597 1894 
z
M 3022 2063 
Q 3016 2534 2758 2815 
Q 2500 3097 2075 3097 
Q 1594 3097 1305 2825 
Q 1016 2553 972 2059 
L 3022 2063 
z
" transform="scale(0.015625)"/>
       <path id="DejaVuSans-6e" d="M 3513 2113 
L 3513 0 
L 2938 0 
L 2938 2094 
Q 2938 2591 2744 2837 
Q 2550 3084 2163 3084 
Q 1697 3084 1428 2787 
Q 1159 2491 1159 1978 
L 1159 0 
L 581 0 
L 581 3500 
L 1159 3500 
L 1159 2956 
Q 1366 3272 1645 3428 
Q 1925 3584 2291 3584 
Q 2894 3584 3203 3211 
Q 3513 2838 3513 2113 
z
" transform="scale(0.015625)"/>
       <path id="DejaVuSans-5b" d="M 550 4863 
L 1875 4863 
L 1875 4416 
L 1125 4416 
L 1125 -397 
L 1875 -397 
L 1875 -844 
L 550 -844 
L 550 4863 
z
" transform="scale(0.015625)"/>
       <path id="DejaVuSans-Oblique-47" d="M 3494 697 
L 3738 1919 
L 2700 1919 
L 2797 2438 
L 4453 2438 
L 4050 384 
Q 3634 156 3143 32 
Q 2653 -91 2156 -91 
Q 1278 -91 783 396 
Q 288 884 288 1753 
Q 288 2475 589 3126 
Q 891 3778 1422 4213 
Q 1756 4484 2153 4617 
Q 2550 4750 3034 4750 
Q 3472 4750 3873 4639 
Q 4275 4528 4641 4306 
L 4513 3634 
Q 4231 3928 3853 4083 
Q 3475 4238 3047 4238 
Q 2550 4238 2172 4048 
Q 1794 3859 1497 3463 
Q 1244 3125 1098 2667 
Q 953 2209 953 1734 
Q 953 1081 1287 751 
Q 1622 422 2284 422 
Q 2616 422 2925 492 
Q 3234 563 3494 697 
z
" transform="scale(0.015625)"/>
       <path id="DejaVuSans-5d" d="M 1947 4863 
L 1947 -844 
L 622 -844 
L 622 -397 
L 1369 -397 
L 1369 4416 
L 622 4416 
L 622 4863 
L 1947 4863 
z
" transform="scale(0.015625)"/>
       <path id="DejaVuSans-Oblique-3bc" d="M -84 -1331 
L 856 3500 
L 1434 3500 
L 1009 1322 
Q 997 1256 987 1175 
Q 978 1094 978 1013 
Q 978 722 1161 565 
Q 1344 409 1684 409 
Q 2147 409 2431 671 
Q 2716 934 2816 1459 
L 3213 3500 
L 3788 3500 
L 3266 809 
Q 3253 750 3248 706 
Q 3244 663 3244 628 
Q 3244 531 3283 486 
Q 3322 441 3406 441 
Q 3438 441 3492 456 
Q 3547 472 3647 513 
L 3559 50 
Q 3422 -19 3297 -55 
Q 3172 -91 3053 -91 
Q 2847 -91 2730 40 
Q 2613 172 2613 403 
Q 2438 153 2195 31 
Q 1953 -91 1625 -91 
Q 1334 -91 1117 43 
Q 900 178 831 397 
L 494 -1331 
L -84 -1331 
z
" transform="scale(0.015625)"/>
       <path id="DejaVuSans-4d" d="M 628 4666 
L 1569 4666 
L 2759 1491 
L 3956 4666 
L 4897 4666 
L 4897 0 
L 4281 0 
L 4281 4097 
L 3078 897 
L 2444 897 
L 1241 4097 
L 1241 0 
L 628 0 
L 628 4666 
z
" transform="scale(0.015625)"/>
      </defs>
      <use xlink:href="#DejaVuSans-45" transform="translate(0 0.015625)"/>
      <use xlink:href="#DejaVuSans-78" transform="translate(63.183594 0.015625)"/>
      <use xlink:href="#DejaVuSans-74" transform="translate(122.363281 0.015625)"/>
      <use xlink:href="#DejaVuSans-2e" transform="translate(161.572266 0.015625)"/>
      <use xlink:href="#DejaVuSans-20" transform="translate(193.359375 0.015625)"/>
      <use xlink:href="#DejaVuSans-67" transform="translate(225.146484 0.015625)"/>
      <use xlink:href="#DejaVuSans-6c" transform="translate(288.623047 0.015625)"/>
      <use xlink:href="#DejaVuSans-75" transform="translate(316.40625 0.015625)"/>
      <use xlink:href="#DejaVuSans-63" transform="translate(379.785156 0.015625)"/>
      <use xlink:href="#DejaVuSans-6f" transform="translate(434.765625 0.015625)"/>
      <use xlink:href="#DejaVuSans-73" transform="translate(495.947266 0.015625)"/>
      <use xlink:href="#DejaVuSans-65" transform="translate(548.046875 0.015625)"/>
      <use xlink:href="#DejaVuSans-20" transform="translate(609.570312 0.015625)"/>
      <use xlink:href="#DejaVuSans-63" transform="translate(641.357422 0.015625)"/>
      <use xlink:href="#DejaVuSans-6f" transform="translate(696.337891 0.015625)"/>
      <use xlink:href="#DejaVuSans-6e" transform="translate(757.519531 0.015625)"/>
      <use xlink:href="#DejaVuSans-63" transform="translate(820.898438 0.015625)"/>
      <use xlink:href="#DejaVuSans-2e" transform="translate(875.878906 0.015625)"/>
      <use xlink:href="#DejaVuSans-20" transform="translate(907.666016 0.015625)"/>
      <use xlink:href="#DejaVuSans-5b" transform="translate(939.453125 0.015625)"/>
      <use xlink:href="#DejaVuSans-Oblique-47" transform="translate(978.466797 0.015625)"/>
      <use xlink:href="#DejaVuSans-30" transform="translate(1055.957031 -16.390625) scale(0.7)"/>
      <use xlink:href="#DejaVuSans-5d" transform="translate(1103.227539 0.015625)"/>
      <use xlink:href="#DejaVuSans-20" transform="translate(1142.241211 0.015625)"/>
      <use xlink:href="#DejaVuSans-5b" transform="translate(1174.02832 0.015625)"/>
      <use xlink:href="#DejaVuSans-Oblique-3bc" transform="translate(1213.041992 0.015625)"/>
      <use xlink:href="#DejaVuSans-4d" transform="translate(1276.665039 0.015625)"/>
      <use xlink:href="#DejaVuSans-5d" transform="translate(1362.944336 0.015625)"/>
     </g>
    </g>
   </g>
   <g id="matplotlib.axis_2">
    <g id="ytick_1">
     <g id="line2d_10">
      <defs>
       <path id="m360643a071" d="M 0 0 
L -3.5 0 
" style="stroke: #000000; stroke-width: 0.8"/>
      </defs>
      <g>
       <use xlink:href="#m360643a071" x="58.745313" y="267.017421" style="stroke: #000000; stroke-width: 0.8"/>
      </g>
     </g>
     <g id="text_10">
      <!-- $\mathdefault{−6}$ -->
      <g transform="translate(33.985313 271.576483) scale(0.12 -0.12)">
       <defs>
        <path id="DejaVuSans-2212" d="M 678 2272 
L 4684 2272 
L 4684 1741 
L 678 1741 
L 678 2272 
z
" transform="scale(0.015625)"/>
        <path id="DejaVuSans-36" d="M 2113 2584 
Q 1688 2584 1439 2293 
Q 1191 2003 1191 1497 
Q 1191 994 1439 701 
Q 1688 409 2113 409 
Q 2538 409 2786 701 
Q 3034 994 3034 1497 
Q 3034 2003 2786 2293 
Q 2538 2584 2113 2584 
z
M 3366 4563 
L 3366 3988 
Q 3128 4100 2886 4159 
Q 2644 4219 2406 4219 
Q 1781 4219 1451 3797 
Q 1122 3375 1075 2522 
Q 1259 2794 1537 2939 
Q 1816 3084 2150 3084 
Q 2853 3084 3261 2657 
Q 3669 2231 3669 1497 
Q 3669 778 3244 343 
Q 2819 -91 2113 -91 
Q 1303 -91 875 529 
Q 447 1150 447 2328 
Q 447 3434 972 4092 
Q 1497 4750 2381 4750 
Q 2619 4750 2861 4703 
Q 3103 4656 3366 4563 
z
" transform="scale(0.015625)"/>
       </defs>
       <use xlink:href="#DejaVuSans-2212" transform="translate(0 0.78125)"/>
       <use xlink:href="#DejaVuSans-36" transform="translate(83.789062 0.78125)"/>
      </g>
     </g>
    </g>
    <g id="ytick_2">
     <g id="line2d_11">
      <g>
       <use xlink:href="#m360643a071" x="58.745313" y="222.154441" style="stroke: #000000; stroke-width: 0.8"/>
      </g>
     </g>
     <g id="text_11">
      <!-- $\mathdefault{−4}$ -->
      <g transform="translate(33.985313 226.713503) scale(0.12 -0.12)">
       <use xlink:href="#DejaVuSans-2212" transform="translate(0 0.09375)"/>
       <use xlink:href="#DejaVuSans-34" transform="translate(83.789062 0.09375)"/>
      </g>
     </g>
    </g>
    <g id="ytick_3">
     <g id="line2d_12">
      <g>
       <use xlink:href="#m360643a071" x="58.745313" y="177.291461" style="stroke: #000000; stroke-width: 0.8"/>
      </g>
     </g>
     <g id="text_12">
      <!-- $\mathdefault{−2}$ -->
      <g transform="translate(33.985313 181.850523) scale(0.12 -0.12)">
       <use xlink:href="#DejaVuSans-2212" transform="translate(0 0.78125)"/>
       <use xlink:href="#DejaVuSans-32" transform="translate(83.789062 0.78125)"/>
      </g>
     </g>
    </g>
    <g id="ytick_4">
     <g id="line2d_13">
      <g>
       <use xlink:href="#m360643a071" x="58.745313" y="132.42848" style="stroke: #000000; stroke-width: 0.8"/>
      </g>
     </g>
     <g id="text_13">
      <!-- $\mathdefault{0}$ -->
      <g transform="translate(44.065313 136.987543) scale(0.12 -0.12)">
       <use xlink:href="#DejaVuSans-30" transform="translate(0 0.78125)"/>
      </g>
     </g>
    </g>
    <g id="ytick_5">
     <g id="line2d_14">
      <g>
       <use xlink:href="#m360643a071" x="58.745313" y="87.5655" style="stroke: #000000; stroke-width: 0.8"/>
      </g>
     </g>
     <g id="text_14">
      <!-- $\mathdefault{2}$ -->
      <g transform="translate(44.065313 92.124563) scale(0.12 -0.12)">
       <use xlink:href="#DejaVuSans-32" transform="translate(0 0.78125)"/>
      </g>
     </g>
    </g>
    <g id="ytick_6">
     <g id="line2d_15">
      <g>
       <use xlink:href="#m360643a071" x="58.745313" y="42.70252" style="stroke: #000000; stroke-width: 0.8"/>
      </g>
     </g>
     <g id="text_15">
      <!-- $\mathdefault{4}$ -->
      <g transform="translate(44.065313 47.261582) scale(0.12 -0.12)">
       <use xlink:href="#DejaVuSans-34" transform="translate(0 0.09375)"/>
      </g>
     </g>
    </g>
    <g id="text_16">
     <!-- Flux [ATP/h] -->
     <g transform="translate(26.241875 218.108906) rotate(-90) scale(0.18 -0.18)">
      <defs>
       <path id="DejaVuSans-46" d="M 628 4666 
L 3309 4666 
L 3309 4134 
L 1259 4134 
L 1259 2759 
L 3109 2759 
L 3109 2228 
L 1259 2228 
L 1259 0 
L 628 0 
L 628 4666 
z
" transform="scale(0.015625)"/>
       <path id="DejaVuSans-41" d="M 2188 4044 
L 1331 1722 
L 3047 1722 
L 2188 4044 
z
M 1831 4666 
L 2547 4666 
L 4325 0 
L 3669 0 
L 3244 1197 
L 1141 1197 
L 716 0 
L 50 0 
L 1831 4666 
z
" transform="scale(0.015625)"/>
       <path id="DejaVuSans-54" d="M -19 4666 
L 3928 4666 
L 3928 4134 
L 2272 4134 
L 2272 0 
L 1638 0 
L 1638 4134 
L -19 4134 
L -19 4666 
z
" transform="scale(0.015625)"/>
       <path id="DejaVuSans-50" d="M 1259 4147 
L 1259 2394 
L 2053 2394 
Q 2494 2394 2734 2622 
Q 2975 2850 2975 3272 
Q 2975 3691 2734 3919 
Q 2494 4147 2053 4147 
L 1259 4147 
z
M 628 4666 
L 2053 4666 
Q 2838 4666 3239 4311 
Q 3641 3956 3641 3272 
Q 3641 2581 3239 2228 
Q 2838 1875 2053 1875 
L 1259 1875 
L 1259 0 
L 628 0 
L 628 4666 
z
" transform="scale(0.015625)"/>
       <path id="DejaVuSans-2f" d="M 1625 4666 
L 2156 4666 
L 531 -594 
L 0 -594 
L 1625 4666 
z
" transform="scale(0.015625)"/>
       <path id="DejaVuSans-68" d="M 3513 2113 
L 3513 0 
L 2938 0 
L 2938 2094 
Q 2938 2591 2744 2837 
Q 2550 3084 2163 3084 
Q 1697 3084 1428 2787 
Q 1159 2491 1159 1978 
L 1159 0 
L 581 0 
L 581 4863 
L 1159 4863 
L 1159 2956 
Q 1366 3272 1645 3428 
Q 1925 3584 2291 3584 
Q 2894 3584 3203 3211 
Q 3513 2838 3513 2113 
z
" transform="scale(0.015625)"/>
      </defs>
      <use xlink:href="#DejaVuSans-46"/>
      <use xlink:href="#DejaVuSans-6c" x="57.519531"/>
      <use xlink:href="#DejaVuSans-75" x="85.302734"/>
      <use xlink:href="#DejaVuSans-78" x="148.681641"/>
      <use xlink:href="#DejaVuSans-20" x="207.861328"/>
      <use xlink:href="#DejaVuSans-5b" x="239.648438"/>
      <use xlink:href="#DejaVuSans-41" x="278.662109"/>
      <use xlink:href="#DejaVuSans-54" x="339.320312"/>
      <use xlink:href="#DejaVuSans-50" x="400.404297"/>
      <use xlink:href="#DejaVuSans-2f" x="460.707031"/>
      <use xlink:href="#DejaVuSans-68" x="494.398438"/>
      <use xlink:href="#DejaVuSans-5d" x="557.777344"/>
     </g>
    </g>
    <g id="text_17">
     <!-- $\times\mathdefault{10^{9}}\mathdefault{}$ -->
     <g transform="translate(58.745313 22.6) scale(0.1 -0.1)">
      <defs>
       <path id="DejaVuSans-d7" d="M 4488 3438 
L 3059 2003 
L 4488 575 
L 4116 197 
L 2681 1631 
L 1247 197 
L 878 575 
L 2303 2003 
L 878 3438 
L 1247 3816 
L 2681 2381 
L 4116 3816 
L 4488 3438 
z
" transform="scale(0.015625)"/>
       <path id="DejaVuSans-39" d="M 703 97 
L 703 672 
Q 941 559 1184 500 
Q 1428 441 1663 441 
Q 2288 441 2617 861 
Q 2947 1281 2994 2138 
Q 2813 1869 2534 1725 
Q 2256 1581 1919 1581 
Q 1219 1581 811 2004 
Q 403 2428 403 3163 
Q 403 3881 828 4315 
Q 1253 4750 1959 4750 
Q 2769 4750 3195 4129 
Q 3622 3509 3622 2328 
Q 3622 1225 3098 567 
Q 2575 -91 1691 -91 
Q 1453 -91 1209 -44 
Q 966 3 703 97 
z
M 1959 2075 
Q 2384 2075 2632 2365 
Q 2881 2656 2881 3163 
Q 2881 3666 2632 3958 
Q 2384 4250 1959 4250 
Q 1534 4250 1286 3958 
Q 1038 3666 1038 3163 
Q 1038 2656 1286 2365 
Q 1534 2075 1959 2075 
z
" transform="scale(0.015625)"/>
      </defs>
      <use xlink:href="#DejaVuSans-d7" transform="translate(0 0.765625)"/>
      <use xlink:href="#DejaVuSans-31" transform="translate(83.789062 0.765625)"/>
      <use xlink:href="#DejaVuSans-30" transform="translate(147.412109 0.765625)"/>
      <use xlink:href="#DejaVuSans-39" transform="translate(211.992188 39.046875) scale(0.7)"/>
     </g>
    </g>
   </g>
   <g id="line2d_16">
    <path d="M 58.745313 122.716767 
L 64.672959 118.335175 
L 68.85718 115.392232 
L 70.251921 114.456136 
L 73.15763 112.516125 
L 74.436142 111.691578 
L 76.412024 110.429442 
L 77.574308 109.704791 
L 79.317733 108.629599 
L 80.363789 107.999673 
L 81.758529 107.160051 
L 82.920813 106.485859 
L 84.315553 105.661233 
L 85.594065 104.94656 
L 86.872577 104.21429 
L 87.918632 103.643091 
L 89.197144 102.922192 
L 90.359428 102.31086 
L 91.289255 101.804223 
L 92.451539 101.203132 
L 93.381366 100.703636 
L 94.543649 100.112146 
L 95.473476 99.61931 
L 96.751988 98.990821 
L 97.565587 98.580493 
L 98.495414 98.12743 
L 99.309012 97.721971 
L 100.238839 97.274656 
L 101.052438 96.873815 
L 102.098493 96.389029 
L 102.912092 95.992993 
L 104.074375 95.473022 
L 104.771746 95.123398 
L 106.050258 94.569885 
L 106.631399 94.298579 
L 107.677455 93.833273 
L 108.258597 93.564663 
L 109.42088 93.065304 
L 110.002022 92.79953 
L 111.280534 92.268085 
L 111.861676 92.005266 
L 113.140188 91.481147 
L 113.72133 91.221136 
L 114.999842 90.704014 
L 115.580984 90.44667 
L 116.975724 89.900439 
L 117.556866 89.645853 
L 118.951606 89.107352 
L 119.532748 88.855381 
L 121.159945 88.256016 
L 121.741087 88.006938 
L 122.787142 87.624238 
L 123.368284 87.377117 
L 124.646796 86.933171 
L 125.227938 86.68831 
L 126.390222 86.282779 
L 126.971364 86.039885 
L 128.249876 85.607872 
L 128.831017 85.367036 
L 130.225758 84.910079 
L 130.8069 84.671377 
L 132.20164 84.221151 
L 132.782782 83.984478 
L 134.177522 83.540714 
L 134.526207 83.408594 
L 135.688491 83.028488 
L 136.037176 82.897317 
L 137.315688 82.492379 
L 137.664373 82.362219 
L 138.942885 81.961714 
L 139.29157 81.832527 
L 140.570082 81.436312 
L 140.918768 81.308063 
L 142.313508 80.888909 
L 142.662193 80.761651 
L 144.056933 80.347356 
L 144.405618 80.221051 
L 145.800359 79.811456 
L 146.149044 79.686066 
L 147.660013 79.255359 
L 148.008698 79.130929 
L 149.519667 78.705451 
L 149.868352 78.581943 
L 151.37932 78.161518 
L 151.728006 78.038894 
L 153.355203 77.599101 
L 153.703888 77.477398 
L 155.331085 77.043143 
L 155.67977 76.922322 
L 157.423196 76.470102 
L 157.771881 76.350193 
L 159.515306 75.903961 
L 159.863991 75.784925 
L 161.607417 75.344467 
L 161.956102 75.226265 
L 163.815756 74.769431 
L 164.164441 74.652087 
L 166.024095 74.201428 
L 166.37278 74.084903 
L 168.348662 73.619146 
L 168.697347 73.50346 
L 170.789458 73.02365 
L 171.138143 72.908817 
L 173.230253 72.436113 
L 173.578938 72.32209 
L 175.671049 71.85622 
L 176.019734 71.742968 
L 178.228073 71.264402 
L 178.576758 71.151932 
L 180.901326 70.661643 
L 181.250011 70.549962 
L 183.690806 70.04891 
L 184.039491 69.938021 
L 186.480287 69.445078 
L 186.828972 69.334937 
L 189.269768 68.849773 
L 189.618453 68.74034 
L 191.24565 68.440219 
L 191.594335 68.331277 
L 193.337761 68.017789 
L 193.686446 67.909357 
L 195.313643 67.616531 
L 195.662328 67.508551 
L 197.405754 67.20271 
L 197.754439 67.095202 
L 199.497864 66.793144 
L 199.846549 66.686089 
L 201.706203 66.371868 
L 202.054888 66.265282 
L 203.914542 65.955132 
L 204.263227 65.848995 
L 206.239109 65.527516 
L 206.587794 65.421842 
L 208.447448 65.11971 
L 208.796133 65.014448 
L 210.888244 64.686541 
L 211.236929 64.581733 
L 213.32904 64.258418 
L 213.677725 64.154044 
L 215.769835 63.835178 
L 216.118521 63.731219 
L 218.210631 63.416665 
L 218.559316 63.313102 
L 220.883884 62.975378 
L 221.232569 62.872245 
L 223.440908 62.552946 
L 223.789593 62.450198 
L 226.11416 62.122121 
L 226.462845 62.019764 
L 228.903641 61.683505 
L 229.252326 61.581543 
L 231.693122 61.250319 
L 232.041807 61.148732 
L 234.598831 60.809999 
L 234.947516 60.70879 
L 237.50454 60.375235 
L 237.853225 60.274385 
L 240.642706 59.922089 
L 240.991391 59.821619 
L 243.664643 59.486713 
L 244.013328 59.386583 
L 246.919038 59.03404 
L 247.267723 58.934268 
L 250.173432 58.587576 
L 250.522117 58.488142 
L 253.427826 58.147093 
L 253.776511 58.047978 
L 256.914677 57.691089 
L 257.147134 57.602928 
L 260.401528 57.241562 
L 260.633985 57.153476 
L 264.004607 56.788106 
L 264.237064 56.70009 
L 267.723915 56.331176 
L 267.956372 56.243227 
L 271.559451 55.871214 
L 271.791908 55.783325 
L 275.394987 55.418095 
L 275.627444 55.330256 
L 279.46298 54.953092 
L 279.695437 54.865304 
L 283.530973 54.495277 
L 283.76343 54.407528 
L 287.831423 54.026809 
L 288.063879 53.939099 
L 292.2481 53.55727 
L 292.480557 53.469592 
L 296.664778 53.095321 
L 296.897235 53.007664 
L 301.313913 52.624421 
L 301.54637 52.536782 
L 306.079276 52.153419 
L 306.311733 52.065792 
L 311.077096 51.67493 
L 311.309553 51.587311 
L 316.191144 51.197319 
L 316.423601 51.109701 
L 321.42142 50.720826 
L 321.653877 50.6332 
L 326.767925 50.245674 
L 327.000382 50.158033 
L 332.346887 49.765233 
L 332.579344 49.677573 
L 338.158305 49.280294 
L 338.390762 49.192609 
L 344.20218 48.791617 
L 344.434637 48.7039 
L 349.2 48.368646 
L 349.2 48.368646 
" clip-path="url(#p9ffd2c9bcd)" style="fill: none; stroke: #0000ff; stroke-width: 1.5; stroke-linecap: square"/>
   </g>
   <g id="line2d_17">
    <path d="M 58.745313 121.687954 
L 65.137873 116.685053 
L 66.183928 115.8979 
L 69.322094 113.560559 
L 70.368149 112.809509 
L 72.808945 111.052376 
L 73.738772 110.40494 
L 75.482197 109.185142 
L 76.528253 108.483634 
L 78.271678 107.28074 
L 79.201505 106.679264 
L 80.480017 105.816408 
L 81.409844 105.223335 
L 82.572128 104.457502 
L 83.618183 103.814208 
L 84.780467 103.056823 
L 85.826522 102.422805 
L 86.872577 101.760889 
L 87.686176 101.2776 
L 88.732231 100.621706 
L 89.662058 100.090634 
L 90.708113 99.440963 
L 91.63794 98.916974 
L 92.33531 98.499392 
L 93.265137 97.981211 
L 94.078736 97.479744 
L 95.124791 96.917406 
L 95.822161 96.50702 
L 96.751988 96.000216 
L 97.449358 95.592897 
L 98.495414 95.043316 
L 99.192784 94.639252 
L 100.238839 94.095883 
L 100.819981 93.782083 
L 101.517351 93.423313 
L 102.214722 93.024565 
L 103.02832 92.623627 
L 103.609462 92.314526 
L 104.42306 91.917547 
L 105.120431 91.523614 
L 106.050258 91.086996 
L 106.631399 90.782761 
L 107.32877 90.436485 
L 107.909911 90.134112 
L 108.72351 89.748158 
L 109.304652 89.447842 
L 110.11825 89.065278 
L 110.699392 88.76693 
L 111.629219 88.346907 
L 112.094133 88.091164 
L 113.140188 87.634914 
L 113.605101 87.380511 
L 114.651157 86.929038 
L 115.11607 86.675903 
L 116.162125 86.229033 
L 116.510811 86.064538 
L 117.324409 85.698206 
L 117.673094 85.534661 
L 118.602921 85.133093 
L 119.067835 84.883074 
L 120.230118 84.410747 
L 120.578803 84.249528 
L 121.50863 83.854945 
L 121.857315 83.694706 
L 122.787142 83.303073 
L 123.135827 83.14378 
L 124.181883 82.719664 
L 124.530568 82.561411 
L 125.460395 82.175767 
L 125.80908 82.018392 
L 126.855135 81.60109 
L 127.20382 81.444684 
L 128.249876 81.030829 
L 128.598561 80.875356 
L 129.760844 80.431559 
L 130.109529 80.277099 
L 131.155585 79.870183 
L 131.50427 79.716586 
L 132.666553 79.280516 
L 133.015239 79.127858 
L 134.177522 78.695668 
L 134.526207 78.543912 
L 135.688491 78.115477 
L 136.037176 77.964589 
L 137.315688 77.509031 
L 137.664373 77.359074 
L 138.361743 77.117836 
L 138.710429 76.968447 
L 139.524027 76.698665 
L 139.872712 76.549924 
L 140.570082 76.311922 
L 140.918768 76.163717 
L 141.732366 75.897765 
L 142.081051 75.750173 
L 142.89465 75.4862 
L 143.243335 75.339203 
L 144.056933 75.077164 
L 144.405618 74.930745 
L 145.219217 74.670598 
L 145.567902 74.52474 
L 146.381501 74.266443 
L 146.730186 74.121129 
L 147.660013 73.836914 
L 148.008698 73.692211 
L 148.822296 73.437718 
L 149.170982 73.293527 
L 150.100808 73.013683 
L 150.449494 72.870067 
L 151.37932 72.592462 
L 151.728006 72.449403 
L 152.657833 72.173985 
L 153.006518 72.031466 
L 154.052573 71.732118 
L 154.401258 71.590195 
L 155.331085 71.319239 
L 155.67977 71.177822 
L 156.725825 70.883484 
L 157.07451 70.742626 
L 158.120566 70.450836 
L 158.469251 70.310518 
L 159.515306 70.021215 
L 159.863991 69.88142 
L 160.910047 69.594543 
L 161.258732 69.455253 
L 162.304787 69.170746 
L 162.653472 69.031944 
L 163.815756 68.725944 
L 164.164441 68.587676 
L 165.326724 68.284493 
L 165.67541 68.14674 
L 166.837693 67.846304 
L 167.186378 67.709047 
L 168.348662 67.411289 
L 168.697347 67.274512 
L 169.975859 66.956844 
L 170.324544 66.820585 
L 171.603056 66.506028 
L 171.951741 66.370267 
L 173.230253 66.05874 
L 173.578938 65.923459 
L 174.85745 65.614884 
L 175.206136 65.480064 
L 176.600876 65.153114 
L 176.949561 65.018789 
L 178.228073 64.716137 
L 178.46053 64.603147 
L 180.087727 64.241038 
L 180.320184 64.128221 
L 181.831152 63.790516 
L 182.063609 63.677837 
L 183.690806 63.323527 
L 183.923263 63.210997 
L 185.55046 62.860574 
L 185.782917 62.748182 
L 187.410114 62.401541 
L 187.642571 62.289276 
L 189.269768 61.946313 
L 189.502225 61.834164 
L 191.24565 61.475984 
L 191.478107 61.36396 
L 193.337761 60.99134 
L 193.570217 60.879451 
L 195.313643 60.529511 
L 195.5461 60.417725 
L 197.405754 60.053709 
L 197.63821 59.942034 
L 199.497864 59.582277 
L 199.730321 59.470701 
L 201.706203 59.097788 
L 201.93866 58.986317 
L 203.914542 58.617979 
L 204.146999 58.506602 
L 206.239109 58.126009 
L 206.471566 58.01473 
L 208.447448 57.655404 
L 208.679905 57.544196 
L 210.888244 57.156804 
L 211.120701 57.045686 
L 213.32904 56.663436 
L 213.561496 56.552395 
L 215.769835 56.175127 
L 216.002292 56.064152 
L 218.210631 55.691711 
L 218.443088 55.580791 
L 220.883884 55.183093 
L 221.11634 55.072242 
L 223.440908 54.694827 
L 223.673364 54.58402 
L 226.11416 54.197092 
L 226.346617 54.086331 
L 228.903641 53.690537 
L 229.136098 53.579822 
L 231.693122 53.189645 
L 231.925578 53.078963 
L 234.598831 52.680648 
L 234.831288 52.569998 
L 237.50454 52.177454 
L 237.736997 52.066825 
L 240.642706 51.653814 
L 240.875163 51.543212 
L 243.664643 51.149372 
L 243.8971 51.038776 
L 246.919038 50.625661 
L 247.151494 50.515077 
L 250.173432 50.10847 
L 250.405889 49.997887 
L 253.427826 49.597554 
L 253.660283 49.486961 
L 256.914677 49.069301 
L 257.147134 48.9587 
L 260.401528 48.547867 
L 260.633985 48.437246 
L 264.004607 48.021819 
L 264.237064 47.911174 
L 267.723915 47.491656 
L 267.956372 47.380981 
L 271.559451 46.957859 
L 271.791908 46.847149 
L 275.394987 46.431291 
L 275.627444 46.320533 
L 279.46298 45.891349 
L 279.695437 45.780544 
L 283.530973 45.359017 
L 283.76343 45.248153 
L 287.831423 44.814656 
L 288.063879 44.70373 
L 292.2481 44.26881 
L 292.480557 44.157815 
L 296.664778 43.73102 
L 296.897235 43.619946 
L 301.313913 43.183065 
L 301.54637 43.071908 
L 306.079276 42.634691 
L 306.311733 42.523443 
L 311.077096 42.077755 
L 311.309553 41.96641 
L 316.191144 41.521476 
L 316.423601 41.410027 
L 321.42142 40.966121 
L 321.653877 40.854559 
L 326.767925 40.411937 
L 327.000382 40.300255 
L 332.346887 39.851605 
L 332.579344 39.739796 
L 338.158305 39.285995 
L 338.390762 39.174052 
L 344.20218 38.71594 
L 344.434637 38.603856 
L 349.2 38.218182 
L 349.2 38.218182 
" clip-path="url(#p9ffd2c9bcd)" style="fill: none; stroke: #008000; stroke-width: 1.5; stroke-linecap: square"/>
   </g>
   <g id="line2d_18">
    <path d="M 58.745313 132.42848 
L 349.2 132.42848 
L 349.2 132.42848 
" clip-path="url(#p9ffd2c9bcd)" style="fill: none; stroke: #00ffff; stroke-width: 1.5; stroke-linecap: square"/>
   </g>
   <g id="line2d_19">
    <path d="M 58.745313 134.002894 
L 69.670779 135.38929 
L 90.2432 137.482008 
L 120.11389 139.672037 
L 162.885929 141.762167 
L 224.370735 143.630618 
L 313.285435 145.208355 
L 349.2 145.647139 
L 349.2 145.647139 
" clip-path="url(#p9ffd2c9bcd)" style="fill: none; stroke: #ffa500; stroke-width: 1.5; stroke-linecap: square"/>
   </g>
   <g id="line2d_20">
    <path d="M 58.745313 136.07517 
L 76.179567 136.700861 
L 80.015104 136.811196 
L 85.012923 136.954648 
L 89.429601 137.06531 
L 93.381366 137.165946 
L 98.262957 137.275265 
L 101.63358 137.353948 
L 106.980085 137.460848 
L 109.885794 137.521995 
L 116.162125 137.632543 
L 118.71915 137.681658 
L 125.460395 137.788473 
L 127.90119 137.831805 
L 135.688491 137.941673 
L 138.013058 137.97879 
L 146.381501 138.084051 
L 148.473611 138.114491 
L 158.120566 138.222327 
L 160.096448 138.245699 
L 170.789458 138.356023 
L 172.649112 138.379935 
L 184.620633 138.484672 
L 186.364059 138.500948 
L 199.497864 138.607814 
L 201.24129 138.624421 
L 216.932119 138.733461 
L 218.675545 138.750406 
L 236.1098 138.853035 
L 237.736997 138.870301 
L 258.658103 138.974877 
L 260.169071 138.983668 
L 283.530973 139.090084 
L 285.041942 139.09903 
L 313.517892 139.207319 
L 315.02886 139.216422 
L 349.2 139.326617 
L 349.2 139.326617 
" clip-path="url(#p9ffd2c9bcd)" style="fill: none; stroke: #800080; stroke-width: 1.5; stroke-linecap: square"/>
   </g>
   <g id="line2d_21">
    <path d="M 58.745313 147.659616 
L 64.440502 155.375617 
L 65.486558 156.740696 
L 68.85718 161.092642 
L 69.787007 162.240214 
L 72.111575 165.153219 
L 73.041402 166.275521 
L 74.901055 168.53395 
L 75.714654 169.485122 
L 77.109394 171.146135 
L 78.039221 172.194362 
L 79.317733 173.683724 
L 80.015104 174.457856 
L 81.293616 175.930728 
L 82.107214 176.799394 
L 83.269498 178.107063 
L 83.966868 178.860351 
L 84.780467 179.758018 
L 85.594065 180.604086 
L 86.407664 181.493191 
L 87.221262 182.329239 
L 88.034861 183.210329 
L 88.616003 183.793984 
L 89.313373 184.521745 
L 89.894515 185.099845 
L 90.708113 185.968439 
L 91.405483 186.633782 
L 92.219082 187.495704 
L 92.916452 188.153319 
L 93.613822 188.862904 
L 94.311193 189.513346 
L 95.008563 190.217266 
L 95.705933 190.860829 
L 96.403303 191.559358 
L 97.100673 192.196322 
L 97.565587 192.658828 
L 98.262957 193.290394 
L 98.727871 193.750091 
L 99.425241 194.37644 
L 99.890154 194.833442 
L 100.587524 195.45475 
L 101.052438 195.909166 
L 101.866036 196.606802 
L 102.33095 197.058315 
L 103.02832 197.669335 
L 103.493234 198.118481 
L 104.42306 198.882487 
L 104.887974 199.328565 
L 105.701573 200.006816 
L 106.166486 200.450354 
L 106.747628 200.90179 
L 107.212541 201.343212 
L 107.677455 201.715171 
L 108.142368 202.154919 
L 108.72351 202.599158 
L 109.188423 203.036928 
L 109.769565 203.477418 
L 110.234479 203.913278 
L 110.931849 204.422903 
L 111.396762 204.856577 
L 111.977904 205.289315 
L 112.442818 205.72122 
L 113.140188 206.221427 
L 113.605101 206.651299 
L 114.186243 207.076687 
L 114.534928 207.360673 
L 114.999842 207.713544 
L 115.464755 208.140407 
L 116.162125 208.628381 
L 116.510811 208.909181 
L 116.975724 209.257337 
L 117.440638 209.681075 
L 118.138008 210.161384 
L 118.486693 210.439163 
L 118.951606 210.782826 
L 119.300291 211.05939 
L 119.881433 211.466902 
L 120.346347 211.88626 
L 121.159945 212.420456 
L 121.624859 212.837984 
L 122.438457 213.366678 
L 122.903371 213.782451 
L 123.716969 214.305792 
L 124.065654 214.575552 
L 124.646796 214.969529 
L 125.11171 215.382369 
L 125.925308 215.896709 
L 126.273993 216.163566 
L 126.855135 216.551707 
L 127.20382 216.817362 
L 127.784962 217.203091 
L 128.133647 217.467572 
L 128.714789 217.850937 
L 129.063474 218.114272 
L 129.760844 218.554224 
L 130.109529 218.816237 
L 130.690671 219.19464 
L 131.039356 219.455564 
L 131.620498 219.83175 
L 131.969183 220.09161 
L 132.666553 220.522737 
L 133.015239 220.781365 
L 133.712609 221.209376 
L 134.061294 221.466805 
L 134.758664 221.891765 
L 134.991121 222.092344 
L 135.688491 222.514741 
L 135.920948 222.714887 
L 136.850775 223.244173 
L 137.083231 223.443698 
L 137.89683 223.914375 
L 138.129287 224.1134 
L 138.942885 224.580694 
L 139.175342 224.779236 
L 140.105169 225.296081 
L 140.337626 225.494062 
L 141.151224 225.954337 
L 141.383681 226.151871 
L 142.313508 226.66067 
L 142.545965 226.857681 
L 143.475792 227.362327 
L 143.708248 227.558835 
L 144.638075 228.059418 
L 144.870532 228.25544 
L 145.800359 228.752048 
L 146.032816 228.947604 
L 147.078871 229.489611 
L 147.311328 229.684637 
L 148.241155 230.173073 
L 148.473611 230.367668 
L 149.519667 230.900513 
L 149.752123 231.094616 
L 150.798179 231.62277 
L 151.030635 231.816402 
L 152.076691 232.339971 
L 152.309147 232.533151 
L 153.355203 233.052239 
L 153.587659 233.244985 
L 154.633715 233.759693 
L 154.866171 233.952023 
L 156.028455 234.507653 
L 156.260912 234.699516 
L 157.423196 235.249896 
L 157.655652 235.441312 
L 158.817936 235.986568 
L 159.050393 236.177557 
L 160.212676 236.717809 
L 160.445133 236.90839 
L 161.607417 237.443756 
L 161.839873 237.633948 
L 163.118385 238.206848 
L 163.350842 238.396608 
L 164.513126 238.922067 
L 164.745583 239.111476 
L 166.024095 239.673594 
L 166.256551 239.862611 
L 167.651292 240.459876 
L 167.883748 240.648463 
L 169.162261 241.199323 
L 169.394717 241.387558 
L 170.789458 241.972713 
L 171.021914 242.16056 
L 172.416655 242.739628 
L 172.649112 242.927108 
L 174.043852 243.500243 
L 174.276309 243.687376 
L 175.671049 244.254727 
L 175.903506 244.441533 
L 177.414475 245.040493 
L 177.646931 245.226942 
L 179.1579 245.819381 
L 179.390357 246.005494 
L 180.901326 246.591583 
L 181.133782 246.777382 
L 182.760979 247.392866 
L 182.993436 247.578325 
L 184.620633 248.186758 
L 184.85309 248.371899 
L 186.480287 248.973472 
L 186.712744 249.158315 
L 188.339941 249.753213 
L 188.572398 249.937778 
L 189.269768 250.140531 
L 189.502225 250.324964 
L 190.315823 250.559589 
L 190.54828 250.743857 
L 191.24565 250.94334 
L 191.478107 251.127487 
L 192.291705 251.358346 
L 192.524162 251.542339 
L 193.337761 251.771231 
L 193.570217 251.955076 
L 194.267588 252.149709 
L 194.500044 252.333446 
L 195.313643 252.558721 
L 195.5461 252.742321 
L 196.359698 252.965706 
L 196.592155 253.149172 
L 197.405754 253.370692 
L 197.63821 253.554032 
L 198.451809 253.773712 
L 198.684266 253.956929 
L 199.497864 254.174795 
L 199.730321 254.357894 
L 200.660148 254.604711 
L 200.892605 254.787666 
L 201.706203 255.001756 
L 201.93866 255.184604 
L 202.868487 255.427166 
L 203.100944 255.609881 
L 203.914542 255.8203 
L 204.146999 256.002918 
L 205.076826 256.241343 
L 205.309282 256.423838 
L 206.239109 256.660119 
L 206.471566 256.842498 
L 207.285165 257.047496 
L 207.517621 257.229792 
L 208.447448 257.462107 
L 208.679905 257.644297 
L 209.72596 257.903211 
L 209.958417 258.085271 
L 210.888244 258.313279 
L 211.120701 258.495244 
L 212.050528 258.721257 
L 212.282984 258.903131 
L 213.32904 259.155061 
L 213.561496 259.336823 
L 214.491323 259.558716 
L 214.72378 259.740397 
L 215.769835 259.987759 
L 216.002292 260.169339 
L 216.932119 260.387231 
L 217.164576 260.56874 
L 218.210631 260.811667 
L 218.443088 260.993086 
L 219.489143 261.233729 
L 219.7216 261.415062 
L 220.883884 261.67982 
L 221.11634 261.86105 
L 222.162396 262.097007 
L 222.394852 262.278162 
L 223.440908 262.51194 
L 223.673364 262.693026 
L 224.835648 262.950274 
L 225.068105 263.131273 
L 226.11416 263.360577 
L 226.346617 263.541517 
L 227.5089 263.79387 
L 227.741357 263.974734 
L 228.903641 264.224582 
L 229.136098 264.405376 
L 230.298381 264.652758 
L 230.530838 264.833487 
L 231.693122 265.078442 
L 231.925578 265.259111 
L 233.20409 265.525814 
L 233.436547 265.70641 
L 234.598831 265.94641 
L 234.831288 266.126956 
L 236.1098 266.388297 
L 236.342256 266.56878 
L 237.50454 266.803984 
L 237.736997 266.984427 
L 239.015509 267.240577 
L 239.247965 267.420968 
L 240.642706 267.697398 
L 240.875163 267.877725 
L 242.153675 268.128412 
L 242.386131 268.308697 
L 243.664643 268.556828 
L 243.8971 268.737077 
L 245.29184 269.004909 
L 245.524297 269.18511 
L 246.919038 269.45002 
L 247.151494 269.630179 
L 248.430006 269.870482 
L 248.662463 270.05062 
L 250.173432 270.331555 
L 250.405889 270.511647 
L 251.800629 270.768088 
L 252.033086 270.948154 
L 253.427826 271.201868 
L 253.660283 271.381912 
L 255.171252 271.653753 
L 255.403708 271.833767 
L 256.914677 272.102533 
L 257.147134 272.282523 
L 258.658103 272.548269 
L 258.890559 272.72824 
L 260.401528 272.991019 
L 260.633985 273.170976 
L 262.144954 273.430841 
L 262.37741 273.610789 
L 264.004607 273.88745 
L 264.237064 274.067382 
L 265.864261 274.340798 
L 266.096718 274.52072 
L 267.723915 274.79095 
L 267.956372 274.970866 
L 269.583569 275.23797 
L 269.816026 275.417886 
L 271.559451 275.700669 
L 271.791908 275.880579 
L 273.419105 276.141396 
L 273.651562 276.321317 
L 275.394987 276.59749 
L 275.627444 276.777415 
L 277.37087 277.05027 
L 277.603326 277.230205 
L 279.46298 277.517668 
L 279.695437 277.697609 
L 281.438862 277.963813 
L 281.671319 278.143773 
L 283.530973 278.424279 
L 283.76343 278.604256 
L 285.739312 278.898483 
L 285.971769 279.078473 
L 287.831423 279.351878 
L 288.063879 279.531893 
L 290.039762 279.818727 
L 290.272218 279.998766 
L 292.2481 280.281909 
L 292.480557 280.461977 
L 294.456439 280.741503 
L 294.688896 280.921604 
L 296.664778 281.197587 
L 296.897235 281.377727 
L 298.989346 281.666163 
L 299.221802 281.846339 
L 301.313913 282.13097 
L 301.54637 282.311187 
L 303.754709 282.607592 
L 303.987165 282.787849 
L 306.079276 283.064908 
L 306.311733 283.245216 
L 308.520072 283.533796 
L 308.752529 283.714155 
L 311.077096 284.013726 
L 311.309553 284.194134 
L 313.517892 284.474824 
L 313.750348 284.655292 
L 316.191144 284.961205 
L 316.423601 285.141727 
L 318.748168 285.428947 
L 318.980625 285.609533 
L 321.42142 285.906878 
L 321.653877 286.087528 
L 324.094673 286.380632 
L 324.32713 286.561352 
L 326.767925 286.850309 
L 327.000382 287.031102 
L 329.557406 287.329474 
L 329.789863 287.510341 
L 332.346887 287.804368 
L 332.579344 287.985315 
L 335.252596 288.288171 
L 335.485053 288.469197 
L 338.158305 288.767525 
L 338.390762 288.948636 
L 341.180243 289.255223 
L 341.412699 289.436421 
L 344.20218 289.738311 
L 344.434637 289.9196 
L 347.224118 290.216906 
L 347.456575 290.39829 
L 349.2 290.581818 
L 349.2 290.581818 
" clip-path="url(#p9ffd2c9bcd)" style="fill: none; stroke: #ff0000; stroke-width: 1.5; stroke-linecap: square"/>
   </g>
   <g id="patch_3">
    <path d="M 58.745313 303.2 
L 58.745313 25.6 
" style="fill: none; stroke: #000000; stroke-width: 0.8; stroke-linejoin: miter; stroke-linecap: square"/>
   </g>
   <g id="patch_4">
    <path d="M 349.2 303.2 
L 349.2 25.6 
" style="fill: none; stroke: #000000; stroke-width: 0.8; stroke-linejoin: miter; stroke-linecap: square"/>
   </g>
   <g id="patch_5">
    <path d="M 58.745313 303.2 
L 349.2 303.2 
" style="fill: none; stroke: #000000; stroke-width: 0.8; stroke-linejoin: miter; stroke-linecap: square"/>
   </g>
   <g id="patch_6">
    <path d="M 58.745313 25.6 
L 349.2 25.6 
" style="fill: none; stroke: #000000; stroke-width: 0.8; stroke-linejoin: miter; stroke-linecap: square"/>
   </g>
   <g id="legend_1">
    <g id="patch_7">
     <path d="M 67.145313 297.2 
L 276.185313 297.2 
Q 278.585312 297.2 278.585312 294.8 
L 278.585312 190.16 
Q 278.585312 187.76 276.185313 187.76 
L 67.145313 187.76 
Q 64.745313 187.76 64.745313 190.16 
L 64.745313 294.8 
Q 64.745313 297.2 67.145313 297.2 
z
" style="fill: #ffffff; opacity: 0.8; stroke: #cccccc; stroke-linejoin: miter"/>
    </g>
    <g id="line2d_22">
     <path d="M 69.545313 197.48 
L 81.545313 197.48 
L 93.545313 197.48 
" style="fill: none; stroke: #0000ff; stroke-width: 1.5; stroke-linecap: square"/>
    </g>
    <g id="text_18">
     <!-- Glycolysis $\rightarrow$ acetyl-CoA $(J_G)$ -->
     <g transform="translate(103.145313 201.68) scale(0.12 -0.12)">
      <defs>
       <path id="DejaVuSans-47" d="M 3809 666 
L 3809 1919 
L 2778 1919 
L 2778 2438 
L 4434 2438 
L 4434 434 
Q 4069 175 3628 42 
Q 3188 -91 2688 -91 
Q 1594 -91 976 548 
Q 359 1188 359 2328 
Q 359 3472 976 4111 
Q 1594 4750 2688 4750 
Q 3144 4750 3555 4637 
Q 3966 4525 4313 4306 
L 4313 3634 
Q 3963 3931 3569 4081 
Q 3175 4231 2741 4231 
Q 1884 4231 1454 3753 
Q 1025 3275 1025 2328 
Q 1025 1384 1454 906 
Q 1884 428 2741 428 
Q 3075 428 3337 486 
Q 3600 544 3809 666 
z
" transform="scale(0.015625)"/>
       <path id="DejaVuSans-79" d="M 2059 -325 
Q 1816 -950 1584 -1140 
Q 1353 -1331 966 -1331 
L 506 -1331 
L 506 -850 
L 844 -850 
Q 1081 -850 1212 -737 
Q 1344 -625 1503 -206 
L 1606 56 
L 191 3500 
L 800 3500 
L 1894 763 
L 2988 3500 
L 3597 3500 
L 2059 -325 
z
" transform="scale(0.015625)"/>
       <path id="DejaVuSans-69" d="M 603 3500 
L 1178 3500 
L 1178 0 
L 603 0 
L 603 3500 
z
M 603 4863 
L 1178 4863 
L 1178 4134 
L 603 4134 
L 603 4863 
z
" transform="scale(0.015625)"/>
       <path id="DejaVuSans-2192" d="M 5050 2147 
L 5050 1866 
L 3822 638 
L 3447 1013 
L 4175 1741 
L 366 1741 
L 366 2272 
L 4175 2272 
L 3447 3000 
L 3822 3375 
L 5050 2147 
z
" transform="scale(0.015625)"/>
       <path id="DejaVuSans-61" d="M 2194 1759 
Q 1497 1759 1228 1600 
Q 959 1441 959 1056 
Q 959 750 1161 570 
Q 1363 391 1709 391 
Q 2188 391 2477 730 
Q 2766 1069 2766 1631 
L 2766 1759 
L 2194 1759 
z
M 3341 1997 
L 3341 0 
L 2766 0 
L 2766 531 
Q 2569 213 2275 61 
Q 1981 -91 1556 -91 
Q 1019 -91 701 211 
Q 384 513 384 1019 
Q 384 1609 779 1909 
Q 1175 2209 1959 2209 
L 2766 2209 
L 2766 2266 
Q 2766 2663 2505 2880 
Q 2244 3097 1772 3097 
Q 1472 3097 1187 3025 
Q 903 2953 641 2809 
L 641 3341 
Q 956 3463 1253 3523 
Q 1550 3584 1831 3584 
Q 2591 3584 2966 3190 
Q 3341 2797 3341 1997 
z
" transform="scale(0.015625)"/>
       <path id="DejaVuSans-2d" d="M 313 2009 
L 1997 2009 
L 1997 1497 
L 313 1497 
L 313 2009 
z
" transform="scale(0.015625)"/>
       <path id="DejaVuSans-43" d="M 4122 4306 
L 4122 3641 
Q 3803 3938 3442 4084 
Q 3081 4231 2675 4231 
Q 1875 4231 1450 3742 
Q 1025 3253 1025 2328 
Q 1025 1406 1450 917 
Q 1875 428 2675 428 
Q 3081 428 3442 575 
Q 3803 722 4122 1019 
L 4122 359 
Q 3791 134 3420 21 
Q 3050 -91 2638 -91 
Q 1578 -91 968 557 
Q 359 1206 359 2328 
Q 359 3453 968 4101 
Q 1578 4750 2638 4750 
Q 3056 4750 3426 4639 
Q 3797 4528 4122 4306 
z
" transform="scale(0.015625)"/>
       <path id="DejaVuSans-28" d="M 1984 4856 
Q 1566 4138 1362 3434 
Q 1159 2731 1159 2009 
Q 1159 1288 1364 580 
Q 1569 -128 1984 -844 
L 1484 -844 
Q 1016 -109 783 600 
Q 550 1309 550 2009 
Q 550 2706 781 3412 
Q 1013 4119 1484 4856 
L 1984 4856 
z
" transform="scale(0.015625)"/>
       <path id="DejaVuSans-Oblique-4a" d="M 1069 4666 
L 1703 4666 
L 856 325 
Q 691 -522 298 -901 
Q -94 -1281 -800 -1281 
L -1050 -1281 
L -947 -750 
L -750 -750 
Q -328 -750 -109 -509 
Q 109 -269 225 325 
L 1069 4666 
z
" transform="scale(0.015625)"/>
       <path id="DejaVuSans-29" d="M 513 4856 
L 1013 4856 
Q 1481 4119 1714 3412 
Q 1947 2706 1947 2009 
Q 1947 1309 1714 600 
Q 1481 -109 1013 -844 
L 513 -844 
Q 928 -128 1133 580 
Q 1338 1288 1338 2009 
Q 1338 2731 1133 3434 
Q 928 4138 513 4856 
z
" transform="scale(0.015625)"/>
      </defs>
      <use xlink:href="#DejaVuSans-47" transform="translate(0 0.015625)"/>
      <use xlink:href="#DejaVuSans-6c" transform="translate(77.490234 0.015625)"/>
      <use xlink:href="#DejaVuSans-79" transform="translate(105.273438 0.015625)"/>
      <use xlink:href="#DejaVuSans-63" transform="translate(164.453125 0.015625)"/>
      <use xlink:href="#DejaVuSans-6f" transform="translate(219.433594 0.015625)"/>
      <use xlink:href="#DejaVuSans-6c" transform="translate(280.615234 0.015625)"/>
      <use xlink:href="#DejaVuSans-79" transform="translate(308.398438 0.015625)"/>
      <use xlink:href="#DejaVuSans-73" transform="translate(367.578125 0.015625)"/>
      <use xlink:href="#DejaVuSans-69" transform="translate(419.677734 0.015625)"/>
      <use xlink:href="#DejaVuSans-73" transform="translate(447.460938 0.015625)"/>
      <use xlink:href="#DejaVuSans-20" transform="translate(499.560547 0.015625)"/>
      <use xlink:href="#DejaVuSans-2192" transform="translate(550.830078 0.015625)"/>
      <use xlink:href="#DejaVuSans-20" transform="translate(654.101562 0.015625)"/>
      <use xlink:href="#DejaVuSans-61" transform="translate(685.888672 0.015625)"/>
      <use xlink:href="#DejaVuSans-63" transform="translate(747.167969 0.015625)"/>
      <use xlink:href="#DejaVuSans-65" transform="translate(802.148438 0.015625)"/>
      <use xlink:href="#DejaVuSans-74" transform="translate(863.671875 0.015625)"/>
      <use xlink:href="#DejaVuSans-79" transform="translate(902.880859 0.015625)"/>
      <use xlink:href="#DejaVuSans-6c" transform="translate(962.060547 0.015625)"/>
      <use xlink:href="#DejaVuSans-2d" transform="translate(989.84375 0.015625)"/>
      <use xlink:href="#DejaVuSans-43" transform="translate(1025.927734 0.015625)"/>
      <use xlink:href="#DejaVuSans-6f" transform="translate(1095.751953 0.015625)"/>
      <use xlink:href="#DejaVuSans-41" transform="translate(1156.933594 0.015625)"/>
      <use xlink:href="#DejaVuSans-20" transform="translate(1225.341797 0.015625)"/>
      <use xlink:href="#DejaVuSans-28" transform="translate(1257.128906 0.015625)"/>
      <use xlink:href="#DejaVuSans-Oblique-4a" transform="translate(1296.142578 0.015625)"/>
      <use xlink:href="#DejaVuSans-Oblique-47" transform="translate(1325.634766 -16.390625) scale(0.7)"/>
      <use xlink:href="#DejaVuSans-29" transform="translate(1382.612305 0.015625)"/>
     </g>
    </g>
    <g id="line2d_23">
     <path d="M 69.545313 215.12 
L 81.545313 215.12 
L 93.545313 215.12 
" style="fill: none; stroke: #008000; stroke-width: 1.5; stroke-linecap: square"/>
    </g>
    <g id="text_19">
     <!-- Respiration TCA $(J_O)$ -->
     <g transform="translate(103.145313 219.32) scale(0.12 -0.12)">
      <defs>
       <path id="DejaVuSans-52" d="M 2841 2188 
Q 3044 2119 3236 1894 
Q 3428 1669 3622 1275 
L 4263 0 
L 3584 0 
L 2988 1197 
Q 2756 1666 2539 1819 
Q 2322 1972 1947 1972 
L 1259 1972 
L 1259 0 
L 628 0 
L 628 4666 
L 2053 4666 
Q 2853 4666 3247 4331 
Q 3641 3997 3641 3322 
Q 3641 2881 3436 2590 
Q 3231 2300 2841 2188 
z
M 1259 4147 
L 1259 2491 
L 2053 2491 
Q 2509 2491 2742 2702 
Q 2975 2913 2975 3322 
Q 2975 3731 2742 3939 
Q 2509 4147 2053 4147 
L 1259 4147 
z
" transform="scale(0.015625)"/>
       <path id="DejaVuSans-70" d="M 1159 525 
L 1159 -1331 
L 581 -1331 
L 581 3500 
L 1159 3500 
L 1159 2969 
Q 1341 3281 1617 3432 
Q 1894 3584 2278 3584 
Q 2916 3584 3314 3078 
Q 3713 2572 3713 1747 
Q 3713 922 3314 415 
Q 2916 -91 2278 -91 
Q 1894 -91 1617 61 
Q 1341 213 1159 525 
z
M 3116 1747 
Q 3116 2381 2855 2742 
Q 2594 3103 2138 3103 
Q 1681 3103 1420 2742 
Q 1159 2381 1159 1747 
Q 1159 1113 1420 752 
Q 1681 391 2138 391 
Q 2594 391 2855 752 
Q 3116 1113 3116 1747 
z
" transform="scale(0.015625)"/>
       <path id="DejaVuSans-72" d="M 2631 2963 
Q 2534 3019 2420 3045 
Q 2306 3072 2169 3072 
Q 1681 3072 1420 2755 
Q 1159 2438 1159 1844 
L 1159 0 
L 581 0 
L 581 3500 
L 1159 3500 
L 1159 2956 
Q 1341 3275 1631 3429 
Q 1922 3584 2338 3584 
Q 2397 3584 2469 3576 
Q 2541 3569 2628 3553 
L 2631 2963 
z
" transform="scale(0.015625)"/>
       <path id="DejaVuSans-Oblique-4f" d="M 2919 4238 
Q 2400 4238 2003 3986 
Q 1606 3734 1313 3219 
Q 1125 2891 1026 2522 
Q 928 2153 928 1778 
Q 928 1128 1239 775 
Q 1550 422 2119 422 
Q 2631 422 3032 676 
Q 3434 931 3719 1434 
Q 3909 1772 4009 2142 
Q 4109 2513 4109 2881 
Q 4109 3528 3796 3883 
Q 3484 4238 2919 4238 
z
M 2100 -91 
Q 1241 -91 748 418 
Q 256 928 256 1813 
Q 256 2319 448 2847 
Q 641 3375 978 3788 
Q 1375 4272 1862 4511 
Q 2350 4750 2938 4750 
Q 3794 4750 4287 4245 
Q 4781 3741 4781 2869 
Q 4781 2331 4593 1812 
Q 4406 1294 4056 872 
Q 3656 384 3173 146 
Q 2691 -91 2100 -91 
z
" transform="scale(0.015625)"/>
      </defs>
      <use xlink:href="#DejaVuSans-52" transform="translate(0 0.015625)"/>
      <use xlink:href="#DejaVuSans-65" transform="translate(69.482422 0.015625)"/>
      <use xlink:href="#DejaVuSans-73" transform="translate(131.005859 0.015625)"/>
      <use xlink:href="#DejaVuSans-70" transform="translate(183.105469 0.015625)"/>
      <use xlink:href="#DejaVuSans-69" transform="translate(246.582031 0.015625)"/>
      <use xlink:href="#DejaVuSans-72" transform="translate(274.365234 0.015625)"/>
      <use xlink:href="#DejaVuSans-61" transform="translate(315.478516 0.015625)"/>
      <use xlink:href="#DejaVuSans-74" transform="translate(376.757812 0.015625)"/>
      <use xlink:href="#DejaVuSans-69" transform="translate(415.966797 0.015625)"/>
      <use xlink:href="#DejaVuSans-6f" transform="translate(443.75 0.015625)"/>
      <use xlink:href="#DejaVuSans-6e" transform="translate(504.931641 0.015625)"/>
      <use xlink:href="#DejaVuSans-20" transform="translate(568.310547 0.015625)"/>
      <use xlink:href="#DejaVuSans-54" transform="translate(600.097656 0.015625)"/>
      <use xlink:href="#DejaVuSans-43" transform="translate(661.181641 0.015625)"/>
      <use xlink:href="#DejaVuSans-41" transform="translate(731.005859 0.015625)"/>
      <use xlink:href="#DejaVuSans-20" transform="translate(799.414062 0.015625)"/>
      <use xlink:href="#DejaVuSans-28" transform="translate(831.201172 0.015625)"/>
      <use xlink:href="#DejaVuSans-Oblique-4a" transform="translate(870.214844 0.015625)"/>
      <use xlink:href="#DejaVuSans-Oblique-4f" transform="translate(899.707031 -16.390625) scale(0.7)"/>
      <use xlink:href="#DejaVuSans-29" transform="translate(957.539062 0.015625)"/>
     </g>
    </g>
    <g id="line2d_24">
     <path d="M 69.545313 232.76 
L 81.545313 232.76 
L 93.545313 232.76 
" style="fill: none; stroke: #00ffff; stroke-width: 1.5; stroke-linecap: square"/>
    </g>
    <g id="text_20">
     <!-- Acetate Excretion $(J_\mathrm{out})$ -->
     <g transform="translate(103.145313 236.96) scale(0.12 -0.12)">
      <use xlink:href="#DejaVuSans-41" transform="translate(0 0.015625)"/>
      <use xlink:href="#DejaVuSans-63" transform="translate(68.408203 0.015625)"/>
      <use xlink:href="#DejaVuSans-65" transform="translate(123.388672 0.015625)"/>
      <use xlink:href="#DejaVuSans-74" transform="translate(184.912109 0.015625)"/>
      <use xlink:href="#DejaVuSans-61" transform="translate(224.121094 0.015625)"/>
      <use xlink:href="#DejaVuSans-74" transform="translate(285.400391 0.015625)"/>
      <use xlink:href="#DejaVuSans-65" transform="translate(324.609375 0.015625)"/>
      <use xlink:href="#DejaVuSans-20" transform="translate(386.132812 0.015625)"/>
      <use xlink:href="#DejaVuSans-45" transform="translate(417.919922 0.015625)"/>
      <use xlink:href="#DejaVuSans-78" transform="translate(481.103516 0.015625)"/>
      <use xlink:href="#DejaVuSans-63" transform="translate(540.283203 0.015625)"/>
      <use xlink:href="#DejaVuSans-72" transform="translate(595.263672 0.015625)"/>
      <use xlink:href="#DejaVuSans-65" transform="translate(636.376953 0.015625)"/>
      <use xlink:href="#DejaVuSans-74" transform="translate(697.900391 0.015625)"/>
      <use xlink:href="#DejaVuSans-69" transform="translate(737.109375 0.015625)"/>
      <use xlink:href="#DejaVuSans-6f" transform="translate(764.892578 0.015625)"/>
      <use xlink:href="#DejaVuSans-6e" transform="translate(826.074219 0.015625)"/>
      <use xlink:href="#DejaVuSans-20" transform="translate(889.453125 0.015625)"/>
      <use xlink:href="#DejaVuSans-28" transform="translate(921.240234 0.015625)"/>
      <use xlink:href="#DejaVuSans-Oblique-4a" transform="translate(960.253906 0.015625)"/>
      <use xlink:href="#DejaVuSans-6f" transform="translate(989.746094 -16.390625) scale(0.7)"/>
      <use xlink:href="#DejaVuSans-75" transform="translate(1032.573242 -16.390625) scale(0.7)"/>
      <use xlink:href="#DejaVuSans-74" transform="translate(1076.938477 -16.390625) scale(0.7)"/>
      <use xlink:href="#DejaVuSans-29" transform="translate(1107.119141 0.015625)"/>
     </g>
    </g>
    <g id="line2d_25">
     <path d="M 69.545313 250.4 
L 81.545313 250.4 
L 93.545313 250.4 
" style="fill: none; stroke: #ffa500; stroke-width: 1.5; stroke-linecap: square"/>
    </g>
    <g id="text_21">
     <!-- Lipid Synthesis $(J_P)$ -->
     <g transform="translate(103.145313 254.6) scale(0.12 -0.12)">
      <defs>
       <path id="DejaVuSans-4c" d="M 628 4666 
L 1259 4666 
L 1259 531 
L 3531 531 
L 3531 0 
L 628 0 
L 628 4666 
z
" transform="scale(0.015625)"/>
       <path id="DejaVuSans-64" d="M 2906 2969 
L 2906 4863 
L 3481 4863 
L 3481 0 
L 2906 0 
L 2906 525 
Q 2725 213 2448 61 
Q 2172 -91 1784 -91 
Q 1150 -91 751 415 
Q 353 922 353 1747 
Q 353 2572 751 3078 
Q 1150 3584 1784 3584 
Q 2172 3584 2448 3432 
Q 2725 3281 2906 2969 
z
M 947 1747 
Q 947 1113 1208 752 
Q 1469 391 1925 391 
Q 2381 391 2643 752 
Q 2906 1113 2906 1747 
Q 2906 2381 2643 2742 
Q 2381 3103 1925 3103 
Q 1469 3103 1208 2742 
Q 947 2381 947 1747 
z
" transform="scale(0.015625)"/>
       <path id="DejaVuSans-53" d="M 3425 4513 
L 3425 3897 
Q 3066 4069 2747 4153 
Q 2428 4238 2131 4238 
Q 1616 4238 1336 4038 
Q 1056 3838 1056 3469 
Q 1056 3159 1242 3001 
Q 1428 2844 1947 2747 
L 2328 2669 
Q 3034 2534 3370 2195 
Q 3706 1856 3706 1288 
Q 3706 609 3251 259 
Q 2797 -91 1919 -91 
Q 1588 -91 1214 -16 
Q 841 59 441 206 
L 441 856 
Q 825 641 1194 531 
Q 1563 422 1919 422 
Q 2459 422 2753 634 
Q 3047 847 3047 1241 
Q 3047 1584 2836 1778 
Q 2625 1972 2144 2069 
L 1759 2144 
Q 1053 2284 737 2584 
Q 422 2884 422 3419 
Q 422 4038 858 4394 
Q 1294 4750 2059 4750 
Q 2388 4750 2728 4690 
Q 3069 4631 3425 4513 
z
" transform="scale(0.015625)"/>
       <path id="DejaVuSans-Oblique-50" d="M 1081 4666 
L 2541 4666 
Q 3178 4666 3512 4369 
Q 3847 4072 3847 3500 
Q 3847 2731 3353 2303 
Q 2859 1875 1966 1875 
L 1172 1875 
L 806 0 
L 172 0 
L 1081 4666 
z
M 1613 4147 
L 1275 2394 
L 2069 2394 
Q 2606 2394 2893 2669 
Q 3181 2944 3181 3456 
Q 3181 3784 2986 3965 
Q 2791 4147 2438 4147 
L 1613 4147 
z
" transform="scale(0.015625)"/>
      </defs>
      <use xlink:href="#DejaVuSans-4c" transform="translate(0 0.015625)"/>
      <use xlink:href="#DejaVuSans-69" transform="translate(55.712891 0.015625)"/>
      <use xlink:href="#DejaVuSans-70" transform="translate(83.496094 0.015625)"/>
      <use xlink:href="#DejaVuSans-69" transform="translate(146.972656 0.015625)"/>
      <use xlink:href="#DejaVuSans-64" transform="translate(174.755859 0.015625)"/>
      <use xlink:href="#DejaVuSans-20" transform="translate(238.232422 0.015625)"/>
      <use xlink:href="#DejaVuSans-53" transform="translate(270.019531 0.015625)"/>
      <use xlink:href="#DejaVuSans-79" transform="translate(333.496094 0.015625)"/>
      <use xlink:href="#DejaVuSans-6e" transform="translate(392.675781 0.015625)"/>
      <use xlink:href="#DejaVuSans-74" transform="translate(456.054688 0.015625)"/>
      <use xlink:href="#DejaVuSans-68" transform="translate(495.263672 0.015625)"/>
      <use xlink:href="#DejaVuSans-65" transform="translate(558.642578 0.015625)"/>
      <use xlink:href="#DejaVuSans-73" transform="translate(620.166016 0.015625)"/>
      <use xlink:href="#DejaVuSans-69" transform="translate(672.265625 0.015625)"/>
      <use xlink:href="#DejaVuSans-73" transform="translate(700.048828 0.015625)"/>
      <use xlink:href="#DejaVuSans-20" transform="translate(752.148438 0.015625)"/>
      <use xlink:href="#DejaVuSans-28" transform="translate(783.935547 0.015625)"/>
      <use xlink:href="#DejaVuSans-Oblique-4a" transform="translate(822.949219 0.015625)"/>
      <use xlink:href="#DejaVuSans-Oblique-50" transform="translate(852.441406 -16.390625) scale(0.7)"/>
      <use xlink:href="#DejaVuSans-29" transform="translate(897.387695 0.015625)"/>
     </g>
    </g>
    <g id="line2d_26">
     <path d="M 69.545313 268.04 
L 81.545313 268.04 
L 93.545313 268.04 
" style="fill: none; stroke: #800080; stroke-width: 1.5; stroke-linecap: square"/>
    </g>
    <g id="text_22">
     <!-- Maintenance $(J_\mathrm{mait})$ -->
     <g transform="translate(103.145313 272.24) scale(0.12 -0.12)">
      <defs>
       <path id="DejaVuSans-6d" d="M 3328 2828 
Q 3544 3216 3844 3400 
Q 4144 3584 4550 3584 
Q 5097 3584 5394 3201 
Q 5691 2819 5691 2113 
L 5691 0 
L 5113 0 
L 5113 2094 
Q 5113 2597 4934 2840 
Q 4756 3084 4391 3084 
Q 3944 3084 3684 2787 
Q 3425 2491 3425 1978 
L 3425 0 
L 2847 0 
L 2847 2094 
Q 2847 2600 2669 2842 
Q 2491 3084 2119 3084 
Q 1678 3084 1418 2786 
Q 1159 2488 1159 1978 
L 1159 0 
L 581 0 
L 581 3500 
L 1159 3500 
L 1159 2956 
Q 1356 3278 1631 3431 
Q 1906 3584 2284 3584 
Q 2666 3584 2933 3390 
Q 3200 3197 3328 2828 
z
" transform="scale(0.015625)"/>
      </defs>
      <use xlink:href="#DejaVuSans-4d" transform="translate(0 0.015625)"/>
      <use xlink:href="#DejaVuSans-61" transform="translate(86.279297 0.015625)"/>
      <use xlink:href="#DejaVuSans-69" transform="translate(147.558594 0.015625)"/>
      <use xlink:href="#DejaVuSans-6e" transform="translate(175.341797 0.015625)"/>
      <use xlink:href="#DejaVuSans-74" transform="translate(238.720703 0.015625)"/>
      <use xlink:href="#DejaVuSans-65" transform="translate(277.929688 0.015625)"/>
      <use xlink:href="#DejaVuSans-6e" transform="translate(339.453125 0.015625)"/>
      <use xlink:href="#DejaVuSans-61" transform="translate(402.832031 0.015625)"/>
      <use xlink:href="#DejaVuSans-6e" transform="translate(464.111328 0.015625)"/>
      <use xlink:href="#DejaVuSans-63" transform="translate(527.490234 0.015625)"/>
      <use xlink:href="#DejaVuSans-65" transform="translate(582.470703 0.015625)"/>
      <use xlink:href="#DejaVuSans-20" transform="translate(643.994141 0.015625)"/>
      <use xlink:href="#DejaVuSans-28" transform="translate(675.78125 0.015625)"/>
      <use xlink:href="#DejaVuSans-Oblique-4a" transform="translate(714.794922 0.015625)"/>
      <use xlink:href="#DejaVuSans-6d" transform="translate(744.287109 -16.390625) scale(0.7)"/>
      <use xlink:href="#DejaVuSans-61" transform="translate(812.475586 -16.390625) scale(0.7)"/>
      <use xlink:href="#DejaVuSans-69" transform="translate(855.371094 -16.390625) scale(0.7)"/>
      <use xlink:href="#DejaVuSans-74" transform="translate(874.819336 -16.390625) scale(0.7)"/>
      <use xlink:href="#DejaVuSans-29" transform="translate(905 0.015625)"/>
     </g>
    </g>
    <g id="line2d_27">
     <path d="M 69.545313 285.68 
L 81.545313 285.68 
L 93.545313 285.68 
" style="fill: none; stroke: #ff0000; stroke-width: 1.5; stroke-linecap: square"/>
    </g>
    <g id="text_23">
     <!-- Translation $(J_B)$ -->
     <g transform="translate(103.145313 289.88) scale(0.12 -0.12)">
      <defs>
       <path id="DejaVuSans-Oblique-42" d="M 1081 4666 
L 2694 4666 
Q 3350 4666 3675 4422 
Q 4000 4178 4000 3688 
Q 4000 3238 3720 2911 
Q 3441 2584 2988 2516 
Q 3375 2428 3569 2181 
Q 3763 1934 3763 1522 
Q 3763 819 3242 409 
Q 2722 0 1819 0 
L 172 0 
L 1081 4666 
z
M 1234 2228 
L 903 519 
L 1919 519 
Q 2491 519 2800 781 
Q 3109 1044 3109 1522 
Q 3109 1891 2904 2059 
Q 2700 2228 2247 2228 
L 1234 2228 
z
M 1606 4147 
L 1331 2741 
L 2272 2741 
Q 2775 2741 3058 2959 
Q 3341 3178 3341 3566 
Q 3341 3869 3150 4008 
Q 2959 4147 2541 4147 
L 1606 4147 
z
" transform="scale(0.015625)"/>
      </defs>
      <use xlink:href="#DejaVuSans-54" transform="translate(0 0.015625)"/>
      <use xlink:href="#DejaVuSans-72" transform="translate(61.083984 0.015625)"/>
      <use xlink:href="#DejaVuSans-61" transform="translate(102.197266 0.015625)"/>
      <use xlink:href="#DejaVuSans-6e" transform="translate(163.476562 0.015625)"/>
      <use xlink:href="#DejaVuSans-73" transform="translate(226.855469 0.015625)"/>
      <use xlink:href="#DejaVuSans-6c" transform="translate(278.955078 0.015625)"/>
      <use xlink:href="#DejaVuSans-61" transform="translate(306.738281 0.015625)"/>
      <use xlink:href="#DejaVuSans-74" transform="translate(368.017578 0.015625)"/>
      <use xlink:href="#DejaVuSans-69" transform="translate(407.226562 0.015625)"/>
      <use xlink:href="#DejaVuSans-6f" transform="translate(435.009766 0.015625)"/>
      <use xlink:href="#DejaVuSans-6e" transform="translate(496.191406 0.015625)"/>
      <use xlink:href="#DejaVuSans-20" transform="translate(559.570312 0.015625)"/>
      <use xlink:href="#DejaVuSans-28" transform="translate(591.357422 0.015625)"/>
      <use xlink:href="#DejaVuSans-Oblique-4a" transform="translate(630.371094 0.015625)"/>
      <use xlink:href="#DejaVuSans-Oblique-42" transform="translate(659.863281 -16.390625) scale(0.7)"/>
      <use xlink:href="#DejaVuSans-29" transform="translate(710.620117 0.015625)"/>
     </g>
    </g>
   </g>
  </g>
 </g>
 <defs>
  <clipPath id="p9ffd2c9bcd">
   <rect x="58.745313" y="25.6" width="290.454687" height="277.6"/>
  </clipPath>
 </defs>
</svg>
