<?xml version="1.0" encoding="utf-8" standalone="no"?>
<!DOCTYPE svg PUBLIC "-//W3C//DTD SVG 1.1//EN"
  "http://www.w3.org/Graphics/SVG/1.1/DTD/svg11.dtd">
<svg xmlns:xlink="http://www.w3.org/1999/xlink" width="339.023125pt" height="324.338125pt" viewBox="0 0 339.023125 324.338125" xmlns="http://www.w3.org/2000/svg" version="1.1">
 <metadata>
  <rdf:RDF xmlns:dc="http://purl.org/dc/elements/1.1/" xmlns:cc="http://creativecommons.org/ns#" xmlns:rdf="http://www.w3.org/1999/02/22-rdf-syntax-ns#">
   <cc:Work>
    <dc:type rdf:resource="http://purl.org/dc/dcmitype/StillImage"/>
    <dc:date>2026-07-24T03:14:55.160443</dc:date>
    <dc:format>image/svg+xml</dc:format>
    <dc:creator>
     <cc:Agent>
      <dc:title>Matplotlib v3.8.0, https://matplotlib.org/</dc:title>
     </cc:Agent>
    </dc:creator>
   </cc:Work>
  </rdf:RDF>
 </metadata>
 <defs>
  <style type="text/css">*{stroke-linejoin: round; stroke-linecap: butt}</style>
 </defs>
 <g id="figure_1">
  <g id="patch_1">
   <path d="M 0 324.338125 
L 339.023125 324.338125 
L 339.023125 0 
L 0 0 
z
" style="fill: #ffffff"/>
  </g>
  <g id="axes_1">
   <g id="patch_2">
    <path d="M 52.823125 279 
L 331.823125 279 
L 331.823125 7.2 
L 52.823125 7.2 
z
" style="fill: #ffffff"/>
   </g>
   <g id="matplotlib.axis_1">
    <g id="xtick_1">
     <g id="line2d_1">
      <defs>
       <path id="mb7e122d96c" d="M 0 0 
L 0 3.5 
" style="stroke: #000000; stroke-width: 0.8"/>
      </defs>
      <g>
       <use xlink:href="#mb7e122d96c" x="76.201818" y="279" style="stroke: #000000; stroke-width: 0.8"/>
      </g>
     </g>
     <g id="text_1">
      <!-- 5 -->
      <g transform="translate(73.020568 293.598437) scale(0.1 -0.1)">
       <defs>
        <path id="DejaVuSans-35" d="M 691 4666 
L 3169 4666 
L 3169 4134 
L 1269 4134 
L 1269 2991 
Q 1406 3038 1543 3061 
Q 1681 3084 1819 3084 
Q 2600 3084 3056 2656 
Q 3513 2228 3513 1497 
Q 3513 744 3044 326 
Q 2575 -91 1722 -91 
Q 1428 -91 1123 -41 
Q 819 9 494 109 
L 494 744 
Q 775 591 1075 516 
Q 1375 441 1709 441 
Q 2250 441 2565 725 
Q 2881 1009 2881 1497 
Q 2881 1984 2565 2268 
Q 2250 2553 1709 2553 
Q 1456 2553 1204 2497 
Q 953 2441 691 2322 
L 691 4666 
z
" transform="scale(0.015625)"/>
       </defs>
       <use xlink:href="#DejaVuSans-35"/>
      </g>
     </g>
    </g>
    <g id="xtick_2">
     <g id="line2d_2">
      <g>
       <use xlink:href="#mb7e122d96c" x="111.205511" y="279" style="stroke: #000000; stroke-width: 0.8"/>
      </g>
     </g>
     <g id="text_2">
      <!-- 10 -->
      <g transform="translate(104.843011 293.598437) scale(0.1 -0.1)">
       <defs>
        <path id="DejaVuSans-31" d="M 794 531 
L 1825 531 
L 1825 4091 
L 703 3866 
L 703 4441 
L 1819 4666 
L 2450 4666 
L 2450 531 
L 3481 531 
L 3481 0 
L 794 0 
L 794 531 
z
" transform="scale(0.015625)"/>
        <path id="DejaVuSans-30" d="M 2034 4250 
Q 1547 4250 1301 3770 
Q 1056 3291 1056 2328 
Q 1056 1369 1301 889 
Q 1547 409 2034 409 
Q 2525 409 2770 889 
Q 3016 1369 3016 2328 
Q 3016 3291 2770 3770 
Q 2525 4250 2034 4250 
z
M 2034 4750 
Q 2819 4750 3233 4129 
Q 3647 3509 3647 2328 
Q 3647 1150 3233 529 
Q 2819 -91 2034 -91 
Q 1250 -91 836 529 
Q 422 1150 422 2328 
Q 422 3509 836 4129 
Q 1250 4750 2034 4750 
z
" transform="scale(0.015625)"/>
       </defs>
       <use xlink:href="#DejaVuSans-31"/>
       <use xlink:href="#DejaVuSans-30" x="63.623047"/>
      </g>
     </g>
    </g>
    <g id="xtick_3">
     <g id="line2d_3">
      <g>
       <use xlink:href="#mb7e122d96c" x="146.209205" y="279" style="stroke: #000000; stroke-width: 0.8"/>
      </g>
     </g>
     <g id="text_3">
      <!-- 15 -->
      <g transform="translate(139.846705 293.598437) scale(0.1 -0.1)">
       <use xlink:href="#DejaVuSans-31"/>
       <use xlink:href="#DejaVuSans-35" x="63.623047"/>
      </g>
     </g>
    </g>
    <g id="xtick_4">
     <g id="line2d_4">
      <g>
       <use xlink:href="#mb7e122d96c" x="181.212898" y="279" style="stroke: #000000; stroke-width: 0.8"/>
      </g>
     </g>
     <g id="text_4">
      <!-- 20 -->
      <g transform="translate(174.850398 293.598437) scale(0.1 -0.1)">
       <defs>
        <path id="DejaVuSans-32" d="M 1228 531 
L 3431 531 
L 3431 0 
L 469 0 
L 469 531 
Q 828 903 1448 1529 
Q 2069 2156 2228 2338 
Q 2531 2678 2651 2914 
Q 2772 3150 2772 3378 
Q 2772 3750 2511 3984 
Q 2250 4219 1831 4219 
Q 1534 4219 1204 4116 
Q 875 4013 500 3803 
L 500 4441 
Q 881 4594 1212 4672 
Q 1544 4750 1819 4750 
Q 2544 4750 2975 4387 
Q 3406 4025 3406 3419 
Q 3406 3131 3298 2873 
Q 3191 2616 2906 2266 
Q 2828 2175 2409 1742 
Q 1991 1309 1228 531 
z
" transform="scale(0.015625)"/>
       </defs>
       <use xlink:href="#DejaVuSans-32"/>
       <use xlink:href="#DejaVuSans-30" x="63.623047"/>
      </g>
     </g>
    </g>
    <g id="xtick_5">
     <g id="line2d_5">
      <g>
       <use xlink:href="#mb7e122d96c" x="216.216591" y="279" style="stroke: #000000; stroke-width: 0.8"/>
      </g>
     </g>
     <g id="text_5">
      <!-- 25 -->
      <g transform="translate(209.854091 293.598437) scale(0.1 -0.1)">
       <use xlink:href="#DejaVuSans-32"/>
       <use xlink:href="#DejaVuSans-35" x="63.623047"/>
      </g>
     </g>
    </g>
    <g id="xtick_6">
     <g id="line2d_6">
      <g>
       <use xlink:href="#mb7e122d96c" x="251.220284" y="279" style="stroke: #000000; stroke-width: 0.8"/>
      </g>
     </g>
     <g id="text_6">
      <!-- 30 -->
      <g transform="translate(244.857784 293.598437) scale(0.1 -0.1)">
       <defs>
        <path id="DejaVuSans-33" d="M 2597 2516 
Q 3050 2419 3304 2112 
Q 3559 1806 3559 1356 
Q 3559 666 3084 287 
Q 2609 -91 1734 -91 
Q 1441 -91 1130 -33 
Q 819 25 488 141 
L 488 750 
Q 750 597 1062 519 
Q 1375 441 1716 441 
Q 2309 441 2620 675 
Q 2931 909 2931 1356 
Q 2931 1769 2642 2001 
Q 2353 2234 1838 2234 
L 1294 2234 
L 1294 2753 
L 1863 2753 
Q 2328 2753 2575 2939 
Q 2822 3125 2822 3475 
Q 2822 3834 2567 4026 
Q 2313 4219 1838 4219 
Q 1578 4219 1281 4162 
Q 984 4106 628 3988 
L 628 4550 
Q 988 4650 1302 4700 
Q 1616 4750 1894 4750 
Q 2613 4750 3031 4423 
Q 3450 4097 3450 3541 
Q 3450 3153 3228 2886 
Q 3006 2619 2597 2516 
z
" transform="scale(0.015625)"/>
       </defs>
       <use xlink:href="#DejaVuSans-33"/>
       <use xlink:href="#DejaVuSans-30" x="63.623047"/>
      </g>
     </g>
    </g>
    <g id="xtick_7">
     <g id="line2d_7">
      <g>
       <use xlink:href="#mb7e122d96c" x="286.223977" y="279" style="stroke: #000000; stroke-width: 0.8"/>
      </g>
     </g>
     <g id="text_7">
      <!-- 35 -->
      <g transform="translate(279.861477 293.598437) scale(0.1 -0.1)">
       <use xlink:href="#DejaVuSans-33"/>
       <use xlink:href="#DejaVuSans-35" x="63.623047"/>
      </g>
     </g>
    </g>
    <g id="xtick_8">
     <g id="line2d_8">
      <g>
       <use xlink:href="#mb7e122d96c" x="321.22767" y="279" style="stroke: #000000; stroke-width: 0.8"/>
      </g>
     </g>
     <g id="text_8">
      <!-- 40 -->
      <g transform="translate(314.86517 293.598437) scale(0.1 -0.1)">
       <defs>
        <path id="DejaVuSans-34" d="M 2419 4116 
L 825 1625 
L 2419 1625 
L 2419 4116 
z
M 2253 4666 
L 3047 4666 
L 3047 1625 
L 3713 1625 
L 3713 1100 
L 3047 1100 
L 3047 0 
L 2419 0 
L 2419 1100 
L 313 1100 
L 313 1709 
L 2253 4666 
z
" transform="scale(0.015625)"/>
       </defs>
       <use xlink:href="#DejaVuSans-34"/>
       <use xlink:href="#DejaVuSans-30" x="63.623047"/>
      </g>
     </g>
    </g>
    <g id="text_9">
     <!-- Ext. glucose conc. $[G_0]$ [$\mu$M] -->
     <g transform="translate(66.143125 313.358125) scale(0.18 -0.18)">
      <defs>
       <path id="DejaVuSans-45" d="M 628 4666 
L 3578 4666 
L 3578 4134 
L 1259 4134 
L 1259 2753 
L 3481 2753 
L 3481 2222 
L 1259 2222 
L 1259 531 
L 3634 531 
L 3634 0 
L 628 0 
L 628 4666 
z
" transform="scale(0.015625)"/>
       <path id="DejaVuSans-78" d="M 3513 3500 
L 2247 1797 
L 3578 0 
L 2900 0 
L 1881 1375 
L 863 0 
L 184 0 
L 1544 1831 
L 300 3500 
L 978 3500 
L 1906 2253 
L 2834 3500 
L 3513 3500 
z
" transform="scale(0.015625)"/>
       <path id="DejaVuSans-74" d="M 1172 4494 
L 1172 3500 
L 2356 3500 
L 2356 3053 
L 1172 3053 
L 1172 1153 
Q 1172 725 1289 603 
Q 1406 481 1766 481 
L 2356 481 
L 2356 0 
L 1766 0 
Q 1100 0 847 248 
Q 594 497 594 1153 
L 594 3053 
L 172 3053 
L 172 3500 
L 594 3500 
L 594 4494 
L 1172 4494 
z
" transform="scale(0.015625)"/>
       <path id="DejaVuSans-2e" d="M 684 794 
L 1344 794 
L 1344 0 
L 684 0 
L 684 794 
z
" transform="scale(0.015625)"/>
       <path id="DejaVuSans-20" transform="scale(0.015625)"/>
       <path id="DejaVuSans-67" d="M 2906 1791 
Q 2906 2416 2648 2759 
Q 2391 3103 1925 3103 
Q 1463 3103 1205 2759 
Q 947 2416 947 1791 
Q 947 1169 1205 825 
Q 1463 481 1925 481 
Q 2391 481 2648 825 
Q 2906 1169 2906 1791 
z
M 3481 434 
Q 3481 -459 3084 -895 
Q 2688 -1331 1869 -1331 
Q 1566 -1331 1297 -1286 
Q 1028 -1241 775 -1147 
L 775 -588 
Q 1028 -725 1275 -790 
Q 1522 -856 1778 -856 
Q 2344 -856 2625 -561 
Q 2906 -266 2906 331 
L 2906 616 
Q 2728 306 2450 153 
Q 2172 0 1784 0 
Q 1141 0 747 490 
Q 353 981 353 1791 
Q 353 2603 747 3093 
Q 1141 3584 1784 3584 
Q 2172 3584 2450 3431 
Q 2728 3278 2906 2969 
L 2906 3500 
L 3481 3500 
L 3481 434 
z
" transform="scale(0.015625)"/>
       <path id="DejaVuSans-6c" d="M 603 4863 
L 1178 4863 
L 1178 0 
L 603 0 
L 603 4863 
z
" transform="scale(0.015625)"/>
       <path id="DejaVuSans-75" d="M 544 1381 
L 544 3500 
L 1119 3500 
L 1119 1403 
Q 1119 906 1312 657 
Q 1506 409 1894 409 
Q 2359 409 2629 706 
Q 2900 1003 2900 1516 
L 2900 3500 
L 3475 3500 
L 3475 0 
L 2900 0 
L 2900 538 
Q 2691 219 2414 64 
Q 2138 -91 1772 -91 
Q 1169 -91 856 284 
Q 544 659 544 1381 
z
M 1991 3584 
L 1991 3584 
z
" transform="scale(0.015625)"/>
       <path id="DejaVuSans-63" d="M 3122 3366 
L 3122 2828 
Q 2878 2963 2633 3030 
Q 2388 3097 2138 3097 
Q 1578 3097 1268 2742 
Q 959 2388 959 1747 
Q 959 1106 1268 751 
Q 1578 397 2138 397 
Q 2388 397 2633 464 
Q 2878 531 3122 666 
L 3122 134 
Q 2881 22 2623 -34 
Q 2366 -91 2075 -91 
Q 1284 -91 818 406 
Q 353 903 353 1747 
Q 353 2603 823 3093 
Q 1294 3584 2113 3584 
Q 2378 3584 2631 3529 
Q 2884 3475 3122 3366 
z
" transform="scale(0.015625)"/>
       <path id="DejaVuSans-6f" d="M 1959 3097 
Q 1497 3097 1228 2736 
Q 959 2375 959 1747 
Q 959 1119 1226 758 
Q 1494 397 1959 397 
Q 2419 397 2687 759 
Q 2956 1122 2956 1747 
Q 2956 2369 2687 2733 
Q 2419 3097 1959 3097 
z
M 1959 3584 
Q 2709 3584 3137 3096 
Q 3566 2609 3566 1747 
Q 3566 888 3137 398 
Q 2709 -91 1959 -91 
Q 1206 -91 779 398 
Q 353 888 353 1747 
Q 353 2609 779 3096 
Q 1206 3584 1959 3584 
z
" transform="scale(0.015625)"/>
       <path id="DejaVuSans-73" d="M 2834 3397 
L 2834 2853 
Q 2591 2978 2328 3040 
Q 2066 3103 1784 3103 
Q 1356 3103 1142 2972 
Q 928 2841 928 2578 
Q 928 2378 1081 2264 
Q 1234 2150 1697 2047 
L 1894 2003 
Q 2506 1872 2764 1633 
Q 3022 1394 3022 966 
Q 3022 478 2636 193 
Q 2250 -91 1575 -91 
Q 1294 -91 989 -36 
Q 684 19 347 128 
L 347 722 
Q 666 556 975 473 
Q 1284 391 1588 391 
Q 1994 391 2212 530 
Q 2431 669 2431 922 
Q 2431 1156 2273 1281 
Q 2116 1406 1581 1522 
L 1381 1569 
Q 847 1681 609 1914 
Q 372 2147 372 2553 
Q 372 3047 722 3315 
Q 1072 3584 1716 3584 
Q 2034 3584 2315 3537 
Q 2597 3491 2834 3397 
z
" transform="scale(0.015625)"/>
       <path id="DejaVuSans-65" d="M 3597 1894 
L 3597 1613 
L 953 1613 
Q 991 1019 1311 708 
Q 1631 397 2203 397 
Q 2534 397 2845 478 
Q 3156 559 3463 722 
L 3463 178 
Q 3153 47 2828 -22 
Q 2503 -91 2169 -91 
Q 1331 -91 842 396 
Q 353 884 353 1716 
Q 353 2575 817 3079 
Q 1281 3584 2069 3584 
Q 2775 3584 3186 3129 
Q 3597 2675 3597 1894 
z
M 3022 2063 
Q 3016 2534 2758 2815 
Q 2500 3097 2075 3097 
Q 1594 3097 1305 2825 
Q 1016 2553 972 2059 
L 3022 2063 
z
" transform="scale(0.015625)"/>
       <path id="DejaVuSans-6e" d="M 3513 2113 
L 3513 0 
L 2938 0 
L 2938 2094 
Q 2938 2591 2744 2837 
Q 2550 3084 2163 3084 
Q 1697 3084 1428 2787 
Q 1159 2491 1159 1978 
L 1159 0 
L 581 0 
L 581 3500 
L 1159 3500 
L 1159 2956 
Q 1366 3272 1645 3428 
Q 1925 3584 2291 3584 
Q 2894 3584 3203 3211 
Q 3513 2838 3513 2113 
z
" transform="scale(0.015625)"/>
       <path id="DejaVuSans-5b" d="M 550 4863 
L 1875 4863 
L 1875 4416 
L 1125 4416 
L 1125 -397 
L 1875 -397 
L 1875 -844 
L 550 -844 
L 550 4863 
z
" transform="scale(0.015625)"/>
       <path id="DejaVuSans-Oblique-47" d="M 3494 697 
L 3738 1919 
L 2700 1919 
L 2797 2438 
L 4453 2438 
L 4050 384 
Q 3634 156 3143 32 
Q 2653 -91 2156 -91 
Q 1278 -91 783 396 
Q 288 884 288 1753 
Q 288 2475 589 3126 
Q 891 3778 1422 4213 
Q 1756 4484 2153 4617 
Q 2550 4750 3034 4750 
Q 3472 4750 3873 4639 
Q 4275 4528 4641 4306 
L 4513 3634 
Q 4231 3928 3853 4083 
Q 3475 4238 3047 4238 
Q 2550 4238 2172 4048 
Q 1794 3859 1497 3463 
Q 1244 3125 1098 2667 
Q 953 2209 953 1734 
Q 953 1081 1287 751 
Q 1622 422 2284 422 
Q 2616 422 2925 492 
Q 3234 563 3494 697 
z
" transform="scale(0.015625)"/>
       <path id="DejaVuSans-5d" d="M 1947 4863 
L 1947 -844 
L 622 -844 
L 622 -397 
L 1369 -397 
L 1369 4416 
L 622 4416 
L 622 4863 
L 1947 4863 
z
" transform="scale(0.015625)"/>
       <path id="DejaVuSans-Oblique-3bc" d="M -84 -1331 
L 856 3500 
L 1434 3500 
L 1009 1322 
Q 997 1256 987 1175 
Q 978 1094 978 1013 
Q 978 722 1161 565 
Q 1344 409 1684 409 
Q 2147 409 2431 671 
Q 2716 934 2816 1459 
L 3213 3500 
L 3788 3500 
L 3266 809 
Q 3253 750 3248 706 
Q 3244 663 3244 628 
Q 3244 531 3283 486 
Q 3322 441 3406 441 
Q 3438 441 3492 456 
Q 3547 472 3647 513 
L 3559 50 
Q 3422 -19 3297 -55 
Q 3172 -91 3053 -91 
Q 2847 -91 2730 40 
Q 2613 172 2613 403 
Q 2438 153 2195 31 
Q 1953 -91 1625 -91 
Q 1334 -91 1117 43 
Q 900 178 831 397 
L 494 -1331 
L -84 -1331 
z
" transform="scale(0.015625)"/>
       <path id="DejaVuSans-4d" d="M 628 4666 
L 1569 4666 
L 2759 1491 
L 3956 4666 
L 4897 4666 
L 4897 0 
L 4281 0 
L 4281 4097 
L 3078 897 
L 2444 897 
L 1241 4097 
L 1241 0 
L 628 0 
L 628 4666 
z
" transform="scale(0.015625)"/>
      </defs>
      <use xlink:href="#DejaVuSans-45" transform="translate(0 0.015625)"/>
      <use xlink:href="#DejaVuSans-78" transform="translate(63.183594 0.015625)"/>
      <use xlink:href="#DejaVuSans-74" transform="translate(122.363281 0.015625)"/>
      <use xlink:href="#DejaVuSans-2e" transform="translate(161.572266 0.015625)"/>
      <use xlink:href="#DejaVuSans-20" transform="translate(193.359375 0.015625)"/>
      <use xlink:href="#DejaVuSans-67" transform="translate(225.146484 0.015625)"/>
      <use xlink:href="#DejaVuSans-6c" transform="translate(288.623047 0.015625)"/>
      <use xlink:href="#DejaVuSans-75" transform="translate(316.40625 0.015625)"/>
      <use xlink:href="#DejaVuSans-63" transform="translate(379.785156 0.015625)"/>
      <use xlink:href="#DejaVuSans-6f" transform="translate(434.765625 0.015625)"/>
      <use xlink:href="#DejaVuSans-73" transform="translate(495.947266 0.015625)"/>
      <use xlink:href="#DejaVuSans-65" transform="translate(548.046875 0.015625)"/>
      <use xlink:href="#DejaVuSans-20" transform="translate(609.570312 0.015625)"/>
      <use xlink:href="#DejaVuSans-63" transform="translate(641.357422 0.015625)"/>
      <use xlink:href="#DejaVuSans-6f" transform="translate(696.337891 0.015625)"/>
      <use xlink:href="#DejaVuSans-6e" transform="translate(757.519531 0.015625)"/>
      <use xlink:href="#DejaVuSans-63" transform="translate(820.898438 0.015625)"/>
      <use xlink:href="#DejaVuSans-2e" transform="translate(875.878906 0.015625)"/>
      <use xlink:href="#DejaVuSans-20" transform="translate(907.666016 0.015625)"/>
      <use xlink:href="#DejaVuSans-5b" transform="translate(939.453125 0.015625)"/>
      <use xlink:href="#DejaVuSans-Oblique-47" transform="translate(978.466797 0.015625)"/>
      <use xlink:href="#DejaVuSans-30" transform="translate(1055.957031 -16.390625) scale(0.7)"/>
      <use xlink:href="#DejaVuSans-5d" transform="translate(1103.227539 0.015625)"/>
      <use xlink:href="#DejaVuSans-20" transform="translate(1142.241211 0.015625)"/>
      <use xlink:href="#DejaVuSans-5b" transform="translate(1174.02832 0.015625)"/>
      <use xlink:href="#DejaVuSans-Oblique-3bc" transform="translate(1213.041992 0.015625)"/>
      <use xlink:href="#DejaVuSans-4d" transform="translate(1276.665039 0.015625)"/>
      <use xlink:href="#DejaVuSans-5d" transform="translate(1362.944336 0.015625)"/>
     </g>
    </g>
   </g>
   <g id="matplotlib.axis_2">
    <g id="ytick_1">
     <g id="line2d_9">
      <defs>
       <path id="m14c322196c" d="M 0 0 
L -3.5 0 
" style="stroke: #000000; stroke-width: 0.8"/>
      </defs>
      <g>
       <use xlink:href="#m14c322196c" x="52.823125" y="269.170213" style="stroke: #000000; stroke-width: 0.8"/>
      </g>
     </g>
     <g id="text_10">
      <!-- 0.2 -->
      <g transform="translate(29.92 272.969432) scale(0.1 -0.1)">
       <use xlink:href="#DejaVuSans-30"/>
       <use xlink:href="#DejaVuSans-2e" x="63.623047"/>
       <use xlink:href="#DejaVuSans-32" x="95.410156"/>
      </g>
     </g>
    </g>
    <g id="ytick_2">
     <g id="line2d_10">
      <g>
       <use xlink:href="#m14c322196c" x="52.823125" y="235.381894" style="stroke: #000000; stroke-width: 0.8"/>
      </g>
     </g>
     <g id="text_11">
      <!-- 0.3 -->
      <g transform="translate(29.92 239.181113) scale(0.1 -0.1)">
       <use xlink:href="#DejaVuSans-30"/>
       <use xlink:href="#DejaVuSans-2e" x="63.623047"/>
       <use xlink:href="#DejaVuSans-33" x="95.410156"/>
      </g>
     </g>
    </g>
    <g id="ytick_3">
     <g id="line2d_11">
      <g>
       <use xlink:href="#m14c322196c" x="52.823125" y="201.593575" style="stroke: #000000; stroke-width: 0.8"/>
      </g>
     </g>
     <g id="text_12">
      <!-- 0.4 -->
      <g transform="translate(29.92 205.392794) scale(0.1 -0.1)">
       <use xlink:href="#DejaVuSans-30"/>
       <use xlink:href="#DejaVuSans-2e" x="63.623047"/>
       <use xlink:href="#DejaVuSans-34" x="95.410156"/>
      </g>
     </g>
    </g>
    <g id="ytick_4">
     <g id="line2d_12">
      <g>
       <use xlink:href="#m14c322196c" x="52.823125" y="167.805256" style="stroke: #000000; stroke-width: 0.8"/>
      </g>
     </g>
     <g id="text_13">
      <!-- 0.5 -->
      <g transform="translate(29.92 171.604475) scale(0.1 -0.1)">
       <use xlink:href="#DejaVuSans-30"/>
       <use xlink:href="#DejaVuSans-2e" x="63.623047"/>
       <use xlink:href="#DejaVuSans-35" x="95.410156"/>
      </g>
     </g>
    </g>
    <g id="ytick_5">
     <g id="line2d_13">
      <g>
       <use xlink:href="#m14c322196c" x="52.823125" y="134.016938" style="stroke: #000000; stroke-width: 0.8"/>
      </g>
     </g>
     <g id="text_14">
      <!-- 0.6 -->
      <g transform="translate(29.92 137.816156) scale(0.1 -0.1)">
       <defs>
        <path id="DejaVuSans-36" d="M 2113 2584 
Q 1688 2584 1439 2293 
Q 1191 2003 1191 1497 
Q 1191 994 1439 701 
Q 1688 409 2113 409 
Q 2538 409 2786 701 
Q 3034 994 3034 1497 
Q 3034 2003 2786 2293 
Q 2538 2584 2113 2584 
z
M 3366 4563 
L 3366 3988 
Q 3128 4100 2886 4159 
Q 2644 4219 2406 4219 
Q 1781 4219 1451 3797 
Q 1122 3375 1075 2522 
Q 1259 2794 1537 2939 
Q 1816 3084 2150 3084 
Q 2853 3084 3261 2657 
Q 3669 2231 3669 1497 
Q 3669 778 3244 343 
Q 2819 -91 2113 -91 
Q 1303 -91 875 529 
Q 447 1150 447 2328 
Q 447 3434 972 4092 
Q 1497 4750 2381 4750 
Q 2619 4750 2861 4703 
Q 3103 4656 3366 4563 
z
" transform="scale(0.015625)"/>
       </defs>
       <use xlink:href="#DejaVuSans-30"/>
       <use xlink:href="#DejaVuSans-2e" x="63.623047"/>
       <use xlink:href="#DejaVuSans-36" x="95.410156"/>
      </g>
     </g>
    </g>
    <g id="ytick_6">
     <g id="line2d_14">
      <g>
       <use xlink:href="#m14c322196c" x="52.823125" y="100.228619" style="stroke: #000000; stroke-width: 0.8"/>
      </g>
     </g>
     <g id="text_15">
      <!-- 0.7 -->
      <g transform="translate(29.92 104.027837) scale(0.1 -0.1)">
       <defs>
        <path id="DejaVuSans-37" d="M 525 4666 
L 3525 4666 
L 3525 4397 
L 1831 0 
L 1172 0 
L 2766 4134 
L 525 4134 
L 525 4666 
z
" transform="scale(0.015625)"/>
       </defs>
       <use xlink:href="#DejaVuSans-30"/>
       <use xlink:href="#DejaVuSans-2e" x="63.623047"/>
       <use xlink:href="#DejaVuSans-37" x="95.410156"/>
      </g>
     </g>
    </g>
    <g id="ytick_7">
     <g id="line2d_15">
      <g>
       <use xlink:href="#m14c322196c" x="52.823125" y="66.4403" style="stroke: #000000; stroke-width: 0.8"/>
      </g>
     </g>
     <g id="text_16">
      <!-- 0.8 -->
      <g transform="translate(29.92 70.239519) scale(0.1 -0.1)">
       <defs>
        <path id="DejaVuSans-38" d="M 2034 2216 
Q 1584 2216 1326 1975 
Q 1069 1734 1069 1313 
Q 1069 891 1326 650 
Q 1584 409 2034 409 
Q 2484 409 2743 651 
Q 3003 894 3003 1313 
Q 3003 1734 2745 1975 
Q 2488 2216 2034 2216 
z
M 1403 2484 
Q 997 2584 770 2862 
Q 544 3141 544 3541 
Q 544 4100 942 4425 
Q 1341 4750 2034 4750 
Q 2731 4750 3128 4425 
Q 3525 4100 3525 3541 
Q 3525 3141 3298 2862 
Q 3072 2584 2669 2484 
Q 3125 2378 3379 2068 
Q 3634 1759 3634 1313 
Q 3634 634 3220 271 
Q 2806 -91 2034 -91 
Q 1263 -91 848 271 
Q 434 634 434 1313 
Q 434 1759 690 2068 
Q 947 2378 1403 2484 
z
M 1172 3481 
Q 1172 3119 1398 2916 
Q 1625 2713 2034 2713 
Q 2441 2713 2670 2916 
Q 2900 3119 2900 3481 
Q 2900 3844 2670 4047 
Q 2441 4250 2034 4250 
Q 1625 4250 1398 4047 
Q 1172 3844 1172 3481 
z
" transform="scale(0.015625)"/>
       </defs>
       <use xlink:href="#DejaVuSans-30"/>
       <use xlink:href="#DejaVuSans-2e" x="63.623047"/>
       <use xlink:href="#DejaVuSans-38" x="95.410156"/>
      </g>
     </g>
    </g>
    <g id="ytick_8">
     <g id="line2d_16">
      <g>
       <use xlink:href="#m14c322196c" x="52.823125" y="32.651981" style="stroke: #000000; stroke-width: 0.8"/>
      </g>
     </g>
     <g id="text_17">
      <!-- 0.9 -->
      <g transform="translate(29.92 36.4512) scale(0.1 -0.1)">
       <defs>
        <path id="DejaVuSans-39" d="M 703 97 
L 703 672 
Q 941 559 1184 500 
Q 1428 441 1663 441 
Q 2288 441 2617 861 
Q 2947 1281 2994 2138 
Q 2813 1869 2534 1725 
Q 2256 1581 1919 1581 
Q 1219 1581 811 2004 
Q 403 2428 403 3163 
Q 403 3881 828 4315 
Q 1253 4750 1959 4750 
Q 2769 4750 3195 4129 
Q 3622 3509 3622 2328 
Q 3622 1225 3098 567 
Q 2575 -91 1691 -91 
Q 1453 -91 1209 -44 
Q 966 3 703 97 
z
M 1959 2075 
Q 2384 2075 2632 2365 
Q 2881 2656 2881 3163 
Q 2881 3666 2632 3958 
Q 2384 4250 1959 4250 
Q 1534 4250 1286 3958 
Q 1038 3666 1038 3163 
Q 1038 2656 1286 2365 
Q 1534 2075 1959 2075 
z
" transform="scale(0.015625)"/>
       </defs>
       <use xlink:href="#DejaVuSans-30"/>
       <use xlink:href="#DejaVuSans-2e" x="63.623047"/>
       <use xlink:href="#DejaVuSans-39" x="95.410156"/>
      </g>
     </g>
    </g>
    <g id="text_18">
     <!-- Growth rate $\kappa$ $[h^{-1}] $ -->
     <g transform="translate(22.176563 231.03) rotate(-90) scale(0.18 -0.18)">
      <defs>
       <path id="DejaVuSans-47" d="M 3809 666 
L 3809 1919 
L 2778 1919 
L 2778 2438 
L 4434 2438 
L 4434 434 
Q 4069 175 3628 42 
Q 3188 -91 2688 -91 
Q 1594 -91 976 548 
Q 359 1188 359 2328 
Q 359 3472 976 4111 
Q 1594 4750 2688 4750 
Q 3144 4750 3555 4637 
Q 3966 4525 4313 4306 
L 4313 3634 
Q 3963 3931 3569 4081 
Q 3175 4231 2741 4231 
Q 1884 4231 1454 3753 
Q 1025 3275 1025 2328 
Q 1025 1384 1454 906 
Q 1884 428 2741 428 
Q 3075 428 3337 486 
Q 3600 544 3809 666 
z
" transform="scale(0.015625)"/>
       <path id="DejaVuSans-72" d="M 2631 2963 
Q 2534 3019 2420 3045 
Q 2306 3072 2169 3072 
Q 1681 3072 1420 2755 
Q 1159 2438 1159 1844 
L 1159 0 
L 581 0 
L 581 3500 
L 1159 3500 
L 1159 2956 
Q 1341 3275 1631 3429 
Q 1922 3584 2338 3584 
Q 2397 3584 2469 3576 
Q 2541 3569 2628 3553 
L 2631 2963 
z
" transform="scale(0.015625)"/>
       <path id="DejaVuSans-77" d="M 269 3500 
L 844 3500 
L 1563 769 
L 2278 3500 
L 2956 3500 
L 3675 769 
L 4391 3500 
L 4966 3500 
L 4050 0 
L 3372 0 
L 2619 2869 
L 1863 0 
L 1184 0 
L 269 3500 
z
" transform="scale(0.015625)"/>
       <path id="DejaVuSans-68" d="M 3513 2113 
L 3513 0 
L 2938 0 
L 2938 2094 
Q 2938 2591 2744 2837 
Q 2550 3084 2163 3084 
Q 1697 3084 1428 2787 
Q 1159 2491 1159 1978 
L 1159 0 
L 581 0 
L 581 4863 
L 1159 4863 
L 1159 2956 
Q 1366 3272 1645 3428 
Q 1925 3584 2291 3584 
Q 2894 3584 3203 3211 
Q 3513 2838 3513 2113 
z
" transform="scale(0.015625)"/>
       <path id="DejaVuSans-61" d="M 2194 1759 
Q 1497 1759 1228 1600 
Q 959 1441 959 1056 
Q 959 750 1161 570 
Q 1363 391 1709 391 
Q 2188 391 2477 730 
Q 2766 1069 2766 1631 
L 2766 1759 
L 2194 1759 
z
M 3341 1997 
L 3341 0 
L 2766 0 
L 2766 531 
Q 2569 213 2275 61 
Q 1981 -91 1556 -91 
Q 1019 -91 701 211 
Q 384 513 384 1019 
Q 384 1609 779 1909 
Q 1175 2209 1959 2209 
L 2766 2209 
L 2766 2266 
Q 2766 2663 2505 2880 
Q 2244 3097 1772 3097 
Q 1472 3097 1187 3025 
Q 903 2953 641 2809 
L 641 3341 
Q 956 3463 1253 3523 
Q 1550 3584 1831 3584 
Q 2591 3584 2966 3190 
Q 3341 2797 3341 1997 
z
" transform="scale(0.015625)"/>
       <path id="DejaVuSans-Oblique-3ba" d="M 938 3500 
L 1531 3500 
L 1247 2047 
L 3041 3500 
L 3741 3500 
L 2106 2181 
L 3275 0 
L 2572 0 
L 1628 1806 
L 1122 1403 
L 850 0 
L 256 0 
L 938 3500 
z
" transform="scale(0.015625)"/>
       <path id="DejaVuSans-Oblique-68" d="M 3566 2113 
L 3156 0 
L 2578 0 
L 2988 2091 
Q 3016 2238 3031 2350 
Q 3047 2463 3047 2528 
Q 3047 2791 2881 2937 
Q 2716 3084 2419 3084 
Q 1956 3084 1617 2771 
Q 1278 2459 1178 1941 
L 800 0 
L 225 0 
L 1172 4863 
L 1747 4863 
L 1375 2950 
Q 1594 3244 1934 3414 
Q 2275 3584 2650 3584 
Q 3113 3584 3367 3334 
Q 3622 3084 3622 2631 
Q 3622 2519 3608 2391 
Q 3594 2263 3566 2113 
z
" transform="scale(0.015625)"/>
       <path id="DejaVuSans-2212" d="M 678 2272 
L 4684 2272 
L 4684 1741 
L 678 1741 
L 678 2272 
z
" transform="scale(0.015625)"/>
      </defs>
      <use xlink:href="#DejaVuSans-47" transform="translate(0 0.684375)"/>
      <use xlink:href="#DejaVuSans-72" transform="translate(77.490234 0.684375)"/>
      <use xlink:href="#DejaVuSans-6f" transform="translate(118.603516 0.684375)"/>
      <use xlink:href="#DejaVuSans-77" transform="translate(179.785156 0.684375)"/>
      <use xlink:href="#DejaVuSans-74" transform="translate(261.572266 0.684375)"/>
      <use xlink:href="#DejaVuSans-68" transform="translate(300.78125 0.684375)"/>
      <use xlink:href="#DejaVuSans-20" transform="translate(364.160156 0.684375)"/>
      <use xlink:href="#DejaVuSans-72" transform="translate(395.947266 0.684375)"/>
      <use xlink:href="#DejaVuSans-61" transform="translate(437.060547 0.684375)"/>
      <use xlink:href="#DejaVuSans-74" transform="translate(498.339844 0.684375)"/>
      <use xlink:href="#DejaVuSans-65" transform="translate(537.548828 0.684375)"/>
      <use xlink:href="#DejaVuSans-20" transform="translate(599.072266 0.684375)"/>
      <use xlink:href="#DejaVuSans-Oblique-3ba" transform="translate(630.859375 0.684375)"/>
      <use xlink:href="#DejaVuSans-20" transform="translate(689.794922 0.684375)"/>
      <use xlink:href="#DejaVuSans-5b" transform="translate(721.582031 0.684375)"/>
      <use xlink:href="#DejaVuSans-Oblique-68" transform="translate(760.595703 0.684375)"/>
      <use xlink:href="#DejaVuSans-2212" transform="translate(831.422318 38.965625) scale(0.7)"/>
      <use xlink:href="#DejaVuSans-31" transform="translate(890.074661 38.965625) scale(0.7)"/>
      <use xlink:href="#DejaVuSans-5d" transform="translate(937.345169 0.684375)"/>
     </g>
    </g>
   </g>
   <g id="line2d_17">
    <path d="M 52.823125 266.645455 
L 54.944373 255.586878 
L 57.177267 244.704132 
L 59.521804 234.066292 
L 62.089632 223.208528 
L 64.880748 212.257319 
L 68.006798 200.943352 
L 71.579428 189.130596 
L 76.045214 175.725667 
L 82.297315 159.138313 
L 83.971985 155.118909 
L 84.753497 153.255583 
L 85.981588 150.447185 
L 86.874746 148.381717 
L 87.879548 146.214787 
L 88.772705 144.2389 
L 89.554217 142.579072 
L 90.224085 141.149651 
L 91.005598 139.546138 
L 91.675466 138.163613 
L 92.456979 136.614364 
L 93.238491 135.018579 
L 93.796714 133.959898 
L 94.578227 132.410283 
L 95.13645 131.384872 
L 95.917963 129.879915 
L 96.476186 128.886695 
L 97.257699 127.424947 
L 97.704277 126.622959 
L 98.48579 125.199332 
L 99.044013 124.264776 
L 99.937171 122.651874 
L 100.383749 121.896455 
L 101.165262 120.552254 
L 101.83513 119.452417 
L 102.504998 118.287536 
L 102.951576 117.573913 
L 103.5098 116.650823 
L 103.956378 115.952911 
L 104.626246 114.836284 
L 105.072825 114.155291 
L 105.742693 113.063044 
L 106.189271 112.398547 
L 106.859139 111.330068 
L 107.194073 110.885284 
L 107.975586 109.636356 
L 108.198875 109.319208 
L 108.868743 108.291958 
L 109.203677 107.868713 
L 109.98519 106.666375 
L 110.208479 106.362879 
L 110.878347 105.375057 
L 111.101636 105.077425 
L 111.771504 104.106535 
L 111.994794 103.814653 
L 112.776306 102.673381 
L 113.11124 102.289311 
L 114.004398 100.988095 
L 114.227687 100.710062 
L 114.897555 99.795746 
L 115.120844 99.523093 
L 115.902357 98.445951 
L 116.125646 98.17919 
L 116.907159 97.121687 
L 117.130448 96.860696 
L 117.911961 95.822422 
L 118.13525 95.567081 
L 118.916762 94.547639 
L 119.140052 94.297833 
L 119.921564 93.296834 
L 120.144854 93.05245 
L 121.038011 91.90407 
L 121.2613 91.66555 
L 122.042813 90.702139 
L 122.266102 90.468814 
L 123.159259 89.362193 
L 123.382549 89.134486 
L 124.275706 88.049072 
L 124.498995 87.826861 
L 125.280508 86.91775 
L 125.838731 86.329614 
L 126.508599 85.500961 
L 126.731889 85.289387 
L 127.290112 84.623639 
L 127.513401 84.415671 
L 128.071624 83.758365 
L 128.294914 83.553949 
L 128.853137 82.904957 
L 129.076426 82.70404 
L 129.63465 82.063238 
L 129.857939 81.865768 
L 130.416162 81.233033 
L 130.639452 81.038959 
L 131.309319 80.270669 
L 131.532609 80.080392 
L 132.090832 79.464475 
L 132.314121 79.277489 
L 132.983989 78.528926 
L 133.207279 78.34562 
L 133.765502 77.745996 
L 133.988791 77.565879 
L 134.658659 76.836429 
L 134.881949 76.65988 
L 135.551816 75.940345 
L 135.775106 75.767305 
L 136.333329 75.191661 
L 136.556618 75.021663 
L 137.226486 74.320348 
L 137.449776 74.153754 
L 138.119644 73.461894 
L 138.342933 73.298648 
L 139.012801 72.616089 
L 139.23609 72.456139 
L 140.017603 71.65458 
L 140.240892 71.498257 
L 140.91076 70.834907 
L 141.134049 70.681769 
L 141.803917 70.027264 
L 142.027207 69.877262 
L 142.808719 69.107712 
L 143.032009 68.961163 
L 143.813521 68.202705 
L 144.03681 68.059548 
L 144.706678 67.432712 
L 144.929968 67.292536 
L 145.71148 66.554563 
L 145.93477 66.417668 
L 146.716282 65.690235 
L 146.939572 65.556567 
L 147.721084 64.839491 
L 147.944373 64.708995 
L 148.837531 63.887106 
L 149.06082 63.760057 
L 149.842333 63.064207 
L 150.065622 62.940218 
L 150.847135 62.254183 
L 151.070424 62.133202 
L 151.963581 61.34601 
L 152.18687 61.228301 
L 153.080028 60.45302 
L 153.303317 60.338522 
L 154.196474 59.574931 
L 154.419764 59.463586 
L 155.312921 58.711469 
L 155.53621 58.603221 
L 156.429367 57.862368 
L 156.652657 57.75716 
L 157.545814 57.027367 
L 157.769103 56.925145 
L 158.662261 56.20621 
L 158.88555 56.106921 
L 159.890352 55.297471 
L 160.113641 55.201339 
L 161.118443 54.404721 
L 161.341732 54.311685 
L 162.23489 53.626101 
L 162.458179 53.535836 
L 163.462981 52.763081 
L 163.68627 52.6758 
L 164.802717 51.819336 
L 165.026006 51.735238 
L 165.472585 51.40546 
L 165.695874 51.429334 
L 166.700676 50.95419 
L 166.923965 50.979645 
L 167.928767 50.510636 
L 168.152057 50.537642 
L 169.045214 50.125863 
L 169.268503 50.154255 
L 170.38495 49.646097 
L 170.608239 49.676121 
L 171.613041 49.224834 
L 171.83633 49.256326 
L 172.841132 48.810728 
L 173.064422 48.843661 
L 174.180868 48.355026 
L 174.404157 48.389503 
L 175.408959 47.955448 
L 175.632249 47.991312 
L 176.748695 47.51526 
L 176.971985 47.552611 
L 178.088431 47.082927 
L 178.31172 47.121735 
L 179.428167 46.658294 
L 179.651456 46.698532 
L 180.767903 46.241215 
L 180.991192 46.282855 
L 182.219283 45.786674 
L 182.442573 45.829805 
L 183.670664 45.340613 
L 183.893953 45.385205 
L 185.0104 44.94648 
L 185.233689 44.992392 
L 186.46178 44.516258 
L 186.68507 44.563574 
L 188.024806 44.051597 
L 188.248095 44.100396 
L 189.476186 43.637765 
L 189.699476 43.687911 
L 191.039211 43.190357 
L 191.262501 43.241926 
L 192.602237 42.751609 
L 192.825526 42.80457 
L 194.165262 42.321336 
L 194.388551 42.375662 
L 195.728287 41.899361 
L 195.951576 41.955022 
L 197.291312 41.485509 
L 197.514602 41.542479 
L 198.965982 41.041287 
L 199.189271 41.09963 
L 200.640652 40.605967 
L 200.863941 40.665654 
L 202.315322 40.179356 
L 202.538611 40.240357 
L 203.989992 39.761262 
L 204.213281 39.82355 
L 205.776306 39.315434 
L 205.999596 39.379066 
L 207.562621 38.878846 
L 207.78591 38.943792 
L 209.348935 38.451289 
L 209.572225 38.517519 
L 211.13525 38.032559 
L 211.358539 38.100046 
L 213.033209 37.588582 
L 213.256498 37.657375 
L 214.931168 37.154095 
L 215.154458 37.224164 
L 216.829127 36.728875 
L 217.052417 36.800191 
L 218.727087 36.312708 
L 218.950376 36.385243 
L 220.73669 35.873624 
L 220.95998 35.947421 
L 222.746294 35.444195 
L 222.969584 35.519224 
L 224.755898 35.024188 
L 224.979187 35.10042 
L 226.877147 34.583166 
L 227.100436 34.660639 
L 228.998395 34.152117 
L 229.221684 34.230801 
L 231.119644 33.730795 
L 231.342933 33.810662 
L 233.352537 33.290261 
L 233.575826 33.371343 
L 235.58543 32.859954 
L 235.808719 32.94222 
L 237.929968 32.411913 
L 238.153257 32.495393 
L 240.162861 32.00176 
L 240.38615 32.086366 
L 242.507399 31.574322 
L 242.730688 31.660082 
L 244.963581 31.130769 
L 245.18687 31.217708 
L 247.419764 30.698032 
L 247.643053 30.78612 
L 249.875946 30.275825 
L 250.099235 30.365031 
L 252.443773 29.839021 
L 252.667063 29.929366 
L 255.0116 29.413098 
L 255.23489 29.504553 
L 257.691072 28.973835 
L 257.914361 29.066419 
L 260.370544 28.545761 
L 260.593833 28.639442 
L 263.16166 28.105548 
L 263.38495 28.200342 
L 265.952777 27.676786 
L 266.176066 27.772661 
L 268.743893 27.259149 
L 268.967183 27.356077 
L 271.758299 26.80893 
L 271.981588 26.906964 
L 274.66106 26.392167 
L 274.884349 26.491235 
L 277.675466 25.96557 
L 277.898755 26.065682 
L 280.801516 25.530064 
L 281.024806 25.63123 
L 284.039211 25.086561 
L 284.262501 25.188786 
L 287.276907 24.655506 
L 287.500196 24.758759 
L 290.514602 24.236519 
L 290.737891 24.340769 
L 293.863941 23.810472 
L 294.087231 23.915724 
L 297.324926 23.37819 
L 297.548215 23.484446 
L 300.897555 22.940475 
L 301.120844 23.047737 
L 304.470184 22.515658 
L 304.693473 22.623895 
L 308.266102 22.068991 
L 308.489392 22.178232 
L 311.950376 21.652698 
L 312.173665 21.762881 
L 315.857939 21.216 
L 316.081228 21.327154 
L 319.877147 20.776748 
L 320.100436 20.888867 
L 323.896354 20.351239 
L 324.119644 20.464291 
L 328.027207 19.923724 
L 328.250496 20.037705 
L 331.823125 19.554545 
L 331.823125 19.554545 
" clip-path="url(#paa0eae69b0)" style="fill: none; stroke: #000000; stroke-width: 1.5; stroke-linecap: square"/>
   </g>
   <g id="line2d_18">
    <path d="M 166.365742 279 
L 166.365742 7.2 
" clip-path="url(#paa0eae69b0)" style="fill: none; stroke-dasharray: 3.7,1.6; stroke-dashoffset: 0; stroke: #808080"/>
   </g>
   <g id="patch_3">
    <path d="M 52.823125 279 
L 52.823125 7.2 
" style="fill: none; stroke: #000000; stroke-width: 0.8; stroke-linejoin: miter; stroke-linecap: square"/>
   </g>
   <g id="patch_4">
    <path d="M 331.823125 279 
L 331.823125 7.2 
" style="fill: none; stroke: #000000; stroke-width: 0.8; stroke-linejoin: miter; stroke-linecap: square"/>
   </g>
   <g id="patch_5">
    <path d="M 52.823125 279 
L 331.823125 279 
" style="fill: none; stroke: #000000; stroke-width: 0.8; stroke-linejoin: miter; stroke-linecap: square"/>
   </g>
   <g id="patch_6">
    <path d="M 52.823125 7.2 
L 331.823125 7.2 
" style="fill: none; stroke: #000000; stroke-width: 0.8; stroke-linejoin: miter; stroke-linecap: square"/>
   </g>
  </g>
 </g>
 <defs>
  <clipPath id="paa0eae69b0">
   <rect x="52.823125" y="7.2" width="279" height="271.8"/>
  </clipPath>
 </defs>
</svg>
